<svg xmlns="http://www.w3.org/2000/svg" width="45.948" height="45.948" viewBox="0 0 45.948 45.948">
  <path id="INSTAGRAM" d="M307.631,2362.053a11.749,11.749,0,0,0-6.719-6.719,16.846,16.846,0,0,0-5.577-1.067c-2.45-.112-3.232-.139-9.473-.139s-7.021.026-9.472.139a16.843,16.843,0,0,0-5.577,1.067,11.749,11.749,0,0,0-6.718,6.719,16.835,16.835,0,0,0-1.068,5.577c-.112,2.45-.139,3.233-.139,9.472s.027,7.022.139,9.472a16.823,16.823,0,0,0,1.068,5.576,11.75,11.75,0,0,0,6.718,6.72,16.842,16.842,0,0,0,5.577,1.068c2.451.112,3.233.139,9.472.139s7.022-.027,9.473-.139a16.845,16.845,0,0,0,5.577-1.068,11.749,11.749,0,0,0,6.719-6.72,16.845,16.845,0,0,0,1.068-5.576c.112-2.451.138-3.233.138-9.472s-.026-7.021-.138-9.472A16.857,16.857,0,0,0,307.631,2362.053ZM285.863,2388.9a11.8,11.8,0,1,1,11.8-11.8A11.8,11.8,0,0,1,285.863,2388.9Zm12.264-21.3a2.757,2.757,0,1,1,2.757-2.758A2.758,2.758,0,0,1,298.127,2367.6Zm-4.605,9.506a7.658,7.658,0,1,1-7.658-7.658A7.658,7.658,0,0,1,293.521,2377.1Z" transform="translate(-262.889 -2354.128)" fill="#ff4571" fill-rule="evenodd"/>
</svg>
