<svg xmlns="http://www.w3.org/2000/svg" width="46.417" height="46.336" viewBox="0 0 46.417 46.336">
  <path id="LINKEDIN" d="M-271.853,2370.459h9.62v30.951h-9.62Zm45.65,13.974v16.977h-9.613v-15.052c0-3.589-.066-8.206-5-8.206-5,0-5.773,3.91-5.773,7.946v15.311H-256.2v-30.951h9.226v4.229h.129a10.108,10.108,0,0,1,9.1-5C-228,2369.689-226.2,2376.1-226.2,2384.433Zm-35.263-23.783a5.58,5.58,0,0,1-5.575,5.579,5.578,5.578,0,0,1-5.579-5.579,5.577,5.577,0,0,1,5.579-5.575A5.579,5.579,0,0,1-261.466,2360.649Z" transform="translate(272.619 -2355.074)" fill="#ff4571" fill-rule="evenodd"/>
</svg>
