<svg xmlns="http://www.w3.org/2000/svg" width="56.761" height="46.13" viewBox="0 0 56.761 46.13">
  <path id="TWITTER" d="M578.377,2363.781a23.245,23.245,0,0,1-6.688,1.833,11.684,11.684,0,0,0,5.121-6.441,23.341,23.341,0,0,1-7.394,2.827,11.656,11.656,0,0,0-19.846,10.62,33.061,33.061,0,0,1-24-12.167A11.655,11.655,0,0,0,529.172,2376a11.561,11.561,0,0,1-5.274-1.457c0,.049,0,.1,0,.149a11.651,11.651,0,0,0,9.343,11.417,11.622,11.622,0,0,1-5.259.2,11.658,11.658,0,0,0,10.879,8.089,23.367,23.367,0,0,1-14.463,4.985,23.674,23.674,0,0,1-2.778-.161,32.969,32.969,0,0,0,17.851,5.231c21.42,0,33.134-17.746,33.134-33.134q0-.757-.033-1.506A23.7,23.7,0,0,0,578.377,2363.781Z" transform="translate(-521.616 -2358.32)" fill="#ff4571" fill-rule="evenodd"/>
</svg>
