<svg xmlns="http://www.w3.org/2000/svg" width="64.858" height="45.616" viewBox="0 0 64.858 45.616">
  <path id="YOUTUBE" d="M2.239,2362.09a9.275,9.275,0,0,0-6.5-2.747c-9.076-.656-22.69-.656-22.69-.656h-.028s-13.614,0-22.69.656a9.276,9.276,0,0,0-6.5,2.747c-1.945,1.968-2.577,6.438-2.577,6.438a98.069,98.069,0,0,0-.649,10.5v4.92a98.063,98.063,0,0,0,.649,10.5s.633,4.469,2.577,6.438c2.467,2.583,5.708,2.5,7.151,2.772,5.189.5,22.051.651,22.051.651s13.628-.02,22.7-.677a9.275,9.275,0,0,0,6.5-2.747c1.945-1.968,2.578-6.438,2.578-6.438a98.2,98.2,0,0,0,.648-10.5v-4.92a98.2,98.2,0,0,0-.648-10.5S4.184,2364.059,2.239,2362.09Zm-35.9,27.818v-18.223l17.525,9.143Z" transform="translate(59.392 -2358.687)" fill="#ff4571" fill-rule="evenodd"/>
</svg>
