<svg id="Grupo_1199" data-name="Grupo 1199" xmlns="http://www.w3.org/2000/svg" width="60.346" height="55.693" viewBox="0 0 60.346 55.693">
  <g id="Grupo_1194" data-name="Grupo 1194" transform="translate(0 5.536)">
    <path id="Caminho_1615" data-name="Caminho 1615" d="M-6477.778,3153.3a.891.891,0,0,0-.055-.325l-.028-.028a.861.861,0,0,0-.095-.161l-6.214-8.115v-31.214a3.778,3.778,0,0,0-3.666-3.88h-4.421a.913.913,0,0,0-.912.923.907.907,0,0,0,.912.9h4.421a1.953,1.953,0,0,1,1.834,2.062v30.588h-43.887v-12.89a.913.913,0,0,0-.911-.923.924.924,0,0,0-.923.923v13.515l-6.2,8.115a.918.918,0,0,0-.095.161c-.014,0-.028.028-.028.028a.908.908,0,0,0-.067.325v2.8a3.647,3.647,0,0,0,3.649,3.638h53.034a3.65,3.65,0,0,0,3.663-3.638v-2.768Zm-52.572-7.409h44.821l4.994,6.542h-54.81Zm50.751,10.205a1.819,1.819,0,0,1-1.832,1.818h-53.034a1.828,1.828,0,0,1-1.831-1.818v-1.845h56.7Z" transform="translate(6538.113 -3109.577)" fill="#706f6f"/>
  </g>
  <g id="Grupo_1195" data-name="Grupo 1195" transform="translate(0 0)">
    <path id="Caminho_1616" data-name="Caminho 1616" d="M-6534.464,3116.28h8.238v12.159a.9.9,0,0,0,.909.9h34.755a.9.9,0,0,0,.909-.9v-23.773a.91.91,0,0,0-.909-.923h-5.347V3096.5a3.657,3.657,0,0,0-3.663-3.663h-34.891a3.652,3.652,0,0,0-3.649,3.663v16.15A3.646,3.646,0,0,0-6534.464,3116.28Zm38.554-3.635v-7.084h4.424v21.956h-32.923V3116.28h11.251l8.862,6.3a.933.933,0,0,0,.529.161.752.752,0,0,0,.419-.108.869.869,0,0,0,.489-.787v-5.564h3.286A3.651,3.651,0,0,0-6495.91,3112.645Zm-40.385-16.15a1.836,1.836,0,0,1,1.831-1.846h34.891a1.836,1.836,0,0,1,1.831,1.846v16.15a1.83,1.83,0,0,1-1.831,1.818h-4.194a.917.917,0,0,0-.923.9v4.7l-7.64-5.427a.918.918,0,0,0-.528-.164h-21.606a1.83,1.83,0,0,1-1.831-1.818Z" transform="translate(6538.113 -3092.832)" fill="#706f6f"/>
  </g>
  <g id="Grupo_1196" data-name="Grupo 1196" transform="translate(21.1 7.193)">
    <path id="Caminho_1617" data-name="Caminho 1617" d="M-6473.381,3116.433h11.886a.924.924,0,0,0,.923-.923.94.94,0,0,0-.923-.923h-11.886a.931.931,0,0,0-.912.923A.915.915,0,0,0-6473.381,3116.433Z" transform="translate(6474.293 -3114.587)" fill="#706f6f"/>
  </g>
  <g id="Grupo_1197" data-name="Grupo 1197" transform="translate(7.382 7.193)">
    <path id="Caminho_1618" data-name="Caminho 1618" d="M-6514.863,3116.433h8.224a.912.912,0,0,0,.908-.923.928.928,0,0,0-.908-.923h-8.224a.931.931,0,0,0-.923.923A.915.915,0,0,0-6514.863,3116.433Z" transform="translate(6515.786 -3114.587)" fill="#706f6f"/>
  </g>
  <g id="Grupo_1198" data-name="Grupo 1198" transform="translate(7.382 14.41)">
    <path id="Caminho_1619" data-name="Caminho 1619" d="M-6514.863,3138.263h19.188a.931.931,0,0,0,.923-.923.915.915,0,0,0-.923-.923h-19.187a.915.915,0,0,0-.923.923A.931.931,0,0,0-6514.863,3138.263Z" transform="translate(6515.786 -3136.418)" fill="#706f6f"/>
  </g>
</svg>
