<svg id="Grupo_1185" data-name="Grupo 1185" xmlns="http://www.w3.org/2000/svg" width="57.172" height="56.654" viewBox="0 0 57.172 56.654">
  <g id="Grupo_1174" data-name="Grupo 1174" transform="translate(0 24.927)">
    <path id="Caminho_1597" data-name="Caminho 1597" d="M-6912.763,3182.486a.894.894,0,0,0-.978.745,12.866,12.866,0,0,1-1.476,4.5.89.89,0,0,0-.1.542l.9,7.17-8.534-.566a1.1,1.1,0,0,0-.411.079,21.756,21.756,0,0,1-8.738,1.8c-10.183,0-18.471-6.812-18.471-15.191,0-5.372,3.509-10.41,9.163-13.137a.866.866,0,0,0,.4-1.156.865.865,0,0,0-1.158-.411c-6.246,3.032-10.139,8.636-10.139,14.7,0,9.332,9.072,16.939,20.205,16.939a23.325,23.325,0,0,0,9.239-1.876l9.384.618a.873.873,0,0,0,.692-.258.866.866,0,0,0,.219-.719l-1-7.944a15.125,15.125,0,0,0,1.554-4.859A.884.884,0,0,0-6912.763,3182.486Z" transform="translate(6952.31 -3166.773)" fill="#706f6f"/>
  </g>
  <g id="Grupo_1175" data-name="Grupo 1175" transform="translate(12.801 1.748)">
    <path id="Caminho_1598" data-name="Caminho 1598" d="M-6891.408,3096.665a25.164,25.164,0,0,0-5.746.642.857.857,0,0,0-.655,1.029.876.876,0,0,0,1.029.668,23.3,23.3,0,0,1,5.372-.592c11.271,0,20.447,7.531,20.447,16.835s-9.176,16.865-20.447,16.865a24.01,24.01,0,0,1-9.666-2.006,1.1,1.1,0,0,0-.41-.076l-9.679.794,1.169-8.173a.789.789,0,0,0-.1-.54,14.3,14.3,0,0,1-1.774-6.865.881.881,0,0,0-.861-.874.882.882,0,0,0-.86.874,15.75,15.75,0,0,0,1.851,7.431l-1.284,8.971a.829.829,0,0,0,.218.718.839.839,0,0,0,.706.285l10.539-.874a25.55,25.55,0,0,0,10.155,2.056c12.222,0,22.185-8.328,22.185-18.586C-6869.224,3105.02-6879.187,3096.665-6891.408,3096.665Z" transform="translate(6913.593 -3096.665)" fill="#706f6f"/>
  </g>
  <g id="Grupo_1176" data-name="Grupo 1176" transform="translate(11.864 44.4)">
    <path id="Caminho_1599" data-name="Caminho 1599" d="M-6916.172,3227.155a.846.846,0,0,0,.605.232.835.835,0,0,0,.6-.232.944.944,0,0,0,.271-.616.846.846,0,0,0-.271-.616.853.853,0,0,0-1.208,0,.841.841,0,0,0-.255.616A.935.935,0,0,0-6916.172,3227.155Z" transform="translate(6916.427 -3225.672)" fill="#706f6f"/>
  </g>
  <g id="Grupo_1177" data-name="Grupo 1177" transform="translate(19.342 44.393)">
    <path id="Caminho_1600" data-name="Caminho 1600" d="M-6892.071,3226.525a.869.869,0,0,0-.874-.874.866.866,0,0,0-.863.874.859.859,0,0,0,.863.848A.861.861,0,0,0-6892.071,3226.525Z" transform="translate(6893.808 -3225.651)" fill="#706f6f"/>
  </g>
  <g id="Grupo_1178" data-name="Grupo 1178" transform="translate(26.836 44.4)">
    <path id="Caminho_1601" data-name="Caminho 1601" d="M-6869.663,3227.155a1.006,1.006,0,0,0,.255-.616.9.9,0,0,0-.255-.616.869.869,0,0,0-1.221,0,.835.835,0,0,0-.258.616.927.927,0,0,0,.258.616.857.857,0,0,0,.6.232A.9.9,0,0,0-6869.663,3227.155Z" transform="translate(6871.142 -3225.672)" fill="#706f6f"/>
  </g>
  <g id="Grupo_1179" data-name="Grupo 1179" transform="translate(9.652 0)">
    <path id="Caminho_1602" data-name="Caminho 1602" d="M-6920.788,3104.129h3.545v3.519a2.338,2.338,0,0,0,2.327,2.34h2.2a2.348,2.348,0,0,0,2.34-2.34v-3.519h3.533a2.348,2.348,0,0,0,2.34-2.34v-2.211a2.348,2.348,0,0,0-2.34-2.34h-3.533v-3.522a2.348,2.348,0,0,0-2.34-2.337h-2.2a2.337,2.337,0,0,0-2.327,2.337v3.522h-3.545a2.337,2.337,0,0,0-2.327,2.34v2.211A2.338,2.338,0,0,0-6920.788,3104.129Zm-.592-4.551a.59.59,0,0,1,.592-.592h4.406a.865.865,0,0,0,.863-.874v-4.4a.614.614,0,0,1,.6-.616h2.2a.614.614,0,0,1,.6.616v4.4a.876.876,0,0,0,.874.874h4.4a.594.594,0,0,1,.605.592v2.211a.612.612,0,0,1-.605.593h-4.4a.875.875,0,0,0-.874.874v4.393a.592.592,0,0,1-.6.593h-2.2a.592.592,0,0,1-.6-.593v-4.393a.864.864,0,0,0-.863-.874h-4.406a.608.608,0,0,1-.592-.593Z" transform="translate(6923.115 -3091.379)" fill="#706f6f"/>
  </g>
  <g id="Grupo_1180" data-name="Grupo 1180" transform="translate(41.258 16.862)">
    <path id="Caminho_1603" data-name="Caminho 1603" d="M-6821.968,3144.128a.862.862,0,0,0,.86-.874.864.864,0,0,0-.86-.874h-4.691a.863.863,0,0,0-.86.874.862.862,0,0,0,.86.874Z" transform="translate(6827.52 -3142.381)" fill="#706f6f"/>
  </g>
  <g id="Grupo_1181" data-name="Grupo 1181" transform="translate(26.528 16.862)">
    <path id="Caminho_1604" data-name="Caminho 1604" d="M-6861.328,3142.381h-9.884a.864.864,0,0,0-.861.874.862.862,0,0,0,.861.874h9.884a.867.867,0,0,0,.874-.874A.869.869,0,0,0-6861.328,3142.381Z" transform="translate(6872.073 -3142.381)" fill="#706f6f"/>
  </g>
  <g id="Grupo_1182" data-name="Grupo 1182" transform="translate(33.274 22.929)">
    <path id="Caminho_1605" data-name="Caminho 1605" d="M-6851.668,3161.606a.882.882,0,0,0,.864.874h12.671a.879.879,0,0,0,.861-.874.862.862,0,0,0-.861-.874H-6850.8A.865.865,0,0,0-6851.668,3161.606Z" transform="translate(6851.668 -3160.732)" fill="#706f6f"/>
  </g>
  <g id="Grupo_1183" data-name="Grupo 1183" transform="translate(21.155 22.929)">
    <path id="Caminho_1606" data-name="Caminho 1606" d="M-6887.462,3162.48h7.468a.879.879,0,0,0,.861-.874.862.862,0,0,0-.861-.874h-7.468a.862.862,0,0,0-.861.874A.879.879,0,0,0-6887.462,3162.48Z" transform="translate(6888.323 -3160.732)" fill="#706f6f"/>
  </g>
  <g id="Grupo_1184" data-name="Grupo 1184" transform="translate(21.155 28.994)">
    <path id="Caminho_1607" data-name="Caminho 1607" d="M-6887.462,3180.826h18.726a.882.882,0,0,0,.861-.876.864.864,0,0,0-.861-.874h-18.726a.864.864,0,0,0-.861.874A.882.882,0,0,0-6887.462,3180.826Z" transform="translate(6888.323 -3179.076)" fill="#706f6f"/>
  </g>
</svg>
