<svg id="Grupo_1193" data-name="Grupo 1193" xmlns="http://www.w3.org/2000/svg" width="56.787" height="56.8" viewBox="0 0 56.787 56.8">
  <g id="Grupo_1186" data-name="Grupo 1186">
    <path id="Caminho_1608" data-name="Caminho 1608" d="M-7314.813,3116.008a.851.851,0,0,0-.855.842v12.642h-12.9a.853.853,0,0,0-.855.842.857.857,0,0,0,.855.868h12.9v2.121a2.58,2.58,0,0,1-2.581,2.578h-48.181a2.583,2.583,0,0,1-2.592-2.578V3131.2h26.791a.859.859,0,0,0,.868-.868.856.856,0,0,0-.868-.842h-26.791v-34.019a2.583,2.583,0,0,1,2.592-2.578h12.03a.858.858,0,0,0,.855-.868.857.857,0,0,0-.855-.868h-12.03a4.315,4.315,0,0,0-4.3,4.315v37.851a4.315,4.315,0,0,0,4.3,4.315h17.457l-1.227,4.292h-2.9a3.019,3.019,0,0,0-3.013,3.013,3.019,3.019,0,0,0,3.013,3.016h21.518a3.01,3.01,0,0,0,3-3.016,3.009,3.009,0,0,0-3-3.013h-2.913l-1.225-4.292h17.468a4.317,4.317,0,0,0,4.3-4.315V3116.85A.855.855,0,0,0-7314.813,3116.008Zm-15.49,28.935a1.273,1.273,0,0,1-1.276,1.279H-7353.1a1.276,1.276,0,0,1-1.29-1.279,1.3,1.3,0,0,1,1.29-1.3h21.518A1.3,1.3,0,0,1-7330.3,3144.943Zm-5.975-3.013h-12.133l1.227-4.292h9.679Z" transform="translate(7370.732 -3091.158)" fill="#706f6f"/>
  </g>
  <g id="Grupo_1187" data-name="Grupo 1187" transform="translate(12.234 19.332)">
    <path id="Caminho_1609" data-name="Caminho 1609" d="M-7332.86,3151.342h3.013a.865.865,0,0,0,.868-.845.869.869,0,0,0-.868-.868h-3.013a.861.861,0,0,0-.868.868A.856.856,0,0,0-7332.86,3151.342Z" transform="translate(7333.728 -3149.629)" fill="#706f6f"/>
  </g>
  <g id="Grupo_1188" data-name="Grupo 1188" transform="translate(12.234 25.642)">
    <path id="Caminho_1610" data-name="Caminho 1610" d="M-7324.47,3168.716h-8.39a.859.859,0,0,0-.868.868.861.861,0,0,0,.868.868h8.39a.859.859,0,0,0,.855-.868A.858.858,0,0,0-7324.47,3168.716Z" transform="translate(7333.728 -3168.716)" fill="#706f6f"/>
  </g>
  <g id="Grupo_1189" data-name="Grupo 1189" transform="translate(6.883)">
    <path id="Caminho_1611" data-name="Caminho 1611" d="M-7300.877,3091.158H-7335.3a.857.857,0,0,0-.855.868v11.9h-12.9a.857.857,0,0,0-.855.868v19.664a.857.857,0,0,0,.855.868h20.47l7.521,5.7a.964.964,0,0,0,.523.178.683.683,0,0,0,.385-.1.825.825,0,0,0,.471-.767v-5.005h5.058a.868.868,0,0,0,.868-.868v-11.9h12.885a.862.862,0,0,0,.869-.868v-19.664A.861.861,0,0,0-7300.877,3091.158Zm-14.608,32.46h-5.058a.838.838,0,0,0-.855.842v4.164l-6.384-4.851a.926.926,0,0,0-.512-.154h-19.895v-17.954h12.029v6.026a.857.857,0,0,0,.855.868h5.056v5.008a.837.837,0,0,0,.486.767.659.659,0,0,0,.369.1.963.963,0,0,0,.525-.181l7.521-5.7h5.86Zm13.754-12.77h-19.9a.936.936,0,0,0-.523.155l-6.373,4.851v-4.163a.856.856,0,0,0-.868-.842h-5.056v-17.953h32.717Z" transform="translate(7349.912 -3091.158)" fill="#706f6f"/>
  </g>
  <g id="Grupo_1190" data-name="Grupo 1190" transform="translate(25.985 6.564)">
    <path id="Caminho_1612" data-name="Caminho 1612" d="M-7291.279,3112.722h23.726a.86.86,0,0,0,.855-.868.853.853,0,0,0-.855-.842h-23.726a.854.854,0,0,0-.857.842A.861.861,0,0,0-7291.279,3112.722Z" transform="translate(7292.137 -3111.012)" fill="#706f6f"/>
  </g>
  <g id="Grupo_1191" data-name="Grupo 1191" transform="translate(25.985 12.77)">
    <path id="Caminho_1613" data-name="Caminho 1613" d="M-7291.279,3131.519h18.184a.862.862,0,0,0,.868-.868.861.861,0,0,0-.868-.868h-18.184a.859.859,0,0,0-.857.868A.861.861,0,0,0-7291.279,3131.519Z" transform="translate(7292.137 -3129.783)" fill="#706f6f"/>
  </g>
  <g id="Grupo_1192" data-name="Grupo 1192" transform="translate(33.917 25.642)">
    <path id="Caminho_1614" data-name="Caminho 1614" d="M-7268.145,3169.584a.858.858,0,0,0,.855.868h2.184a.859.859,0,0,0,.854-.868.858.858,0,0,0-.854-.868h-2.184A.857.857,0,0,0-7268.145,3169.584Z" transform="translate(7268.145 -3168.716)" fill="#706f6f"/>
  </g>
</svg>
