<svg xmlns="http://www.w3.org/2000/svg" width="48.729" height="65.443" viewBox="0 0 48.729 65.443">
  <g id="Grupo_1227" data-name="Grupo 1227" transform="translate(5629.871 -3176.719)">
    <g id="Grupo_1217" data-name="Grupo 1217" transform="translate(-5629.872 3176.719)">
      <path id="Caminho_1633" data-name="Caminho 1633" d="M-5582.282,3202.906a2.536,2.536,0,0,1-.013-2.641l.5-.821a4.6,4.6,0,0,0-1.413-6.2l-.806-.548a2.6,2.6,0,0,1-1.154-2.4l.09-.943a4.623,4.623,0,0,0-3.963-4.984l-.958-.121a2.565,2.565,0,0,1-2.066-1.639l-.333-.912a4.569,4.569,0,0,0-5.743-2.735l-.912.274a2.528,2.528,0,0,1-2.582-.579l-.685-.666a4.626,4.626,0,0,0-6.381,0l-.682.666a2.533,2.533,0,0,1-2.585.579l-.912-.274a4.565,4.565,0,0,0-5.74,2.735l-.336.912a2.564,2.564,0,0,1-2.066,1.639l-.955.121a4.6,4.6,0,0,0-3.967,4.984l.078.943a2.561,2.561,0,0,1-1.142,2.4l-.8.548a4.589,4.589,0,0,0-1.412,6.2l.485.821a2.576,2.576,0,0,1,0,2.641l-.485.822a4.634,4.634,0,0,0,1.412,6.229l.8.516a2.562,2.562,0,0,1,1.142,2.4l-.078.942a4.6,4.6,0,0,0,3.967,4.984l.759.09-5.88,16.377a1.1,1.1,0,0,0,.183,1,1.055,1.055,0,0,0,.94.333l8.646-1.366,5.8,6.592a1.016,1.016,0,0,0,.759.336h.184a1.1,1.1,0,0,0,.759-.669l4.315-12.031,4.312,12.031a1.1,1.1,0,0,0,.759.669h.184a1.011,1.011,0,0,0,.759-.336l5.8-6.592,8.661,1.366a1.049,1.049,0,0,0,.927-.333,1.013,1.013,0,0,0,.165-1l-5.864-16.377.762-.09a4.623,4.623,0,0,0,3.963-4.984l-.09-.942a2.6,2.6,0,0,1,1.154-2.4l.79-.516a4.629,4.629,0,0,0,1.428-6.229Zm-28.862,36.279-5.027-5.712a1.03,1.03,0,0,0-.759-.336h-.168l-7.5,1.185,5.2-14.491a2.563,2.563,0,0,1,.455.728l.336.912a4.608,4.608,0,0,0,5.74,2.765l.912-.3a2.606,2.606,0,0,1,2.585.579l.682.669a4.54,4.54,0,0,0,2.05,1.123l.062.18Zm17.226-6.048a1.053,1.053,0,0,0-.927.336l-5.027,5.712-4.558-12.7.062-.18a4.525,4.525,0,0,0,2.05-1.123l.685-.669a2.6,2.6,0,0,1,2.582-.579l.912.3a4.612,4.612,0,0,0,5.743-2.765l.333-.912a2.258,2.258,0,0,1,.455-.728l5.2,14.491Zm9.89-29.2.485.822a2.589,2.589,0,0,1-.79,3.494l-.791.516a4.609,4.609,0,0,0-2.065,4.253l.093.974a2.607,2.607,0,0,1-2.218,2.794l-.958.121a4.577,4.577,0,0,0-3.689,2.949l-.336.88a2.572,2.572,0,0,1-3.22,1.55l-.912-.274a4.577,4.577,0,0,0-4.6,1.033l-.685.669a2.574,2.574,0,0,1-3.587,0l-.681-.669a4.692,4.692,0,0,0-3.192-1.275,4.522,4.522,0,0,0-1.412.243l-.912.274a2.573,2.573,0,0,1-3.22-1.55l-.333-.88a4.629,4.629,0,0,0-3.693-2.949l-.955-.121a2.6,2.6,0,0,1-2.218-2.794l.075-.974a4.6,4.6,0,0,0-2.051-4.253l-.79-.516a2.612,2.612,0,0,1-.806-3.494l.5-.822a4.636,4.636,0,0,0,0-4.738l-.5-.79a2.612,2.612,0,0,1,.806-3.494l.79-.517a4.566,4.566,0,0,0,2.051-4.253l-.075-.974a2.584,2.584,0,0,1,2.218-2.794l.955-.121a4.576,4.576,0,0,0,3.693-2.946l.333-.884a2.575,2.575,0,0,1,3.22-1.549l.912.273a4.517,4.517,0,0,0,4.6-1.033l.681-.669a2.635,2.635,0,0,1,3.587,0l.685.669a4.509,4.509,0,0,0,4.6,1.033l.912-.273a2.575,2.575,0,0,1,3.22,1.549l.336.884a4.525,4.525,0,0,0,3.689,2.946l.958.121a2.587,2.587,0,0,1,2.218,2.794l-.093.974a4.578,4.578,0,0,0,2.065,4.253l.791.517a2.589,2.589,0,0,1,.79,3.494l-.485.821A4.6,4.6,0,0,0-5584.027,3203.939Z" transform="translate(5629.872 -3176.719)" fill="#706f6f"/>
    </g>
    <g id="Grupo_1218" data-name="Grupo 1218" transform="translate(-5617.645 3186.09)">
      <path id="Caminho_1634" data-name="Caminho 1634" d="M-5584.476,3216.188a1.087,1.087,0,0,0,.716-.3,14.463,14.463,0,0,1,4.753-3.22.985.985,0,0,0,.547-1.307,1.031,1.031,0,0,0-1.337-.544,16.688,16.688,0,0,0-5.407,3.643,1.009,1.009,0,0,0,.016,1.428A1.072,1.072,0,0,0-5584.476,3216.188Z" transform="translate(5585.492 -3210.734)" fill="#706f6f"/>
    </g>
    <g id="Grupo_1219" data-name="Grupo 1219" transform="translate(-5622.216 3194.598)">
      <path id="Caminho_1635" data-name="Caminho 1635" d="M-5600.049,3248.615a14.813,14.813,0,0,1,1.093-5.619,1,1,0,0,0-.545-1.307,1.013,1.013,0,0,0-1.322.547,16.619,16.619,0,0,0-1.26,6.378v.031a.989.989,0,0,0,1.017.974A1.017,1.017,0,0,0-5600.049,3248.615Z" transform="translate(5602.083 -3241.613)" fill="#706f6f"/>
    </g>
    <g id="Grupo_1220" data-name="Grupo 1220" transform="translate(-5606.539 3184.862)">
      <path id="Caminho_1636" data-name="Caminho 1636" d="M-5544.148,3208.309a15.228,15.228,0,0,1,5.575,1.092.852.852,0,0,0,.379.093,1.027,1.027,0,0,0,.94-.637.982.982,0,0,0-.544-1.307,16.273,16.273,0,0,0-6.35-1.276h-.046a1.013,1.013,0,0,0-.986,1.033A1.028,1.028,0,0,0-5544.148,3208.309Z" transform="translate(5545.181 -3206.274)" fill="#706f6f"/>
    </g>
    <g id="Grupo_1221" data-name="Grupo 1221" transform="translate(-5600.509 3211.666)">
      <path id="Caminho_1637" data-name="Caminho 1637" d="M-5517.9,3303.862a15.107,15.107,0,0,1-4.77,3.189,1.02,1.02,0,0,0-.547,1.307,1.034,1.034,0,0,0,.942.638.906.906,0,0,0,.4-.09,16.537,16.537,0,0,0,5.407-3.615,1.008,1.008,0,0,0,0-1.428A1.008,1.008,0,0,0-5517.9,3303.862Z" transform="translate(5523.295 -3303.565)" fill="#706f6f"/>
    </g>
    <g id="Grupo_1222" data-name="Grupo 1222" transform="translate(-5595.466 3189.425)">
      <path id="Caminho_1638" data-name="Caminho 1638" d="M-5500.554,3229.94a.877.877,0,0,0,.4-.062,1.01,1.01,0,0,0,.532-1.337,16.569,16.569,0,0,0-3.63-5.407,1.027,1.027,0,0,0-1.444,0,1.046,1.046,0,0,0,.016,1.459,14.36,14.36,0,0,1,3.2,4.738A1.02,1.02,0,0,0-5500.554,3229.94Z" transform="translate(5504.989 -3222.837)" fill="#706f6f"/>
    </g>
    <g id="Grupo_1223" data-name="Grupo 1223" transform="translate(-5621.012 3206.597)">
      <path id="Caminho_1639" data-name="Caminho 1639" d="M-5595.76,3285.791a1.03,1.03,0,0,0-1.337-.548,1.007,1.007,0,0,0-.529,1.338,16.268,16.268,0,0,0,3.63,5.407.921.921,0,0,0,.712.3,1.086,1.086,0,0,0,.716-.3,1.008,1.008,0,0,0,0-1.428A14.221,14.221,0,0,1-5595.76,3285.791Z" transform="translate(5597.713 -3285.167)" fill="#706f6f"/>
    </g>
    <g id="Grupo_1224" data-name="Grupo 1224" transform="translate(-5612.511 3215.075)">
      <path id="Caminho_1640" data-name="Caminho 1640" d="M-5559.853,3317.138a14.165,14.165,0,0,1-5.606-1.123,1.019,1.019,0,0,0-1.322.547,1.027,1.027,0,0,0,.548,1.335,16.967,16.967,0,0,0,6.381,1.248h.015a.984.984,0,0,0,1-1A1,1,0,0,0-5559.853,3317.138Z" transform="translate(5566.857 -3315.939)" fill="#706f6f"/>
    </g>
    <g id="Grupo_1225" data-name="Grupo 1225" transform="translate(-5592.018 3200.539)">
      <path id="Caminho_1641" data-name="Caminho 1641" d="M-5490.271,3263.176a1.048,1.048,0,0,0-1.021,1.061,14.3,14.3,0,0,1-1.107,5.591,1.031,1.031,0,0,0,.548,1.338.914.914,0,0,0,.4.09,1,1,0,0,0,.927-.638,16.5,16.5,0,0,0,1.276-6.381v-.09A.989.989,0,0,0-5490.271,3263.176Z" transform="translate(5492.475 -3263.176)" fill="#706f6f"/>
    </g>
    <g id="Grupo_1226" data-name="Grupo 1226" transform="translate(-5615.534 3191.513)">
      <path id="Caminho_1642" data-name="Caminho 1642" d="M-5560.71,3246.853l-.653-3.737a.432.432,0,0,1,.121-.364l2.72-2.645a2.472,2.472,0,0,0,.622-2.52,2.4,2.4,0,0,0-1.976-1.64l-3.752-.548a.469.469,0,0,1-.317-.243l-1.671-3.4h0a2.46,2.46,0,0,0-2.187-1.338,2.419,2.419,0,0,0-2.187,1.338l-1.674,3.4a.508.508,0,0,1-.317.243l-3.752.548a2.4,2.4,0,0,0-1.976,1.64,2.447,2.447,0,0,0,.623,2.52l2.719,2.645a.421.421,0,0,1,.122.364l-.653,3.737a2.42,2.42,0,0,0,.974,2.371,2.387,2.387,0,0,0,2.567.184l3.373-1.764a.4.4,0,0,1,.364,0l3.373,1.764a2.183,2.183,0,0,0,1.139.3,2.467,2.467,0,0,0,1.428-.486A2.438,2.438,0,0,0-5560.71,3246.853Zm-2.645-3.4.638,3.737a.319.319,0,0,1-.165.4.392.392,0,0,1-.426.059l-3.357-1.792a2.533,2.533,0,0,0-1.139-.274,2.554,2.554,0,0,0-1.142.274l-3.357,1.792a.385.385,0,0,1-.423-.059.317.317,0,0,1-.167-.4l.638-3.737a2.442,2.442,0,0,0-.7-2.159l-2.719-2.641a.4.4,0,0,1-.106-.426.385.385,0,0,1,.336-.274l3.752-.548a2.5,2.5,0,0,0,1.835-1.334l1.686-3.4a.387.387,0,0,1,.367-.243.384.384,0,0,1,.364.243l1.686,3.4a2.48,2.48,0,0,0,1.839,1.334l3.752.548a.383.383,0,0,1,.333.274.423.423,0,0,1-.105.426l-2.719,2.641A2.442,2.442,0,0,0-5563.354,3243.452Z" transform="translate(5577.831 -3230.417)" fill="#706f6f"/>
    </g>
  </g>
</svg>
