<svg id="Grupo_1213" data-name="Grupo 1213" xmlns="http://www.w3.org/2000/svg" width="54.871" height="56.615" viewBox="0 0 54.871 56.615">
  <g id="Grupo_1200" data-name="Grupo 1200" transform="translate(0)">
    <path id="Caminho_1620" data-name="Caminho 1620" d="M-6060.255,3141.611a.854.854,0,0,0-.853.865v1.272a2.411,2.411,0,0,1-2.2,2.573h-31.616a2.409,2.409,0,0,1-2.2-2.573v-42a2.406,2.406,0,0,1,2.2-2.57h6.378v.84a2.563,2.563,0,0,0,2.57,2.57h13.723a2.57,2.57,0,0,0,2.569-2.57v-.84h6.376a2.409,2.409,0,0,1,2.2,2.57v1.272a.854.854,0,0,0,.853.866.854.854,0,0,0,.853-.866v-1.272a4.13,4.13,0,0,0-3.908-4.3h-6.376v-.865a2.565,2.565,0,0,0-2.569-2.547h-3.54a3.435,3.435,0,0,0-3.321-2.6,3.429,3.429,0,0,0-3.324,2.6h-3.537a2.557,2.557,0,0,0-2.57,2.547v.865h-6.378a4.121,4.121,0,0,0-3.908,4.3v42a4.123,4.123,0,0,0,3.908,4.3h31.616a4.132,4.132,0,0,0,3.908-4.3v-1.272A.854.854,0,0,0-6060.255,3141.611Zm-26.589-45.031a.862.862,0,0,1,.865-.842h4.288a.856.856,0,0,0,.854-.865,1.709,1.709,0,0,1,1.719-1.705,1.717,1.717,0,0,1,1.718,1.705.854.854,0,0,0,.853.865h4.291a.852.852,0,0,1,.852.842v3.436a.857.857,0,0,1-.852.865h-13.723a.866.866,0,0,1-.865-.865Z" transform="translate(6098.835 -3091.437)" fill="#706f6f"/>
  </g>
  <g id="Grupo_1201" data-name="Grupo 1201" transform="translate(12.856 23.369)">
    <path id="Caminho_1621" data-name="Caminho 1621" d="M-6059.1,3163.852h6.353a.86.86,0,0,0,.865-.866.858.858,0,0,0-.865-.865h-6.353a.854.854,0,0,0-.853.865A.856.856,0,0,0-6059.1,3163.852Z" transform="translate(6059.949 -3162.121)" fill="#706f6f"/>
  </g>
  <g id="Grupo_1202" data-name="Grupo 1202" transform="translate(12.856 31.083)">
    <path id="Caminho_1622" data-name="Caminho 1622" d="M-6059.1,3187.182h5.5a.857.857,0,0,0,.853-.866.856.856,0,0,0-.853-.865h-5.5a.854.854,0,0,0-.853.865A.856.856,0,0,0-6059.1,3187.182Z" transform="translate(6059.949 -3185.451)" fill="#706f6f"/>
  </g>
  <g id="Grupo_1203" data-name="Grupo 1203" transform="translate(12.856 15.656)">
    <path id="Caminho_1623" data-name="Caminho 1623" d="M-6046.227,3139.656a.859.859,0,0,0-.866-.865h-12a.854.854,0,0,0-.853.865.871.871,0,0,0,.853.865h12A.876.876,0,0,0-6046.227,3139.656Z" transform="translate(6059.949 -3138.791)" fill="#706f6f"/>
  </g>
  <g id="Grupo_1204" data-name="Grupo 1204" transform="translate(12.856 38.796)">
    <path id="Caminho_1624" data-name="Caminho 1624" d="M-6051.878,3208.78h-7.218a.871.871,0,0,0-.853.865.856.856,0,0,0,.853.866h7.218a.857.857,0,0,0,.853-.866A.873.873,0,0,0-6051.878,3208.78Z" transform="translate(6059.949 -3208.78)" fill="#706f6f"/>
  </g>
  <g id="Grupo_1205" data-name="Grupo 1205" transform="translate(12.856 46.533)">
    <path id="Caminho_1625" data-name="Caminho 1625" d="M-6059.949,3233.023a.856.856,0,0,0,.853.865h13.224a.858.858,0,0,0,.855-.865.853.853,0,0,0-.855-.842H-6059.1A.851.851,0,0,0-6059.949,3233.023Z" transform="translate(6059.949 -3232.181)" fill="#706f6f"/>
  </g>
  <g id="Grupo_1206" data-name="Grupo 1206" transform="translate(22.288 15.02)">
    <path id="Caminho_1626" data-name="Caminho 1626" d="M-6000.468,3150.357h-1.361a10.478,10.478,0,0,0-.4-1.423l1.183-.688a1.63,1.63,0,0,0,.6-2.215l-1.157-2.01a1.644,1.644,0,0,0-2.229-.613l-1.184.688c-.331-.38-.688-.711-1.056-1.069l.673-1.17a1.608,1.608,0,0,0-.584-2.216l-2.012-1.171a1.659,1.659,0,0,0-2.226.584l-.675,1.2c-.482-.151-.967-.279-1.452-.407V3138.5a1.631,1.631,0,0,0-1.629-1.629h-2.314a1.631,1.631,0,0,0-1.629,1.629v1.348c-.484.128-.967.255-1.452.407l-.675-1.2a1.658,1.658,0,0,0-2.227-.584l-2.012,1.171a1.625,1.625,0,0,0-.6,2.216l.688,1.17c-.37.357-.727.688-1.058,1.069l-1.184-.688a1.605,1.605,0,0,0-1.233-.151,1.63,1.63,0,0,0-.994.764l-1.16,1.984a1.659,1.659,0,0,0-.164,1.248,1.688,1.688,0,0,0,.764.993l1.17.688a12.665,12.665,0,0,0-.38,1.423h-1.364a1.654,1.654,0,0,0-1.629,1.655v2.317a1.631,1.631,0,0,0,1.629,1.629h1.364a14.826,14.826,0,0,0,.38,1.45l-1.17.662a1.687,1.687,0,0,0-.764.993,1.644,1.644,0,0,0,.164,1.248l1.16,2.01a1.591,1.591,0,0,0,.994.738,1.5,1.5,0,0,0,1.233-.151l1.184-.688a11.728,11.728,0,0,0,1.058,1.069l-.688,1.173a1.654,1.654,0,0,0,.6,2.239l2.012,1.144a1.634,1.634,0,0,0,2.227-.584l.675-1.2a10.442,10.442,0,0,0,1.452.407v1.35a1.617,1.617,0,0,0,1.629,1.629h2.314a1.617,1.617,0,0,0,1.629-1.629v-1.35a10.354,10.354,0,0,0,1.452-.407l.675,1.2a1.635,1.635,0,0,0,2.226.584l2.012-1.144a1.636,1.636,0,0,0,.584-2.239l-.673-1.173a12.027,12.027,0,0,0,1.056-1.069l1.184.688a1.636,1.636,0,0,0,2.229-.586l1.157-2.01a1.655,1.655,0,0,0-.6-2.242l-1.183-.662a12.028,12.028,0,0,0,.4-1.45h1.361a1.631,1.631,0,0,0,1.629-1.629v-2.317A1.654,1.654,0,0,0-6000.468,3150.357Zm-.089,3.871h-1.986a.862.862,0,0,0-.852.738,11.038,11.038,0,0,1-.675,2.495.869.869,0,0,0,.383,1.069l1.718.993-1.082,1.859-1.718-.993a.861.861,0,0,0-1.095.2,12.008,12.008,0,0,1-1.846,1.832.878.878,0,0,0-.2,1.095l.993,1.731-1.846,1.069-.993-1.731a.876.876,0,0,0-1.058-.355,12.475,12.475,0,0,1-2.519.662.88.88,0,0,0-.727.839v2.01h-2.137v-2.01a.88.88,0,0,0-.738-.839,12.617,12.617,0,0,1-2.508-.662.852.852,0,0,0-1.045.355l-1,1.731-1.859-1.069,1.006-1.731a.876.876,0,0,0-.205-1.095,12.033,12.033,0,0,1-1.846-1.832.857.857,0,0,0-1.092-.2l-1.734.993-1.068-1.859,1.718-.993a.88.88,0,0,0,.383-1.069,11.752,11.752,0,0,1-.687-2.495.839.839,0,0,0-.84-.738h-1.986v-2.14h1.986a.839.839,0,0,0,.84-.738,11.8,11.8,0,0,1,.688-2.495.88.88,0,0,0-.383-1.069l-1.718-.993,1.068-1.859,1.734.993a.829.829,0,0,0,1.092-.2,12.046,12.046,0,0,1,1.846-1.833.869.869,0,0,0,.205-1.095l-1.006-1.731,1.859-1.069,1,1.731a.824.824,0,0,0,1.045.357,12.276,12.276,0,0,1,2.508-.662.883.883,0,0,0,.738-.842V3138.6h2.137v1.984a.883.883,0,0,0,.727.842,12.144,12.144,0,0,1,2.519.662.847.847,0,0,0,1.058-.357l.993-1.731,1.846,1.069-.993,1.731a.871.871,0,0,0,.2,1.095,12.02,12.02,0,0,1,1.846,1.833.832.832,0,0,0,1.095.2l1.718-.993,1.082,1.859-1.718.993a.869.869,0,0,0-.383,1.069,11.077,11.077,0,0,1,.675,2.495.862.862,0,0,0,.852.738h1.986Z" transform="translate(6031.423 -3136.867)" fill="#706f6f"/>
  </g>
  <g id="Grupo_1207" data-name="Grupo 1207" transform="translate(4.885 21.606)">
    <path id="Caminho_1627" data-name="Caminho 1627" d="M-6078.43,3156.947a.841.841,0,0,0-1.186.2l-2.125,3.029-.777-1.019a.843.843,0,0,0-1.209-.151.863.863,0,0,0-.165,1.2l1.489,1.958a.865.865,0,0,0,.675.331h.013a.94.94,0,0,0,.7-.381l2.8-3.973A.86.86,0,0,0-6078.43,3156.947Z" transform="translate(6084.06 -3156.786)" fill="#706f6f"/>
  </g>
  <g id="Grupo_1208" data-name="Grupo 1208" transform="translate(4.885 29.101)">
    <path id="Caminho_1628" data-name="Caminho 1628" d="M-6078.43,3179.606a.865.865,0,0,0-1.186.2l-2.125,3.029-.777-1.019a.889.889,0,0,0-1.209-.151.87.87,0,0,0-.165,1.2l1.489,1.96a.873.873,0,0,0,.675.332h.013a.849.849,0,0,0,.7-.357l2.8-4A.863.863,0,0,0-6078.43,3179.606Z" transform="translate(6084.06 -3179.457)" fill="#706f6f"/>
  </g>
  <g id="Grupo_1209" data-name="Grupo 1209" transform="translate(4.885 36.814)">
    <path id="Caminho_1629" data-name="Caminho 1629" d="M-6078.43,3202.936a.865.865,0,0,0-1.186.2l-2.125,3.055-.777-1.02a.868.868,0,0,0-1.209-.177.867.867,0,0,0-.165,1.2l1.489,1.96a.8.8,0,0,0,.675.329h.013a.846.846,0,0,0,.7-.355l2.8-4A.863.863,0,0,0-6078.43,3202.936Z" transform="translate(6084.06 -3202.786)" fill="#706f6f"/>
  </g>
  <g id="Grupo_1210" data-name="Grupo 1210" transform="translate(4.885 44.529)">
    <path id="Caminho_1630" data-name="Caminho 1630" d="M-6079.615,3226.5l-2.125,3.032-.777-1.02a.869.869,0,0,0-1.209-.177.893.893,0,0,0-.165,1.22l1.489,1.937a.894.894,0,0,0,.675.354h.013a.946.946,0,0,0,.7-.38l2.8-4a.863.863,0,0,0-.217-1.2A.849.849,0,0,0-6079.615,3226.5Z" transform="translate(6084.06 -3226.121)" fill="#706f6f"/>
  </g>
  <g id="Grupo_1211" data-name="Grupo 1211" transform="translate(30.434 23.166)">
    <path id="Caminho_1631" data-name="Caminho 1631" d="M-5998.638,3161.506a8.163,8.163,0,0,0-8.146,8.146,8.148,8.148,0,0,0,8.146,8.146,8.146,8.146,0,0,0,8.146-8.146A8.161,8.161,0,0,0-5998.638,3161.506Zm0,14.584a6.429,6.429,0,0,1-6.429-6.439,6.424,6.424,0,0,1,6.429-6.415,6.423,6.423,0,0,1,6.428,6.415A6.429,6.429,0,0,1-5998.638,3176.091Z" transform="translate(6006.784 -3161.506)" fill="#706f6f"/>
  </g>
  <g id="Grupo_1212" data-name="Grupo 1212" transform="translate(37.727 27.034)">
    <path id="Caminho_1632" data-name="Caminho 1632" d="M-5983.871,3173.206a.834.834,0,0,0-.853.84v6.874a.854.854,0,0,0,.853.866.854.854,0,0,0,.852-.866v-6.874A.833.833,0,0,0-5983.871,3173.206Z" transform="translate(5984.724 -3173.206)" fill="#706f6f"/>
  </g>
</svg>
