<svg id="Grupo_1240" data-name="Grupo 1240" xmlns="http://www.w3.org/2000/svg" width="57.74" height="62.431" viewBox="0 0 57.74 62.431">
  <g id="Grupo_1229" data-name="Grupo 1229" transform="translate(12.286)">
    <path id="Caminho_1644" data-name="Caminho 1644" d="M-5690.513,3718.14a.934.934,0,0,0-.59.871.942.942,0,0,0,.94.955h.492a2.982,2.982,0,0,1,0,2.752h-.492a.938.938,0,0,0-.94.926.942.942,0,0,0,.94.955h.478a2.958,2.958,0,0,1,.293,1.938.976.976,0,0,0,.745,1.125.99.99,0,0,0,1.125-.76,5.131,5.131,0,0,0-.127-2.3h17.566a4.994,4.994,0,0,0,0,2.727h-11.808a.973.973,0,0,0-.955.954.956.956,0,0,0,.955.955h8.719a2.189,2.189,0,0,1-.184.9.946.946,0,0,0,.521,1.237,1.506,1.506,0,0,0,.351.057.935.935,0,0,0,.885-.564,4.692,4.692,0,0,0,.323-1.628h3.707a.944.944,0,0,0,.94-.955.96.96,0,0,0-.94-.954h-.492a2.929,2.929,0,0,1,0-2.727h.492a.942.942,0,0,0,.94-.955.937.937,0,0,0-.94-.926h-.492a2.982,2.982,0,0,1,0-2.752h.492a.942.942,0,0,0,.94-.955.922.922,0,0,0-.63-.871c.575-1.628,1.32-3.284,2.048-4.915,1.587-3.537,3.229-7.19,3.229-10.727a16.618,16.618,0,0,0-16.893-16.346,16.615,16.615,0,0,0-16.877,16.346c0,3.595,1.67,7.33,3.286,10.954C-5691.778,3715-5691.076,3716.6-5690.513,3718.14Zm2.879,4.578a5.144,5.144,0,0,0,0-2.752h17.537a4.945,4.945,0,0,0,.014,2.752Zm8.759-34.682a14.744,14.744,0,0,1,15,14.463c0,3.146-1.487,6.459-3.06,9.941a57.54,57.54,0,0,0-2.29,5.645h-9.17l4.7-9.746a.992.992,0,0,0-.141-1.067,1.051,1.051,0,0,0-1.024-.253l-6.487,2.246,4.369-9.042a.954.954,0,0,0-.437-1.265.944.944,0,0,0-1.263.452l-5.363,11.092a.935.935,0,0,0,.139,1.038.952.952,0,0,0,1.026.282l6.488-2.246-4.115,8.509h-8.032c-.619-1.8-1.417-3.623-2.206-5.421-1.53-3.425-3.114-6.994-3.114-10.166A14.747,14.747,0,0,1-5678.875,3688.036Z" transform="translate(5695.752 -3686.152)" fill="#706f6f"/>
  </g>
  <g id="Grupo_1230" data-name="Grupo 1230" transform="translate(5.846 11.36)">
    <path id="Caminho_1645" data-name="Caminho 1645" d="M-5712.9,3719.978a.977.977,0,0,0,.772-.394h0a.969.969,0,0,0-.213-1.32.923.923,0,0,0-1.318.224.889.889,0,0,0,.213,1.291A.818.818,0,0,0-5712.9,3719.978Z" transform="translate(5713.851 -3718.081)" fill="#706f6f"/>
  </g>
  <g id="Grupo_1231" data-name="Grupo 1231" transform="translate(0.546 27.608)">
    <path id="Caminho_1646" data-name="Caminho 1646" d="M-5727.806,3765.626a.954.954,0,0,0,.955-.955.949.949,0,0,0-.955-.926.938.938,0,0,0-.941.926A.944.944,0,0,0-5727.806,3765.626Z" transform="translate(5728.747 -3763.745)" fill="#706f6f"/>
  </g>
  <g id="Grupo_1232" data-name="Grupo 1232" transform="translate(1.874 36.124)">
    <path id="Caminho_1647" data-name="Caminho 1647" d="M-5724.346,3787.728a.956.956,0,0,0-.618,1.208.935.935,0,0,0,.9.647,1.072,1.072,0,0,0,.3-.029.969.969,0,0,0,.6-1.208A.94.94,0,0,0-5724.346,3787.728Z" transform="translate(5725.014 -3787.68)" fill="#706f6f"/>
  </g>
  <g id="Grupo_1233" data-name="Grupo 1233" transform="translate(1.909 19.049)">
    <path id="Caminho_1648" data-name="Caminho 1648" d="M-5724.271,3741.536a1.185,1.185,0,0,0,.295.058.991.991,0,0,0,.9-.647.951.951,0,0,0-.6-1.208.945.945,0,0,0-1.194.618A.939.939,0,0,0-5724.271,3741.536Z" transform="translate(5724.918 -3739.69)" fill="#706f6f"/>
  </g>
  <g id="Grupo_1234" data-name="Grupo 1234" transform="translate(54.504 19.106)">
    <path id="Caminho_1649" data-name="Caminho 1649" d="M-5576.148,3741.752a1.23,1.23,0,0,0,.3-.054.957.957,0,0,0,.6-1.182.934.934,0,0,0-1.193-.615.926.926,0,0,0-.6,1.179A.938.938,0,0,0-5576.148,3741.752Z" transform="translate(5577.095 -3739.851)" fill="#706f6f"/>
  </g>
  <g id="Grupo_1235" data-name="Grupo 1235" transform="translate(50.576 11.408)">
    <path id="Caminho_1650" data-name="Caminho 1650" d="M-5587.192,3720.089a1.009,1.009,0,0,0,.561-.167.955.955,0,0,0,.209-1.32.986.986,0,0,0-1.332-.224.942.942,0,0,0-.2,1.32A.93.93,0,0,0-5587.192,3720.089Z" transform="translate(5588.136 -3718.213)" fill="#706f6f"/>
  </g>
  <g id="Grupo_1236" data-name="Grupo 1236" transform="translate(54.474 36.292)">
    <path id="Caminho_1651" data-name="Caminho 1651" d="M-5576.524,3790a.954.954,0,0,0,.293.058.964.964,0,0,0,.9-.647.966.966,0,0,0-.619-1.208.924.924,0,0,0-1.179.619A.927.927,0,0,0-5576.524,3790Z" transform="translate(5577.179 -3788.153)" fill="#706f6f"/>
  </g>
  <g id="Grupo_1237" data-name="Grupo 1237" transform="translate(55.845 27.691)">
    <path id="Caminho_1652" data-name="Caminho 1652" d="M-5572.372,3763.979a.924.924,0,0,0-.94.9v.055a.147.147,0,0,0-.015.058.916.916,0,0,0,.955.9.921.921,0,0,0,.941-.9v-.112A.933.933,0,0,0-5572.372,3763.979Z" transform="translate(5573.326 -3763.979)" fill="#706f6f"/>
  </g>
  <g id="Grupo_1238" data-name="Grupo 1238" transform="translate(0 42.407)">
    <path id="Caminho_1653" data-name="Caminho 1653" d="M-5674.1,3810.7a2.254,2.254,0,0,0-1.953-.452,3.825,3.825,0,0,0-.745-2.021,3.42,3.42,0,0,0-2.738-1.208,14.3,14.3,0,0,0-4.492,1.294,52.712,52.712,0,0,1-6.838,2.189,4.04,4.04,0,0,0-2.865-1.067c-7.865.086-9.185-.7-10.7-1.6-1.769-1.041-3.776-2.249-13.747-2.5a4.449,4.449,0,0,0-2.767.954,1.881,1.881,0,0,0-1.627-.954h-5.829a1.888,1.888,0,0,0-1.88,1.912v14.293a1.882,1.882,0,0,0,1.88,1.884h5.829a1.9,1.9,0,0,0,1.613-.9,4.854,4.854,0,0,0,1.544.785,63.413,63.413,0,0,0,15.825,2.051c8.777,0,19.239-1.993,28.422-9.211.209-.141,2.05-1.432,2.148-3.172A2.747,2.747,0,0,0-5674.1,3810.7Zm-9.254-.647a13.872,13.872,0,0,1,3.848-1.124,1.439,1.439,0,0,1,1.236.477,2.033,2.033,0,0,1,.366,1.349c-.564.224-1.168.477-1.855.759a64.6,64.6,0,0,1-10.011,3.425,3.266,3.266,0,0,0,.126-.673,5.757,5.757,0,0,0-.2-2.079A49.315,49.315,0,0,0-5683.354,3810.057Zm-39.217,11.486h-5.829V3807.25h5.829Zm46.28-6.908c-15.572,12.216-35.006,8.846-42.645,6.824a2.324,2.324,0,0,1-1.754-2.275l.055-9.605a2.249,2.249,0,0,1,.715-1.656,2.259,2.259,0,0,1,1.631-.673h.069c9.479.225,11.248,1.292,12.82,2.218,1.769,1.038,3.3,1.967,11.725,1.855a2.31,2.31,0,0,1,1.559.59,2.738,2.738,0,0,1,.589,2.217c-.012.253-.069.984-1.53,1.545l-.029.029h-.026c-1.587.618-5.113,1.125-12.82.083a.95.95,0,0,0-1.067.814.966.966,0,0,0,.814,1.07,63,63,0,0,0,7.833.615,17.617,17.617,0,0,0,5.829-.785,62.875,62.875,0,0,0,13.494-4.242c1.587-.644,3.37-1.4,3.692-1.121.438.365.423.644.423.73C-5674.943,3813.482-5675.814,3814.325-5676.292,3814.635Z" transform="translate(5730.281 -3805.338)" fill="#706f6f"/>
  </g>
  <g id="Grupo_1239" data-name="Grupo 1239" transform="translate(3.834 54.652)">
    <path id="Caminho_1654" data-name="Caminho 1654" d="M-5718.553,3839.754a.956.956,0,0,0-.955.955.955.955,0,0,0,.955.955.959.959,0,0,0,.969-.955A.96.96,0,0,0-5718.553,3839.754Z" transform="translate(5719.508 -3839.754)" fill="#706f6f"/>
  </g>
</svg>
