<svg xmlns="http://www.w3.org/2000/svg" width="279" height="279" viewBox="0 0 279 279">
  <g id="Grupo_714" data-name="Grupo 714" transform="translate(-183.01 -1152.4)" opacity="0.75">
    <path id="Caminho_1097" data-name="Caminho 1097" d="M321.1,1287.957a2.917,2.917,0,0,1-1.59.546,1.987,1.987,0,0,1-1.116-.309,2.527,2.527,0,0,1-1.471-2.318v-15.147h-15.29a2.592,2.592,0,0,1-2.586-2.627v-18.225H262.662v54.3h60.172a2.812,2.812,0,0,1,1.551.467l19.308,14.673v-12.592a2.535,2.535,0,0,1,2.587-2.548h15.3v-33.451H343.852Zm-44.842-23.485h9.112a2.591,2.591,0,1,1,0,5.181H276.26a2.591,2.591,0,1,1,0-5.181Zm25.375,24.339H276.26a2.626,2.626,0,1,1,0-5.252h25.375a2.626,2.626,0,0,1,0,5.252Zm49.359-2.626a2.6,2.6,0,0,1-2.586,2.626h-6.6a2.626,2.626,0,0,1,0-5.252h6.6A2.6,2.6,0,0,1,350.994,1286.185Z" fill="#fff" opacity="0.6" style="isolation: isolate"/>
    <path id="Caminho_1098" data-name="Caminho 1098" d="M289.968,1364.74a3.927,3.927,0,0,0-3.9,3.94,3.861,3.861,0,0,0,3.9,3.868h65.084a3.853,3.853,0,0,0,3.861-3.868,3.919,3.919,0,0,0-3.861-3.94H289.968Z" fill="#fff" opacity="0.6" style="isolation: isolate"/>
    <path id="Caminho_1099" data-name="Caminho 1099" d="M409.01,1152.4h-173a53,53,0,0,0-53,53v173a53,53,0,0,0,53,53h173a53,53,0,0,0,53-53v-173A53,53,0,0,0,409.01,1152.4Zm-.62,181.135a13.058,13.058,0,0,1-13.02,13.052H342.539l3.7,12.98h8.812a9.117,9.117,0,0,1,0,18.233H289.968a9.117,9.117,0,0,1,0-18.233h8.764l3.71-12.98h-52.8a13.051,13.051,0,0,1-13.012-13.052V1219.052A13.05,13.05,0,0,1,249.642,1206h36.386a2.626,2.626,0,0,1,0,5.252H249.642a7.814,7.814,0,0,0-7.839,7.8v102.9h81.031a2.587,2.587,0,1,1,0,5.173H241.8v6.415a7.813,7.813,0,0,0,7.839,7.8H395.37a7.807,7.807,0,0,0,7.808-7.8v-6.415H364.165a2.586,2.586,0,1,1,0-5.173h39.013v-38.238a2.607,2.607,0,0,1,5.212,0Zm0-65.433a2.6,2.6,0,0,1-2.626,2.627H366.791v36a2.624,2.624,0,0,1-2.626,2.626h-15.3v15.14a2.489,2.489,0,0,1-1.424,2.317,2.056,2.056,0,0,1-1.163.309,2.908,2.908,0,0,1-1.582-.538l-22.75-17.228H260.036a2.592,2.592,0,0,1-2.587-2.626v-59.477a2.592,2.592,0,0,1,2.587-2.626h39.013v-36a2.591,2.591,0,0,1,2.586-2.626H405.764a2.6,2.6,0,0,1,2.626,2.626Z" fill="#fff" style="isolation: isolate"/>
    <path id="Caminho_1100" data-name="Caminho 1100" d="M304.222,1265.555h15.29a2.589,2.589,0,0,1,2.626,2.547v12.593l19.277-14.673a2.838,2.838,0,0,1,1.582-.467h60.181v-54.3H304.222Zm13.6-39.7H389.58a2.587,2.587,0,1,1,0,5.174H317.819a2.587,2.587,0,1,1,0-5.174Zm0,18.771h55a2.626,2.626,0,1,1,0,5.252h-55a2.626,2.626,0,0,1,0-5.252Z" fill="#fff" opacity="0.6" style="isolation: isolate"/>
    <path id="Caminho_1101" data-name="Caminho 1101" d="M337.128,1346.587H307.853l-3.71,12.98h36.7Z" fill="#fff" opacity="0.6" style="isolation: isolate"/>
  </g>
</svg>
