<svg xmlns="http://www.w3.org/2000/svg" width="279" height="279" viewBox="0 0 279 279">
  <g id="Grupo_715" data-name="Grupo 715" transform="translate(-1021.01 -1152.4)" opacity="0.75">
    <path id="Caminho_1102" data-name="Caminho 1102" d="M1228.293,1334.255H1092.727l-15.106,19.788H1243.4Z" fill="#fff" opacity="0.6" style="isolation: isolate"/>
    <path id="Caminho_1103" data-name="Caminho 1103" d="M1080.286,1273.1h65.349a2.778,2.778,0,0,1,1.6.495l23.109,16.418v-14.207a2.772,2.772,0,0,1,2.791-2.706h12.685a5.536,5.536,0,0,0,5.539-5.5v-48.848a5.553,5.553,0,0,0-5.539-5.582H1080.286a5.554,5.554,0,0,0-5.54,5.582V1267.6A5.537,5.537,0,0,0,1080.286,1273.1Zm55.539-43.671h35.953a2.845,2.845,0,0,1,2.791,2.791,2.8,2.8,0,0,1-2.791,2.791h-35.953a2.767,2.767,0,0,1-2.757-2.791A2.816,2.816,0,0,1,1135.825,1229.429Zm-41.459,0h24.874a2.809,2.809,0,0,1,2.749,2.791,2.76,2.76,0,0,1-2.749,2.791h-24.874a2.768,2.768,0,0,1-2.791-2.791A2.817,2.817,0,0,1,1094.366,1229.429Zm0,21.831H1152.4a2.768,2.768,0,0,1,2.791,2.791,2.816,2.816,0,0,1-2.791,2.791h-58.036a2.816,2.816,0,0,1-2.791-2.791A2.768,2.768,0,0,1,1094.366,1251.26Z" fill="#fff" opacity="0.6" style="isolation: isolate"/>
    <path id="Caminho_1104" data-name="Caminho 1104" d="M1175.881,1278.6v16.829a2.63,2.63,0,0,1-1.48,2.379,2.271,2.271,0,0,1-1.269.328,2.81,2.81,0,0,1-1.6-.487l-26.807-19.049H1110.7v33.986h99.58v-66.408H1196.9V1267.6a11.044,11.044,0,0,1-11.079,10.995Z" fill="#fff" opacity="0.6" style="isolation: isolate"/>
    <path id="Caminho_1105" data-name="Caminho 1105" d="M1074.746,1365.122a5.531,5.531,0,0,0,5.54,5.5h160.406a5.5,5.5,0,0,0,5.54-5.5v-5.582H1074.746Z" fill="#fff" opacity="0.6" style="isolation: isolate"/>
    <path id="Caminho_1106" data-name="Caminho 1106" d="M1247.01,1152.4h-173a53,53,0,0,0-53,53v173a53,53,0,0,0,53,53h173a53,53,0,0,0,53-53v-173A53,53,0,0,0,1247.01,1152.4Zm-177.762,66.354a11.048,11.048,0,0,1,11.038-11.08h105.531a11.062,11.062,0,0,1,11.079,11.08v21.923h16.174a2.753,2.753,0,0,1,2.748,2.791v71.906a2.735,2.735,0,0,1-2.748,2.707H1107.95a2.735,2.735,0,0,1-2.748-2.707V1278.6h-24.916a11.03,11.03,0,0,1-11.038-10.995Zm182.524,146.368a11.041,11.041,0,0,1-11.08,11H1080.286a11.032,11.032,0,0,1-11.038-11v-8.456a2.748,2.748,0,0,1,.2-.984s.042-.084.084-.084a2.948,2.948,0,0,1,.286-.488l18.754-24.546v-40.879a2.8,2.8,0,0,1,2.791-2.791,2.761,2.761,0,0,1,2.757,2.791v38.988h132.742v-92.519c0-3.446-2.463-6.237-5.548-6.237h-13.374a2.749,2.749,0,1,1,0-5.5h13.374c6.12,0,11.088,5.254,11.088,11.735v94.41l18.8,24.546a2.469,2.469,0,0,1,.286.488l.084.084a2.7,2.7,0,0,1,.168.984l.034.084Z" fill="#fff" style="isolation: isolate"/>
  </g>
</svg>
