<svg xmlns="http://www.w3.org/2000/svg" width="279" height="279" viewBox="0 0 279 279">
  <g id="Grupo_713" data-name="Grupo 713" transform="translate(-602.01 -1152.4)" opacity="0.75">
    <path id="Caminho_1095" data-name="Caminho 1095" d="M691.284,1239.5h13.328a2.615,2.615,0,0,1,2.612,2.643v13.288a1.791,1.791,0,0,0,1.822,1.791h6.648a1.791,1.791,0,0,0,1.824-1.791v-13.288a2.646,2.646,0,0,1,2.643-2.643h13.3a1.85,1.85,0,0,0,1.831-1.792v-6.687a1.8,1.8,0,0,0-1.831-1.792h-13.3a2.646,2.646,0,0,1-2.643-2.643v-13.3a1.857,1.857,0,0,0-1.824-1.863h-6.648a1.857,1.857,0,0,0-1.822,1.863v13.3a2.615,2.615,0,0,1-2.612,2.643H691.284a1.784,1.784,0,0,0-1.791,1.792v6.687A1.837,1.837,0,0,0,691.284,1239.5Z" fill="#fff" opacity="0.6" style="isolation: isolate"/>
    <path id="Caminho_1096" data-name="Caminho 1096" d="M828.01,1152.4h-173a53,53,0,0,0-53,53v173a53,53,0,0,0,53,53h173a53,53,0,0,0,53-53v-173A53,53,0,0,0,828.01,1152.4Zm-143.764,78.622a7.069,7.069,0,0,1,7.038-7.078h10.725v-10.653a7.067,7.067,0,0,1,7.037-7.07h6.648a7.1,7.1,0,0,1,7.078,7.07v10.653h10.685a7.1,7.1,0,0,1,7.078,7.078v6.687a7.1,7.1,0,0,1-7.078,7.078H722.772v10.645a7.1,7.1,0,0,1-7.078,7.078h-6.648a7.069,7.069,0,0,1-7.037-7.078v-10.645H691.284a7.069,7.069,0,0,1-7.038-7.078Zm112.386,44.553a2.608,2.608,0,0,1,2.6,2.643,2.659,2.659,0,0,1-2.6,2.643H758.3a2.667,2.667,0,0,1-2.612-2.643,2.615,2.615,0,0,1,2.612-2.643Zm-16.791-15.709a2.613,2.613,0,0,1,2.6-2.643h14.188a2.644,2.644,0,0,1,0,5.287H782.444A2.608,2.608,0,0,1,779.841,1259.866Zm-58.2,34.052h56.639a2.613,2.613,0,0,1,2.6,2.644,2.666,2.666,0,0,1-2.6,2.651H721.642a2.666,2.666,0,0,1-2.6-2.651A2.613,2.613,0,0,1,721.642,1293.918Zm-2.6-15.7a2.608,2.608,0,0,1,2.6-2.643h22.587a2.609,2.609,0,0,1,2.6,2.643,2.66,2.66,0,0,1-2.6,2.643H721.642A2.659,2.659,0,0,1,719.039,1278.218Zm48.748-15.708H737.892a2.644,2.644,0,0,1,0-5.287h29.895a2.643,2.643,0,1,1,0,5.287Zm-72.427,78.764a2.559,2.559,0,0,1,.821,1.863,2.858,2.858,0,0,1-.821,1.863,2.519,2.519,0,0,1-1.822.7,2.556,2.556,0,0,1-1.832-.7,2.837,2.837,0,0,1-.772-1.863,2.549,2.549,0,0,1,.772-1.863A2.58,2.58,0,0,1,695.36,1341.274Zm81.559-9.18a45.678,45.678,0,0,1-4.7,14.7l3.025,24.028a2.54,2.54,0,0,1-2.754,2.954l-28.384-1.871a70.529,70.529,0,0,1-27.945,5.677c-33.669,0-61.113-23.009-61.113-51.233,0-18.352,11.775-35.3,30.668-44.474a2.632,2.632,0,0,1,2.293,4.737c-17.1,8.249-27.714,23.487-27.714,39.737,0,25.342,25.071,45.946,55.866,45.946a65.811,65.811,0,0,0,26.433-5.438,3.286,3.286,0,0,1,1.242-.238l25.811,1.711-2.714-21.687a2.7,2.7,0,0,1,.31-1.64,38.887,38.887,0,0,0,4.466-13.606,2.7,2.7,0,0,1,2.954-2.254A2.671,2.671,0,0,1,776.919,1332.094Zm-63.366,11.043a2.628,2.628,0,1,1,2.611,2.563A2.619,2.619,0,0,1,713.553,1343.137Zm22.667,0a2.521,2.521,0,0,1,.78-1.863,2.628,2.628,0,0,1,3.694,0,2.712,2.712,0,0,1,.772,1.863,3.047,3.047,0,0,1-.772,1.863,2.718,2.718,0,0,1-1.871.7A2.586,2.586,0,0,1,737,1345,2.8,2.8,0,0,1,736.22,1343.137Zm24.649-19.2a77.27,77.27,0,0,1-30.716-6.218l-31.879,2.643a2.649,2.649,0,0,1-2.794-3.034l3.885-27.133a47.624,47.624,0,0,1-5.6-22.475,2.6,2.6,0,1,1,5.206,0,43.257,43.257,0,0,0,5.366,20.763,2.389,2.389,0,0,1,.311,1.633l-3.535,24.72,29.275-2.4a3.313,3.313,0,0,1,1.242.231,72.612,72.612,0,0,0,29.235,6.067c34.091,0,61.845-22.858,61.845-51.01s-27.754-50.923-61.845-50.923a70.455,70.455,0,0,0-16.25,1.792,2.65,2.65,0,0,1-3.113-2.023,2.593,2.593,0,0,1,1.982-3.113,76.176,76.176,0,0,1,17.381-1.942c36.965,0,67.1,25.27,67.1,56.209C827.969,1298.743,797.834,1323.934,760.869,1323.934Z" fill="#fff" style="isolation: isolate"/>
  </g>
</svg>
