<svg xmlns="http://www.w3.org/2000/svg" width="279" height="279" viewBox="0 0 279 279">
  <g id="Grupo_716" data-name="Grupo 716" transform="translate(-1450.01 -1152.4)" opacity="0.75">
    <path id="Caminho_1107" data-name="Caminho 1107" d="M1625.216,1281.583a19.439,19.439,0,1,0,19.443,19.4A19.429,19.429,0,0,0,1625.216,1281.583Zm2.578,29.8a2.578,2.578,0,1,1-5.156,0v-20.791a2.578,2.578,0,0,1,5.156,0Z" fill="#fff" opacity="0.6" style="isolation: isolate"/>
    <path id="Caminho_1108" data-name="Caminho 1108" d="M1547.413,1234.844h41.5a2.592,2.592,0,0,0,2.578-2.617v-10.392a2.578,2.578,0,0,0-2.578-2.546h-12.978a2.583,2.583,0,0,1-2.578-2.618,5.2,5.2,0,0,0-10.391,0,2.59,2.59,0,0,1-2.587,2.618h-12.969a2.607,2.607,0,0,0-2.618,2.546v10.392A2.62,2.62,0,0,0,1547.413,1234.844Z" fill="#fff" opacity="0.6" style="isolation: isolate"/>
    <path id="Caminho_1109" data-name="Caminho 1109" d="M1676.01,1152.4h-173a53,53,0,0,0-53,53v173a53,53,0,0,0,53,53h173a53,53,0,0,0,53-53v-173A53,53,0,0,0,1676.01,1152.4Zm-48.216,212.1c0,7.16-5.314,13.018-11.819,13.018h-95.629c-6.545,0-11.819-5.858-11.819-13.018V1237.462c0-7.159,5.274-13.009,11.819-13.009h19.293v-2.618a7.735,7.735,0,0,1,7.774-7.7h10.7a10.355,10.355,0,0,1,20.1,0h10.707a7.76,7.76,0,0,1,7.774,7.7v2.618h19.285c6.505,0,11.819,5.85,11.819,13.009v3.848a2.578,2.578,0,1,1-5.156,0v-3.848c0-4.313-3-7.774-6.663-7.774H1596.69v2.539a7.774,7.774,0,0,1-7.774,7.774h-41.5a7.749,7.749,0,0,1-7.774-7.774v-2.539h-19.293c-3.659,0-6.655,3.461-6.655,7.774V1364.5c0,4.313,3,7.782,6.655,7.782h95.629c3.659,0,6.663-3.469,6.663-7.782v-3.847a2.578,2.578,0,1,1,5.156,0Zm-55.971-35.645h-21.832a2.587,2.587,0,0,1-2.578-2.618,2.633,2.633,0,0,1,2.578-2.617h21.832a2.639,2.639,0,0,1,2.578,2.617A2.593,2.593,0,0,1,1571.823,1328.858Zm18.165,18.166a2.582,2.582,0,1,1,0,5.164h-40a2.582,2.582,0,0,1,0-5.164Zm-40-46.731h16.636a2.618,2.618,0,0,1,0,5.235h-16.636a2.618,2.618,0,0,1,0-5.235Zm-2.578-20.712a2.582,2.582,0,0,1,2.578-2.618H1569.2a2.617,2.617,0,1,1,0,5.235h-19.214A2.587,2.587,0,0,1,1547.413,1279.581Zm2.578-20.713a2.633,2.633,0,0,1-2.578-2.617,2.582,2.582,0,0,1,2.578-2.618H1586.3a2.6,2.6,0,0,1,2.618,2.618,2.647,2.647,0,0,1-2.618,2.617Zm-9,62.831-8.476,12.087a2.557,2.557,0,0,1-2.113,1.072h-.04a2.429,2.429,0,0,1-2.042-.993l-4.5-5.929a2.587,2.587,0,1,1,4.156-3.083l2.349,3.083,6.426-9.241a2.6,2.6,0,0,1,4.242,3Zm0,23.33-8.476,12.087a2.865,2.865,0,0,1-2.113,1.151h-.04a2.708,2.708,0,0,1-2.042-1.072l-4.5-5.858a2.7,2.7,0,0,1,.5-3.69,2.626,2.626,0,0,1,3.658.536l2.349,3.083,6.426-9.17a2.569,2.569,0,0,1,3.588-.686A2.612,2.612,0,0,1,1540.987,1345.029Zm0-46.66-8.476,12.087a2.565,2.565,0,0,1-2.113,1.08h-.04a2.637,2.637,0,0,1-2.042-1l-4.5-5.929a2.63,2.63,0,0,1,.5-3.619,2.687,2.687,0,0,1,3.658.457l2.349,3.083,6.426-9.162a2.6,2.6,0,0,1,4.242,3Zm0-22.644-8.476,12.016a2.839,2.839,0,0,1-2.113,1.151h-.04a2.612,2.612,0,0,1-2.042-1l-4.5-5.921a2.61,2.61,0,0,1,.5-3.619,2.551,2.551,0,0,1,3.658.457l2.349,3.083,6.426-9.162a2.548,2.548,0,0,1,3.588-.615A2.6,2.6,0,0,1,1540.987,1275.725Zm133.506,28.8a4.935,4.935,0,0,1-4.928,4.928h-4.115a36.073,36.073,0,0,1-1.2,4.383l3.58,2a5.005,5.005,0,0,1,1.814,6.781l-3.5,6.078a4.947,4.947,0,0,1-6.742,1.774l-3.579-2.081a36.241,36.241,0,0,1-3.193,3.232l2.034,3.549a4.946,4.946,0,0,1-1.766,6.772l-6.087,3.461a4.945,4.945,0,0,1-6.733-1.766l-2.042-3.619a31.051,31.051,0,0,1-4.392,1.23v4.084a4.89,4.89,0,0,1-4.928,4.928h-7a4.889,4.889,0,0,1-4.927-4.928v-4.084a31.317,31.317,0,0,1-4.392-1.23l-2.042,3.619a4.941,4.941,0,0,1-6.733,1.766l-6.087-3.461a5,5,0,0,1-1.806-6.772l2.082-3.549a35.383,35.383,0,0,1-3.2-3.232l-3.579,2.081a4.535,4.535,0,0,1-3.729.458,4.806,4.806,0,0,1-3-2.232l-3.509-6.078a4.965,4.965,0,0,1-.5-3.777,5.11,5.11,0,0,1,2.31-3l3.54-2a44.832,44.832,0,0,1-1.151-4.383h-4.124a4.935,4.935,0,0,1-4.928-4.928v-7.009a5,5,0,0,1,4.928-5.007h4.124a38.292,38.292,0,0,1,1.151-4.3l-3.54-2.081a5.11,5.11,0,0,1-2.31-3,5.012,5.012,0,0,1,.5-3.777l3.509-6a4.919,4.919,0,0,1,3-2.31,4.856,4.856,0,0,1,3.729.457l3.579,2.082c1-1.151,2.082-2.153,3.2-3.233l-2.082-3.54a4.917,4.917,0,0,1,1.806-6.7l6.087-3.54a5.014,5.014,0,0,1,6.733,1.766l2.042,3.619c1.466-.457,2.925-.843,4.392-1.23v-4.076a4.934,4.934,0,0,1,4.927-4.928h7a4.935,4.935,0,0,1,4.928,4.928v4.076c1.467.387,2.933.773,4.392,1.23l2.042-3.619a5.017,5.017,0,0,1,6.733-1.766l6.087,3.54a4.863,4.863,0,0,1,1.766,6.7l-2.034,3.54c1.112,1.08,2.192,2.082,3.193,3.233l3.579-2.082a4.972,4.972,0,0,1,6.742,1.853l3.5,6.079a4.931,4.931,0,0,1-1.814,6.7l-3.58,2.081a31.449,31.449,0,0,1,1.2,4.3h4.115a5,5,0,0,1,4.928,5.007Z" fill="#fff" style="isolation: isolate"/>
    <path id="Caminho_1110" data-name="Caminho 1110" d="M1660.711,1295.515a33.379,33.379,0,0,0-2.042-7.545,2.629,2.629,0,0,1,1.159-3.233l5.2-3-3.272-5.621-5.2,3a2.515,2.515,0,0,1-3.311-.615,36.435,36.435,0,0,0-5.582-5.542,2.639,2.639,0,0,1-.615-3.312l3-5.235-5.582-3.233-3,5.236a2.565,2.565,0,0,1-3.2,1.08,36.758,36.758,0,0,0-7.617-2,2.67,2.67,0,0,1-2.2-2.546v-6h-6.465v6a2.668,2.668,0,0,1-2.231,2.546,37.141,37.141,0,0,0-7.585,2,2.494,2.494,0,0,1-3.162-1.08l-3.035-5.236-5.621,3.233,3.043,5.235a2.631,2.631,0,0,1-.623,3.312,36.386,36.386,0,0,0-5.582,5.542,2.507,2.507,0,0,1-3.3.615l-5.243-3-3.233,5.621,5.2,3a2.663,2.663,0,0,1,1.158,3.233,35.666,35.666,0,0,0-2.081,7.545,2.534,2.534,0,0,1-2.539,2.231h-6.008v6.473h6.008a2.534,2.534,0,0,1,2.539,2.232,35.536,35.536,0,0,0,2.081,7.545,2.663,2.663,0,0,1-1.158,3.233l-5.2,3,3.233,5.621,5.243-3a2.6,2.6,0,0,1,3.3.615,36.349,36.349,0,0,0,5.582,5.543,2.648,2.648,0,0,1,.623,3.311l-3.043,5.236,5.621,3.232,3.035-5.235a2.576,2.576,0,0,1,3.162-1.072,38.207,38.207,0,0,0,7.585,2,2.661,2.661,0,0,1,2.231,2.539v6.079h6.465v-6.079a2.663,2.663,0,0,1,2.2-2.539,37.793,37.793,0,0,0,7.617-2,2.652,2.652,0,0,1,3.2,1.072l3,5.235,5.582-3.232-3-5.236a2.656,2.656,0,0,1,.615-3.311,36.4,36.4,0,0,0,5.582-5.543,2.6,2.6,0,0,1,3.311-.615l5.2,3,3.272-5.621-5.2-3a2.629,2.629,0,0,1-1.159-3.233,33.267,33.267,0,0,0,2.042-7.545,2.609,2.609,0,0,1,2.579-2.232h6.007v-6.473h-6.007A2.608,2.608,0,0,1,1660.711,1295.515Zm-35.5,30.11a24.638,24.638,0,1,1,24.638-24.638A24.642,24.642,0,0,1,1625.216,1325.625Z" fill="#fff" opacity="0.6" style="isolation: isolate"/>
  </g>
</svg>
