<svg xmlns="http://www.w3.org/2000/svg" width="42.227" height="42.222" viewBox="0 0 42.227 42.222">
  <g id="Grupo_828" data-name="Grupo 828" transform="translate(-1546.814 -66.926)">
    <path id="Caminho_1242" data-name="Caminho 1242" d="M1562.706,68.979h0a13.838,13.838,0,1,0,13.836,13.839h0A13.852,13.852,0,0,0,1562.706,68.979Zm9.054,13.839a9.056,9.056,0,1,1-9.054-9.059,9.055,9.055,0,0,1,9.054,9.059Z" transform="translate(-0.482 -0.482)" fill="#4252ff"/>
    <g id="Grupo_5" data-name="Grupo 5" transform="translate(1546.814 66.926)">
      <g id="Grupo_826" data-name="Grupo 826">
        <g id="Grupo_4" data-name="Grupo 4">
          <path id="Caminho_1" data-name="Caminho 1" d="M1562.224,97.745a15.41,15.41,0,1,1,15.409-15.41v0A15.427,15.427,0,0,1,1562.224,97.745Zm0-29.247a13.838,13.838,0,1,0,13.836,13.839h0A13.852,13.852,0,0,0,1562.224,68.5Z" transform="translate(-1546.814 -66.926)" fill="#4252ff"/>
        </g>
      </g>
    </g>
    <g id="Grupo_9" data-name="Grupo 9" transform="translate(1555.905 76.014)">
      <g id="Grupo_8" data-name="Grupo 8" transform="translate(0 0)">
        <path id="Caminho_3" data-name="Caminho 3" d="M1559.479,85.909a.785.785,0,0,1-.786-.784v0a6.328,6.328,0,0,1,6.32-6.321.787.787,0,0,1,0,1.573,4.755,4.755,0,0,0-4.745,4.749.786.786,0,0,1-.786.786Z" transform="translate(-1558.693 -78.802)" fill="#4252ff"/>
      </g>
    </g>
    <g id="Grupo_12" data-name="Grupo 12" transform="translate(1571.777 91.893)">
      <g id="Grupo_10" data-name="Grupo 10" transform="translate(0.79 0.785)">
        <path id="Caminho_4" data-name="Caminho 4" d="M1580.465,100.577l4.354,4.352Z" transform="translate(-1580.465 -100.577)" fill="#4252ff"/>
      </g>
      <g id="Grupo_11" data-name="Grupo 11" transform="translate(0 0)">
        <path id="Caminho_5" data-name="Caminho 5" d="M1584.574,105.474a.782.782,0,0,1-.556-.23l-4.354-4.351a.786.786,0,1,1,1.112-1.112l4.354,4.351a.786.786,0,0,1-.555,1.342Z" transform="translate(-1579.433 -99.551)" fill="#4252ff"/>
      </g>
    </g>
    <g id="Grupo_14" data-name="Grupo 14" transform="translate(1571.228 91.339)">
      <g id="Grupo_827" data-name="Grupo 827">
        <g id="Grupo_13" data-name="Grupo 13">
          <path id="Caminho_6" data-name="Caminho 6" d="M1591,116.636a5.49,5.49,0,0,1-3.908-1.619l-8.144-8.143a.788.788,0,0,1,0-1.112l6.7-6.705a.787.787,0,0,1,1.112,0l8.147,8.141a5.528,5.528,0,0,1-3.911,9.438Zm-10.383-10.318,7.588,7.588a4.056,4.056,0,0,0,5.6,0,3.967,3.967,0,0,0,0-5.594l-7.591-7.585Z" transform="translate(-1578.716 -98.826)" fill="#4252ff"/>
        </g>
        <path id="Caminho_1243" data-name="Caminho 1243" d="M1581.2,106.9l7.588,7.588a4.056,4.056,0,0,0,5.6,0,3.967,3.967,0,0,0,0-5.594l-7.591-7.585Z" transform="translate(-1579.298 -99.409)" fill="#4252ff"/>
      </g>
    </g>
  </g>
</svg>
