<svg xmlns="http://www.w3.org/2000/svg" xmlns:xlink="http://www.w3.org/1999/xlink" width="190" height="191" viewBox="0 0 190 191">
  <defs>
    <clipPath id="clip-path">
      <ellipse id="Elipse_8" data-name="Elipse 8" cx="95" cy="95.5" rx="95" ry="95.5" transform="translate(0.086 0)" fill="none"/>
    </clipPath>
  </defs>
  <g id="Grupo_770" data-name="Grupo 770" transform="translate(-0.086)">
    <ellipse id="Elipse_7" data-name="Elipse 7" cx="95" cy="95.5" rx="95" ry="95.5" transform="translate(0.086)" fill="#ebf3fa"/>
    <g id="Grupo_769" data-name="Grupo 769" transform="translate(0 0)">
      <g id="Grupo_768" data-name="Grupo 768" transform="translate(0 0)" clip-path="url(#clip-path)">
        <g id="Grupo_767" data-name="Grupo 767" transform="translate(36.983 24.403)">
          <g id="Grupo_766" data-name="Grupo 766">
            <path id="Caminho_1157" data-name="Caminho 1157" d="M-2519.957,3498.379s46.479,48.292,17.661,88.773C-2502.3,3587.152-2543.919,3524.855-2519.957,3498.379Z" transform="translate(2605.229 -3317.644)" fill="#e94e5d"/>
            <g id="Grupo_765" data-name="Grupo 765">
              <g id="Grupo_752" data-name="Grupo 752" transform="translate(15.91 312.084)">
                <g id="Grupo_748" data-name="Grupo 748">
                  <path id="Caminho_1158" data-name="Caminho 1158" d="M-2630.68,4088.194s4.006,1.118,2.157,6.862-11.409,21.254-12.214,22.186c-4.912,5.623-14.076.236-13.561-4.283.72-6.247,5.741-23.019,10.885-24.765Z" transform="translate(2654.318 -3931.777)" fill="#84474c"/>
                  <g id="Grupo_747" data-name="Grupo 747" transform="translate(10.906)">
                    <g id="Grupo_746" data-name="Grupo 746">
                      <path id="Caminho_1159" data-name="Caminho 1159" d="M-2619.233,3927.475s-1.323,3.124-6.361,3.124a8.094,8.094,0,0,1-6.372-3.124V3767.6h34.047s-5.565,57.618-7.671,76.774C-2607.89,3865.2-2619.233,3927.475-2619.233,3927.475Z" transform="translate(2631.965 -3767.595)" fill="#f29ea0"/>
                    </g>
                  </g>
                </g>
                <g id="Grupo_751" data-name="Grupo 751" transform="translate(44.953)">
                  <path id="Caminho_1160" data-name="Caminho 1160" d="M-2519.712,4090.212s-2.261,2.3-2.261,9.363c0,4.326,21.842,12.672,23.012,13.161,7.838,3.271,10.411-1.973,9.881-6.625-.747-6.435-12.541-13.888-18.055-15.9Z" transform="translate(2541.59 -3932.811)" fill="#84474c"/>
                  <g id="Grupo_750" data-name="Grupo 750">
                    <g id="Grupo_749" data-name="Grupo 749">
                      <path id="Caminho_1161" data-name="Caminho 1161" d="M-2540.448,3927.475s1.332,3.124,6.363,3.124a8.053,8.053,0,0,0,6.359-3.124V3767.6h-34.455s5.574,65.6,7.842,87.4C-2552.418,3873.346-2540.448,3927.475-2540.448,3927.475Z" transform="translate(2562.181 -3767.595)" fill="#f29ea0"/>
                    </g>
                  </g>
                </g>
              </g>
              <path id="Caminho_1162" data-name="Caminho 1162" d="M-2572.037,3641.748c-6.951-14.837-16.193-40.387-21.29-78.552-1.891-14.143-8.577-22.038-8.577-22.038h-53.682s-5.968,5.048-8.26,23.419c-3.752,30.072-13.343,57.565-20.433,74.791-4.749,11.554-3.143,20.6,5.045,23.2,12.817,4.05,32.846,9.241,51.327,9.241,14.287,0,36.228-5.5,50.576-9.6C-2568.831,3659.784-2566.886,3652.735-2572.037,3641.748Z" transform="translate(2686.929 -3339.551)" fill="#84474c"/>
              <g id="Grupo_753" data-name="Grupo 753" transform="translate(57.324 227.313)">
                <path id="Caminho_1163" data-name="Caminho 1163" d="M-2565.9,3595.618a1.757,1.757,0,0,1-1.764,1.76,1.764,1.764,0,0,1-1.775-1.76,1.769,1.769,0,0,1,1.775-1.773A1.763,1.763,0,0,1-2565.9,3595.618Z" transform="translate(2569.436 -3593.845)" fill="#fff"/>
                <path id="Caminho_1164" data-name="Caminho 1164" d="M-2565.9,3651.118a1.761,1.761,0,0,1-1.764,1.764,1.768,1.768,0,0,1-1.775-1.764,1.775,1.775,0,0,1,1.775-1.774A1.769,1.769,0,0,1-2565.9,3651.118Z" transform="translate(2569.436 -3622.267)" fill="#fff"/>
                <path id="Caminho_1165" data-name="Caminho 1165" d="M-2565.9,3706.617a1.768,1.768,0,0,1-1.764,1.766,1.775,1.775,0,0,1-1.775-1.766,1.777,1.777,0,0,1,1.775-1.782A1.771,1.771,0,0,1-2565.9,3706.617Z" transform="translate(2569.436 -3650.684)" fill="#fff"/>
                <path id="Caminho_1166" data-name="Caminho 1166" d="M-2565.9,3762.132a1.76,1.76,0,0,1-1.764,1.76,1.767,1.767,0,0,1-1.775-1.76,1.769,1.769,0,0,1,1.775-1.769A1.762,1.762,0,0,1-2565.9,3762.132Z" transform="translate(2569.436 -3679.12)" fill="#fff"/>
              </g>
              <path id="Caminho_1167" data-name="Caminho 1167" d="M-2568.139,3291.527h-23.308v-29.158h23.308Z" transform="translate(2638.031 -3196.781)" fill="#f29ea0"/>
              <g id="Grupo_755" data-name="Grupo 755" transform="translate(46.585 65.588)">
                <g id="Grupo_754" data-name="Grupo 754">
                  <path id="Caminho_1168" data-name="Caminho 1168" d="M-2591.447,3277.055a27.946,27.946,0,0,0,11.652,2.589,27.963,27.963,0,0,0,11.656-2.589v-14.687h-23.308Z" transform="translate(2591.447 -3262.369)" fill="#f29ea0"/>
                </g>
              </g>
              <g id="Grupo_757" data-name="Grupo 757" transform="translate(24.367 40.286)">
                <g id="Grupo_756" data-name="Grupo 756">
                  <path id="Caminho_1169" data-name="Caminho 1169" d="M-2509.351,3217.694c-1.047,3.1-3.753,4.99-6.055,4.215s-3.324-3.912-2.275-7.017,3.746-4.986,6.047-4.207S-2508.31,3214.6-2509.351,3217.694Z" transform="translate(2576.1 -3210.509)" fill="#f29ea0"/>
                  <path id="Caminho_1170" data-name="Caminho 1170" d="M-2636.581,3217.694c1.047,3.1,3.756,4.99,6.062,4.215s3.317-3.912,2.269-7.017-3.745-4.986-6.044-4.207S-2637.617,3214.6-2636.581,3217.694Z" transform="translate(2636.986 -3210.509)" fill="#f29ea0"/>
                </g>
              </g>
              <path id="Caminho_1171" data-name="Caminho 1171" d="M-2568.961,3186.247a28.126,28.126,0,0,1-28.132,28.125h0a28.13,28.13,0,0,1-28.132-28.125v-14.681a28.141,28.141,0,0,1,28.132-28.135h0a28.137,28.137,0,0,1,28.132,28.135Z" transform="translate(2655.33 -3135.871)" fill="#f29ea0"/>
              <g id="Grupo_759" data-name="Grupo 759" transform="translate(3.205 146.751)">
                <g id="Grupo_758" data-name="Grupo 758">
                  <path id="Caminho_1172" data-name="Caminho 1172" d="M-2650.813,3431.958l-20.144-3.235-9.066,47.717c-1.407,4.754,1.762,11.06,6.515,12.467a8.984,8.984,0,0,0,11.17-6.06Z" transform="translate(2680.36 -3428.723)" fill="#f29ea0"/>
                  <path id="Caminho_1173" data-name="Caminho 1173" d="M-2661.344,3518.046a10.064,10.064,0,0,0-13.573-4.308h0a10.06,10.06,0,0,0-4.3,13.568l23.175,29.511c2.563,4.932,14.181-3.725,11.614-8.653Z" transform="translate(2680.355 -3471.678)" fill="#f29ea0"/>
                </g>
              </g>
              <g id="Grupo_764" data-name="Grupo 764" transform="translate(11.228 94.738)">
                <path id="Caminho_1174" data-name="Caminho 1174" d="M-2642.9,3428.994h53.028l.087-51.153,20-2.41c-1.807-19.753-8.426-32.332-15.473-40.268-9.6-10.836-19.991-13.029-19.991-13.029h-23.309s-26.98,6.586-35.357,52l21.4,3.1Z" transform="translate(2663.916 -3322.125)" fill="#ffd269"/>
                <g id="Grupo_763" data-name="Grupo 763" transform="translate(74.044 53.305)">
                  <g id="Grupo_762" data-name="Grupo 762">
                    <path id="Caminho_1175" data-name="Caminho 1175" d="M-2494.07,3431.372l-18.082,2.473,5.285,47.191c.688,4.915,6.2,9.331,11.11,8.635a8.981,8.981,0,0,0,7.635-10.155Z" transform="translate(2512.152 -3431.372)" fill="#f29ea0"/>
                    <g id="Grupo_761" data-name="Grupo 761" transform="translate(4.503 39.998)">
                      <path id="Caminho_1176" data-name="Caminho 1176" d="M-2501.187,3522.208a9.368,9.368,0,0,1,9.894-8.841h0a9.394,9.394,0,0,1,8.838,9.9l-7.646,50.444c-.292,5.169-8.172,4.634-7.869-.53Z" transform="translate(2502.035 -3513.352)" fill="#f29ea0"/>
                      <g id="Grupo_760" data-name="Grupo 760" transform="translate(0 59.83)">
                        <path id="Caminho_1177" data-name="Caminho 1177" d="M-2490.99,3636.513s7.439,9.99-3.638,23.482c-2.881,3.494-6.86,1.894-3.085-7.392,2.553-6.287,2.043-10.521-1.437-7.892-1.4,1.061-1.537,1.987-2.852,1.845-3.248-.353,3.144-10.574,3.144-10.574Z" transform="translate(2502.923 -3635.983)" fill="#f29ea0"/>
                      </g>
                    </g>
                  </g>
                </g>
                <path id="Caminho_1178" data-name="Caminho 1178" d="M-2603.461,3322.125s-2.742-.258-6.554,1.965c-1.531.9-4.393,2.66-4.939,4.388,4.9,20.542,23.983,86.577,50.156,100.506a18.82,18.82,0,0,0,1.91-3.614,17.354,17.354,0,0,0-1.4-11.3c-22.907-29.489-35.141-76.462-38.7-91.946Z" transform="translate(2638.842 -3322.115)" fill="#e94e5d"/>
              </g>
              <path id="Caminho_1179" data-name="Caminho 1179" d="M-2624.929,3218.175l.091-14.263s-12.455-4.38-16.313-21.65c0,0-.526-7.954,6.334-11.9,6.2-3.551,5.378-7.441,5.3-10.306,1.693,2.125,4.558,3.284,9.413,1.559,10.313-3.667,13.416,9.924,26.666,9.924,4.195,0,8.223,8.235,8.223,8.235-3.988,19.493-16.435,24.132-16.435,24.132v14.272h31.808a104.833,104.833,0,0,0-4.026-24.65c-4.126-14.156-5.76-35.16-5.76-35.16,0,.031-.014.053-.02.08-.009-8.6-3.081-17.957-15.457-24.734-27.5-15.1-40.305,4.184-40.305,4.184-6.446-.316-9.3,5.476-10.83,13.211l-.006-.089a.986.986,0,0,0,.006.111c-.37,1.872-.687,3.828-.925,5.873a24.242,24.242,0,0,0,.535,6.505,79.335,79.335,0,0,1-5.648,21.812c-5.505,13.01-5.267,23.967-2.261,32.857Z" transform="translate(2671.422 -3127.937)" fill="#c2494c"/>
            </g>
          </g>
        </g>
      </g>
    </g>
  </g>
</svg>
