<svg xmlns="http://www.w3.org/2000/svg" xmlns:xlink="http://www.w3.org/1999/xlink" width="190" height="191" viewBox="0 0 190 191">
  <defs>
    <clipPath id="clip-path">
      <ellipse id="Elipse_22" data-name="Elipse 22" cx="95" cy="95.5" rx="95" ry="95.5" transform="translate(0.273)" fill="none"/>
    </clipPath>
  </defs>
  <g id="Grupo_929" data-name="Grupo 929" transform="translate(-0.272)">
    <ellipse id="Elipse_21" data-name="Elipse 21" cx="95" cy="95.5" rx="95" ry="95.5" transform="translate(0.273)" fill="#ebf3fa"/>
    <g id="Grupo_928" data-name="Grupo 928" transform="translate(0 0)">
      <g id="Grupo_927" data-name="Grupo 927" clip-path="url(#clip-path)">
        <g id="Grupo_926" data-name="Grupo 926" transform="translate(10.758 28.696)">
          <path id="Caminho_1324" data-name="Caminho 1324" d="M1405.084,3209.493s10.892-3.329,15.17-23.446c.73-3.449,2.86-12.307,3.424-17.578,2.02-18.639-8.861-32.732-32.873-32.732-10.587,0-25.448,6.14-34.88,24.012-11.4,21.6-2.569,27.158-12.293,37.161s-10.293,17.15-3.144,26.873,12.011,17.155,8.582,24.877-4.588,28.878,15.571,20.586,40.443-50.017,40.443-50.017Z" transform="translate(-1298.136 -3135.736)" fill="#cc33ac"/>
          <g id="Grupo_916" data-name="Grupo 916" transform="translate(66.506 2.308)">
            <g id="Grupo_915" data-name="Grupo 915">
              <rect id="Ret창ngulo_79" data-name="Ret창ngulo 79" width="23.521" height="21.299" transform="translate(16.921 68.192)" fill="#f29ea0"/>
              <path id="Caminho_1325" data-name="Caminho 1325" d="M1448.6,3188.985c-2.034,8.764-14.288,25.335-25.34,25.335-9.5,0-24.775-13.782-25.434-22.871,0,0-2.369-16.237-2.716-21.7-1-16.148,14.1-29.284,28.15-29.284h0c14.042,0,29.684,13.15,28.539,29.284A148.026,148.026,0,0,1,1448.6,3188.985Z" transform="translate(-1395.067 -3140.466)" fill="#f29ea0"/>
            </g>
          </g>
          <g id="Grupo_924" data-name="Grupo 924" transform="translate(38.299 85.057)">
            <path id="Caminho_1326" data-name="Caminho 1326" d="M1382.681,4136.638v52.792c0,5.672-7.049,9.771-15.041,9.771s-15.99-3.114-15.99-10.436c0-9.99,14.006-18.18,14.006-43.292,0-2.821-.222-8.835-.222-8.835Z" transform="translate(-1344.626 -3733.364)" fill="#332a58"/>
            <path id="Caminho_1327" data-name="Caminho 1327" d="M1469.881,4136.638s-3.253,3.345-3.253,10.612v36.708c0,2.4,1.076,3.377,2.642,4.746,1.613,1.417,10.075,7.793,11.964,9.063a11.7,11.7,0,0,0,4.99,1.436h10.153c9.207,0,13.989-2.032,13.989-11.113,0-6.551-2.506-8.939-7.936-8.939-3.362,0-7.078-5.471-8.713-12.191-6.167-25.326-6.592-30.321-6.592-30.321Z" transform="translate(-1403.507 -3733.364)" fill="#332a58"/>
            <g id="Grupo_923" data-name="Grupo 923" transform="translate(0 144.141)">
              <g id="Grupo_919" data-name="Grupo 919" transform="translate(66.374 241.015)">
                <g id="Grupo_918" data-name="Grupo 918">
                  <g id="Grupo_917" data-name="Grupo 917">
                    <path id="Caminho_1328" data-name="Caminho 1328" d="M1473.295,4117.62s1.8,4.241,8.631,4.241a10.9,10.9,0,0,0,8.613-4.241l3.427-18.117h-20.671Z" transform="translate(-1473.295 -4099.503)" fill="#f29ea0"/>
                  </g>
                </g>
              </g>
              <g id="Grupo_922" data-name="Grupo 922" transform="translate(17.685 241.015)">
                <g id="Grupo_921" data-name="Grupo 921">
                  <g id="Grupo_920" data-name="Grupo 920">
                    <path id="Caminho_1329" data-name="Caminho 1329" d="M1393.871,4117.62s-1.8,4.241-8.631,4.241a10.91,10.91,0,0,1-8.615-4.241L1373.5,4099.5h20.187Z" transform="translate(-1373.501 -4099.503)" fill="#f29ea0"/>
                  </g>
                </g>
              </g>
              <path id="Caminho_1330" data-name="Caminho 1330" d="M1381.57,3846.524l9-194.461,18.412,85.111h.08l-7.1,109.35h28.2s21.111-109.32,21.118-109.35c8.718-57.445-15.223-131.665-15.223-131.665h-85.848s-10.3,61.317-12.145,80c-4.85,49.286,13.7,161.02,13.7,161.02Z" transform="translate(-1337.252 -3605.509)" fill="#bcbbbb"/>
            </g>
            <path id="Caminho_1331" data-name="Caminho 1331" d="M1448.975,3324.286l-30.956-14.214s-3.153,4.812-10.993,4.812c-8.6,0-12.53-4.812-12.53-4.812s-23.491,12.3-32.173,16.21c0,0-5.031,41.777,3.923,69.127,8.893,27.136-3.923,58.8-3.923,58.8s18.547,10.4,40.526,10.4c23.58,0,45.322-10.4,45.322-10.4s-14.872-29.507-4.385-58.335C1456.388,3361.207,1448.975,3324.286,1448.975,3324.286Z" transform="translate(-1349.37 -3310.072)" fill="#ffd269"/>
          </g>
          <path id="Caminho_1332" data-name="Caminho 1332" d="M1512.454,3218.228c-1.149,3.386-4.108,5.453-6.621,4.6s-3.629-4.273-2.484-7.673c1.136-3.382,4.091-5.445,6.607-4.6S1513.585,3214.841,1512.454,3218.228Z" transform="translate(-1383.782 -3173.955)" fill="#f29ea0"/>
          <path id="Caminho_1333" data-name="Caminho 1333" d="M1449.155,3176.3s-5.32-.561-5.616,6.292c0,0,0-13.79-5-21.94,0,0-7.15,10.293-20.016,10.72s-19.793,4.407-23.186,13.421c0,0-6.546-14.7-1.974-28,4.58-13.287,21-18.786,30.023-18.429S1458.664,3151.182,1449.155,3176.3Z" transform="translate(-1326.857 -3137.07)" fill="#cc33ac"/>
          <g id="Grupo_925" data-name="Grupo 925" transform="translate(122.536 99.351)">
            <path id="Caminho_1334" data-name="Caminho 1334" d="M1582.892,3604.465l13.793,1.243-8.785-71.261-19.127,2.691Z" transform="translate(-1540.054 -3439.271)" fill="#f29ea0"/>
            <path id="Caminho_1335" data-name="Caminho 1335" d="M1601.871,3723.264l.014-.009c.182-.245.381-.5.641-.793,2.985-3.266,5.064-5.9,5.009-8.4-.031-1.943-.009-3.337-.054-5.517-.042-2.027-2.337-7.142-3.847-7.107-1.448.031-3.892,5.035-4.67,6.042-.171.209-.338.4-.516.575,1.956.437,5.478,2.246,3.261,9.771C1601.325,3719.134,1598.917,3721.366,1601.871,3723.264Z" transform="translate(-1555.25 -3524.789)" fill="#f29ea0"/>
            <path id="Caminho_1336" data-name="Caminho 1336" d="M1541.425,3339.37s16.27,3.284,20.547,26.543c2.614,14.2,12.5,52.021,18.456,85.191,0,0-2.018,2.65-11.761,5.583a18.876,18.876,0,0,1-12.225-.945s-10.272-41.7-14.257-69.849c-1.274-8.965-.76-16.607-.761-23.05C1541.4,3347.5,1541.425,3339.37,1541.425,3339.37Z" transform="translate(-1525.997 -3339.37)" fill="#ffd269"/>
            <path id="Caminho_1337" data-name="Caminho 1337" d="M1605.582,3674.826l19.18,62.083-95.68,29.551-19.173-62.088Z" transform="translate(-1509.909 -3511.16)" fill="#e94e5d"/>
            <path id="Caminho_1338" data-name="Caminho 1338" d="M1607.617,3677.412l-13.381.267s1.51,7.36-3.31,15.813l6.461-2c1.755-1.582,1.755-2.357,2.4-2.357,1.51,0,2.192,5.865,1.488,9.794-1.234,6.861-4.946,15.167-.461,15.167,7.517,0,9.926-9.74,9.827-14.74A89.143,89.143,0,0,0,1607.617,3677.412Z" transform="translate(-1551.399 -3512.485)" fill="#f29ea0"/>
          </g>
          <path id="Caminho_1339" data-name="Caminho 1339" d="M1291.781,3428.164c-.628,6.5.546,11.821,8.794,16,5.83,2.971,15.722-4.328,17.975-10.467,3.455-9.429,9.6-31.516,9.6-31.516.637-2.063.065-60.928-1.308-58.932C1311.388,3365.836,1291.781,3428.164,1291.781,3428.164Z" transform="translate(-1275.594 -3241.978)" fill="#ffd269"/>
          <rect id="Ret창ngulo_80" data-name="Ret창ngulo 80" width="71.124" height="45.209" transform="translate(4.221 89.499)" fill="#e94e5d"/>
          <path id="Caminho_1340" data-name="Caminho 1340" d="M1298.26,3427.39s-24.73-54.874-22.9-59.44c.981-2.455,4.931-12.651,5.917-14.8,5.833-12.672-11.491-28.7-21.938,1.226-1.843,5.285,1.127,12.36,2.183,15.448a26.674,26.674,0,0,1,.994,4.675l12.347,57.961a11.562,11.562,0,0,0,14.366,9.028A11.877,11.877,0,0,0,1298.26,3427.39Z" transform="translate(-1258.754 -3238.977)" fill="#f29ea0"/>
        </g>
      </g>
    </g>
  </g>
</svg>
