<svg xmlns="http://www.w3.org/2000/svg" xmlns:xlink="http://www.w3.org/1999/xlink" width="190" height="191" viewBox="0 0 190 191">
  <defs>
    <clipPath id="clip-path">
      <ellipse id="Elipse_24" data-name="Elipse 24" cx="95" cy="95.5" rx="95" ry="95.5" transform="translate(0.368)" fill="none"/>
    </clipPath>
  </defs>
  <g id="Grupo_951" data-name="Grupo 951" transform="translate(-0.368)">
    <ellipse id="Elipse_23" data-name="Elipse 23" cx="95" cy="95.5" rx="95" ry="95.5" transform="translate(0.368)" fill="#ebf3fa"/>
    <g id="Grupo_950" data-name="Grupo 950" transform="translate(0 0)">
      <g id="Grupo_949" data-name="Grupo 949" transform="translate(0 0)" clip-path="url(#clip-path)">
        <g id="Grupo_948" data-name="Grupo 948" transform="translate(-17.864 32.994)">
          <g id="Grupo_930" data-name="Grupo 930" transform="translate(13.11 494.038)">
            <path id="Caminho_1341" data-name="Caminho 1341" d="M1888.027,4156.145a15.661,15.661,0,0,1-.194,5.5c-2.62,7.882-10.344,25.66-14.6,32.6-3.139,5.116-14.983,12.333-20.726,9.981-4.846-1.988-6.025-10.739-2.636-17.9s23.375-30.179,23.375-30.179Z" transform="translate(-1847.935 -4156.145)" fill="#f29ea0"/>
            <path id="Caminho_1342" data-name="Caminho 1342" d="M1888.2,4156.884h-.009a14.259,14.259,0,0,1-.227,5.137c-1.992,6.007-7.307,18.042-11.077,26.054-2.682,5.708-12.83,7.6-16.894,5.93-4.852-1.983-6.036-10.739-2.645-17.9.051-.107.119-.241.178-.352-3.444,4.451-6.4,8.577-7.526,10.947-3.389,7.16-1.8,16.371,3.039,18.363a6.4,6.4,0,0,0,2.008.41c5.913,1.716,16.433-4.544,21.214-11.959,4.4-6.835,10.378-21.295,12.985-29.177C1890.46,4160.649,1888.2,4156.884,1888.2,4156.884Z" transform="translate(-1848.07 -4156.523)" fill="#84474c"/>
          </g>
          <path id="Caminho_1343" data-name="Caminho 1343" d="M2072.517,4154.251s3.447,6.679,4.592,8.47c4.492,7,16.368,22.319,22.208,27.978,4.308,4.189,17.56,8.261,22.549,4.559,4.2-3.124,3.722-11.875-3.955-18.443C2102.066,4163.234,2095,4153.8,2095,4153.8Z" transform="translate(-1949.835 -3660.904)" fill="#f29ea0"/>
          <path id="Caminho_1344" data-name="Caminho 1344" d="M2044.629,3341.267c-9.22-4.091-31.977-14.8-31.977-14.8h-27.441s-16.4,9.135-25.608,13.225c0,0-11.656,46.625-4.792,75.949,6.619,28.268,9.021,59.187,9.021,59.187h69.75s-1.491-31.106,7.528-58.7C2053.122,3379.4,2044.629,3341.267,2044.629,3341.267Z" transform="translate(-1888.449 -3237.219)" fill="#b13feb"/>
          <g id="Grupo_931" data-name="Grupo 931" transform="translate(109.693 102.1)">
            <path id="Caminho_1345" data-name="Caminho 1345" d="M2046.931,3352.812s.232,8.47.582,21.175c.094,6.35.2,13.759.316,21.7.045,7.941.092,16.411.139,24.877-.047,8.471-.094,16.941-.136,24.881-.117,7.94-.223,15.35-.316,21.7-.35,12.7-.584,21.173-.584,21.173s-.234-8.47-.583-21.173c-.094-6.35-.2-13.76-.316-21.7-.042-7.94-.09-16.411-.136-24.881.046-8.466.094-16.936.137-24.877.116-7.94.223-15.35.317-21.7C2046.7,3361.282,2046.931,3352.812,2046.931,3352.812Z" transform="translate(-2045.895 -3352.812)" fill="#fff"/>
          </g>
          <path id="Caminho_1346" data-name="Caminho 1346" d="M1897.482,4076.935a319.818,319.818,0,0,0,1.045,38.646s4,2.989,7.218,2.713c6.866-.592,7.564-2.713,7.564-2.713l9.778-38.646Z" transform="translate(-1860.106 -3621.542)" fill="#f29ea0"/>
          <path id="Caminho_1347" data-name="Caminho 1347" d="M2072.028,4076.935l.239,37.955s.788.69,7.677.69a120.515,120.515,0,0,0,14.809-1.146,301.988,301.988,0,0,1,.013-37.5Z" transform="translate(-1949.585 -3621.542)" fill="#f29ea0"/>
          <path id="Caminho_1348" data-name="Caminho 1348" d="M2004.185,3617.381h-70.128c-10.709,15.025-24.505,61.2-25.12,81.323-.494,16.153,2.649,53.542.2,59.677-9.525,23.847-12.74,57.516-13.7,83.212H1923.2l49.105-149.247,8.014,149.247h26.162c1.919-30.687,4.855-71.974,7.827-90.72C2020.344,3712.739,2021.625,3659.123,2004.185,3617.381Z" transform="translate(-1859.148 -3386.2)" fill="#92b8e2"/>
          <path id="Caminho_1349" data-name="Caminho 1349" d="M2116.117,4168.922s4.6,5.743.394,8.858c-3.671,2.731-12.5,4.108-18.756-2.656-7.079-7.659-9.727-11.238-22.348-27.145a16.414,16.414,0,0,1-2.89-6.55v6.487a22.464,22.464,0,0,0,4.25,10.886,305.838,305.838,0,0,0,19.245,24.351c5.075,5.6,17.447,9.616,23.106,7.218a19.146,19.146,0,0,0,2.747-1.448C2128.326,4184.027,2124.171,4175.713,2116.117,4168.922Z" transform="translate(-1949.835 -3654.57)" fill="#84474c"/>
          <g id="Grupo_932" data-name="Grupo 932" transform="translate(71.97)">
            <path id="Caminho_1350" data-name="Caminho 1350" d="M1989.568,3244v20.033c7.653,15.306,28.221,19.748,28.221,19.748s20.572-4.442,28.232-19.748V3244Z" transform="translate(-1979.326 -3194.986)" fill="#332a58"/>
            <path id="Caminho_1351" data-name="Caminho 1351" d="M2046.77,3304.56l-12.592,19.984-13.06-19.984.008-19.5h25.646Z" transform="translate(-1995.484 -3216.014)" fill="#f29ea0"/>
            <path id="Caminho_1352" data-name="Caminho 1352" d="M2041.695,3199.187c-2.21,9.544-15.584,27.617-27.64,27.617-10.351,0-27.011-15.039-27.737-24.948,0,0-2.582-17.7-2.954-23.651-1.09-17.618,15.379-31.948,30.691-31.948h0c15.328,0,32.381,14.338,31.128,31.948A161.635,161.635,0,0,1,2041.695,3199.187Z" transform="translate(-1976.123 -3144.933)" fill="#f29ea0"/>
            <path id="Caminho_1353" data-name="Caminho 1353" d="M2023.307,3225.415s10.039-14.312,10.039-24.992v-14.677c0-9-7.737-17.4-7.737-17.4-.944,0-1.7,10.547-19.145,15.177-10.466,2.776-24.148-.165-24.148,19.12,0,9.642,2.272,14.508,7.466,22.1,0,0-21.206-5.231-21.206-39.2,0-11.785,9.573-42,35.8-42,18.75,0,39.563,12.828,39.563,42C2043.937,3202.459,2037.833,3220.737,2023.307,3225.415Z" transform="translate(-1968.576 -3143.544)" fill="#332a58"/>
          </g>
          <g id="Grupo_933" data-name="Grupo 933" transform="translate(83.938 87.147)">
            <path id="Caminho_1354" data-name="Caminho 1354" d="M2048.018,3343.546s18.316-10.546,26.8-8.007c0,0-4.716-11.7-13.327-13.376Z" transform="translate(-2021.228 -3322.163)" fill="#fff"/>
            <path id="Caminho_1355" data-name="Caminho 1355" d="M2019.9,3343.546s-18.316-10.546-26.791-8.007c0,0,4.219-11.7,12.824-13.376Z" transform="translate(-1993.107 -3322.163)" fill="#fff"/>
          </g>
          <g id="Grupo_939" data-name="Grupo 939" transform="translate(155.485 103.633)">
            <g id="Grupo_938" data-name="Grupo 938">
              <g id="Grupo_934" data-name="Grupo 934" transform="translate(3.46 107.617)">
                <path id="Caminho_1356" data-name="Caminho 1356" d="M2152.015,3642.716l13.3,1.6,3.622-67.791h-22.092Z" transform="translate(-2146.844 -3576.53)" fill="#b13feb"/>
              </g>
              <g id="Grupo_936" data-name="Grupo 936" transform="translate(1.99 173.804)">
                <g id="Grupo_935" data-name="Grupo 935">
                  <path id="Caminho_1357" data-name="Caminho 1357" d="M2154.3,3758.39h.007a9.907,9.907,0,0,1,.755-.7c3.4-2.816,5.829-5.142,6.127-7.615.237-1.93.448-3.311.7-5.476.25-2.018-1.315-7.4-2.807-7.58-1.44-.169-4.561,4.451-5.476,5.338a5.6,5.6,0,0,1-.589.495c1.88.7,5.1,2.99,1.873,10.129C2154.326,3754.229,2151.626,3756.1,2154.3,3758.39Z" transform="translate(-2148.535 -3724.905)" fill="#b13feb"/>
                  <path id="Caminho_1358" data-name="Caminho 1358" d="M2163.77,3713.792a89.388,89.388,0,0,1-.074,22.16c-.594,4.954-4.335,12.23-11.79,13.216-.769.111-2.763-.312-3.041-1.011-.352-.914-.225-1.76,1.488-3.177,3.4-2.816,5.829-5.143,6.127-7.615.237-1.93.448-3.311.7-5.476.25-2.019-1.314-7.4-2.807-7.58-1.439-.169-4.56,4.451-5.476,5.338-2.841,2.745-6.82,1.5-4.236-1.7,6.35-7.861,5.806-15.756,5.806-15.756Z" transform="translate(-2143.83 -3712.188)" fill="#b13feb"/>
                </g>
              </g>
              <g id="Grupo_937" data-name="Grupo 937">
                <path id="Caminho_1359" data-name="Caminho 1359" d="M2166.685,3394.492c1.591,8.978-1.381,55.685-1.381,69.079h-22.092s-1.118-50.948-1.343-53.982c-2.094-28.593-2.117-53.635-2.117-53.635S2161.559,3365.587,2166.685,3394.492Z" transform="translate(-2139.752 -3355.954)" fill="#b13feb"/>
              </g>
            </g>
          </g>
          <g id="Grupo_946" data-name="Grupo 946" transform="translate(0 102.47)">
            <g id="Grupo_945" data-name="Grupo 945">
              <g id="Grupo_940" data-name="Grupo 940" transform="translate(5.93)">
                <path id="Caminho_1360" data-name="Caminho 1360" d="M1898.443,3353.571s-41.793,36.8-65.224,56.41l21.107,16.233,37.284-24.931S1907.4,3364,1898.443,3353.571Z" transform="translate(-1833.219 -3353.571)" fill="#b13feb"/>
              </g>
              <g id="Grupo_941" data-name="Grupo 941" transform="translate(0 56.41)">
                <path id="Caminho_1361" data-name="Caminho 1361" d="M1826.994,3469.192s-11.464,16.233-2.513,31.9l23.62-15.662Z" transform="translate(-1821.064 -3469.192)" fill="#b13feb"/>
              </g>
              <g id="Grupo_943" data-name="Grupo 943" transform="translate(56.095 130.687)">
                <g id="Grupo_942" data-name="Grupo 942">
                  <path id="Caminho_1362" data-name="Caminho 1362" d="M1940.141,3623.762a127.667,127.667,0,0,1,37.2,8.457,2.632,2.632,0,0,1-.973,5.08,2.727,2.727,0,0,1-.958-.182,96.78,96.78,0,0,0-12.969-3.975c3.576,1.809,5.223,2.227,9.284,4.937a2.634,2.634,0,1,1-2.934,4.376c-4.483-3-6.525-3.579-10.38-5.436,2.961,2.633,3.868,3.079,6.632,7.014a2.628,2.628,0,1,1-4.3,3.016c-2.428-3.449-2.98-3.516-5.587-5.855,1.357,2.17,1.742,2.161,3.054,4.991a2.632,2.632,0,1,1-4.775,2.215c-1.062-2.3-1.178-1.832-2.254-3.619-1.152-1.942-6.118-5.7-9.747-7.294a10.7,10.7,0,0,1-5.107-4.715C1934.995,3629.266,1938.7,3623.638,1940.141,3623.762Z" transform="translate(-1936.039 -3622.625)" fill="#b13feb"/>
                  <path id="Caminho_1363" data-name="Caminho 1363" d="M1955.334,3622.571s4.529-1.529,7.824-1.043l-.878,2.549s-5.387-.481-7.125-.909Z" transform="translate(-1945.828 -3621.432)" fill="#b13feb"/>
                </g>
              </g>
              <g id="Grupo_944" data-name="Grupo 944" transform="translate(3.417 72.643)">
                <path id="Caminho_1364" data-name="Caminho 1364" d="M1851.688,3502.463l40.2,56.852s-2.635,12.952-12.06,15.786l-51.756-56.976Z" transform="translate(-1828.068 -3502.463)" fill="#b13feb"/>
              </g>
            </g>
          </g>
          <g id="Grupo_947" data-name="Grupo 947" transform="translate(144.159 291.071)">
            <path id="Caminho_1365" data-name="Caminho 1365" d="M2161.9,3762.766a4.852,4.852,0,0,1-4.852,4.849h0a4.85,4.85,0,0,1-4.85-4.849v-17.782a4.845,4.845,0,0,1,4.85-4.849h0a4.846,4.846,0,0,1,4.852,4.849Z" transform="translate(-2134.801 -3740.135)" fill="#92b8e2"/>
            <path id="Caminho_1366" data-name="Caminho 1366" d="M2161.04,3824.438c.958,15.645-12.71,19.423-20.9,19.423-15.535,0-23.6-6.087-23.6-19.423a98.755,98.755,0,0,1,4.117-27.6c0-8.386,3.685-15.181,8.228-15.181H2148.7c4.54,0,8.221,6.795,8.221,15.181A168.087,168.087,0,0,1,2161.04,3824.438Z" transform="translate(-2116.537 -3761.397)" fill="#332a58"/>
          </g>
        </g>
      </g>
    </g>
  </g>
</svg>
