<svg xmlns="http://www.w3.org/2000/svg" xmlns:xlink="http://www.w3.org/1999/xlink" width="190" height="191" viewBox="0 0 190 191">
  <defs>
    <clipPath id="clip-path">
      <ellipse id="Elipse_26" data-name="Elipse 26" cx="95" cy="95.5" rx="95" ry="95.5" transform="translate(-0.268)" fill="none"/>
    </clipPath>
  </defs>
  <g id="Grupo_970" data-name="Grupo 970" transform="translate(0.268)">
    <ellipse id="Elipse_25" data-name="Elipse 25" cx="95" cy="95.5" rx="95" ry="95.5" transform="translate(-0.268)" fill="#ebf3fa"/>
    <g id="Grupo_969" data-name="Grupo 969" transform="translate(0 0)">
      <g id="Grupo_968" data-name="Grupo 968" transform="translate(0 0)" clip-path="url(#clip-path)">
        <g id="Grupo_967" data-name="Grupo 967" transform="translate(14.196 23.248)">
          <path id="Caminho_1367" data-name="Caminho 1367" d="M3207.374,3324.668s14.544-8.143,38.017,7.6c20.183,13.548,18.437,84.575,5.06,106.364s-14.685,17.594-15.894,12.662C3224.408,3409.811,3225.153,3411.484,3207.374,3324.668Z" transform="translate(-3097.988 -3225.477)" fill="#332a58"/>
          <g id="Grupo_960" data-name="Grupo 960" transform="translate(0 7.853)">
            <g id="Grupo_954" data-name="Grupo 954" transform="translate(0 486.281)">
              <path id="Caminho_1368" data-name="Caminho 1368" d="M3007.689,4151.192s4.141,1.167,2.234,7.111-11.827,22.039-12.667,23c-5.092,5.846-14.6.259-14.062-4.42.75-6.479,5.953-23.871,11.3-25.695Z" transform="translate(-2983.173 -4143.959)" fill="#332a58"/>
              <g id="Grupo_953" data-name="Grupo 953" transform="translate(11.326)">
                <g id="Grupo_952" data-name="Grupo 952">
                  <path id="Caminho_1369" data-name="Caminho 1369" d="M3019.577,4147.206s-1.387,3.239-6.6,3.239a8.334,8.334,0,0,1-6.588-3.239v-10.838h13.189Z" transform="translate(-3006.388 -4136.367)" fill="#f29ea0"/>
                </g>
              </g>
            </g>
            <g id="Grupo_957" data-name="Grupo 957" transform="translate(97.305 486.281)">
              <path id="Caminho_1370" data-name="Caminho 1370" d="M3184.947,4153.307s-2.334,2.38-2.334,9.708c0,4.481,22.643,13.135,23.847,13.646,8.126,3.391,10.8-2.044,10.245-6.872-.771-6.671-13.011-14.4-18.725-16.482Z" transform="translate(-3182.613 -4145.042)" fill="#332a58"/>
              <g id="Grupo_956" data-name="Grupo 956" transform="translate(2.177)">
                <g id="Grupo_955" data-name="Grupo 955">
                  <path id="Caminho_1371" data-name="Caminho 1371" d="M3187.076,4147.206s1.38,3.239,6.6,3.239a8.335,8.335,0,0,0,6.587-3.239v-10.838h-13.19Z" transform="translate(-3187.076 -4136.367)" fill="#f29ea0"/>
                </g>
              </g>
            </g>
            <path id="Caminho_1372" data-name="Caminho 1372" d="M3010.3,3670.383s-15.834,76.859-20.015,120.541c-2.372,24.808,4.747,108.131,4.747,108.131h20.6s6.94-69.3,13.1-93.112c13.938-53.817,34.067-123.165,34.067-123.165l19.183,216.277h21s11.527-74.055,13.375-99.08c2.156-29.219,3-129.592,3-129.592Z" transform="translate(-2986.565 -3411.451)" fill="#bcbbbb"/>
            <path id="Caminho_1373" data-name="Caminho 1373" d="M3121.335,3393.119l23.943-5.03c-2.147-27.626-9.523-44.015-29.724-56.349-7.465-4.552-31.65-6.826-31.65-6.826h-24.157s-14.76-.346-26.8,6.432c-14.7,8.279-25.1,25.6-30.949,55.762l21.531,5.391s-8.407,68.284-10.784,99.177c-.565,7.332,6.094,20.711,20.2,20.711,20.2,0,18.731-6.985,27.919-12.681,5.872-3.637,10.426-6.244,17.242-6.244h30.309c7.954,0,14.39,1.668,17.186,0,1.746-1.045,4.5-21.878,4.411-23.463-1.815-33.58-2.276-26.707-8.684-76.905Z" transform="translate(-2992.815 -3234.532)" fill="#ffd269"/>
            <g id="Grupo_959" data-name="Grupo 959" transform="translate(48.635)">
              <g id="Grupo_958" data-name="Grupo 958">
                <path id="Caminho_1374" data-name="Caminho 1374" d="M3144.517,3293.18H3120.36v-30.237h24.157Z" transform="translate(-3102.062 -3202.797)" fill="#f29ea0"/>
                <path id="Caminho_1375" data-name="Caminho 1375" d="M3143.663,3184.046a29.159,29.159,0,0,1-29.173,29.159h0a29.161,29.161,0,0,1-29.164-29.159v-15.222a29.155,29.155,0,0,1,29.164-29.159h0a29.153,29.153,0,0,1,29.173,29.159Z" transform="translate(-3084.121 -3139.666)" fill="#f29ea0"/>
                <path id="Caminho_1376" data-name="Caminho 1376" d="M3082.882,3327.769c-.162,1.41.4,3.426,2.41,6.352,5.159,7.524,16.011,25.353,28.089,25.353s22.926-17.828,28.1-25.353c2.164-3.146,2.457-5.222,1.852-6.624-8.752-1.711-17.861-2.579-17.861-2.579h-24.918A63.921,63.921,0,0,0,3082.882,3327.769Z" transform="translate(-3082.856 -3234.535)" fill="#f29ea0"/>
              </g>
            </g>
          </g>
          <g id="Grupo_962" data-name="Grupo 962" transform="translate(2.549 151.05)">
            <path id="Caminho_1377" data-name="Caminho 1377" d="M2995.4,3452.568l21.126,5.161-6.169,51.989c-.811,5.737-7.226,10.88-12.955,10.074a10.466,10.466,0,0,1-8.9-11.833Z" transform="translate(-2988.398 -3443.104)" fill="#f29ea0"/>
            <path id="Caminho_1378" data-name="Caminho 1378" d="M2993.73,3525.163a10.482,10.482,0,0,0-3.983,14.265h0a10.473,10.473,0,0,0,14.268,3.99l49.23-34.03c5.041-2.836.63-10.463-4.412-7.632Z" transform="translate(-2988.399 -3467.975)" fill="#f29ea0"/>
            <g id="Grupo_961" data-name="Grupo 961" transform="translate(60.435)">
              <path id="Caminho_1379" data-name="Caminho 1379" d="M3124.011,3478.308l21.093,2.681,5.738-45.144-21.1-2.677Z" transform="translate(-3118.282 -3433.168)" fill="#332a58"/>
              <path id="Caminho_1380" data-name="Caminho 1380" d="M3116.681,3492.709s20.507.366,27.382-19.956c1.61-4.787-4.119-6.864-11.565,1.486-5.046,5.654-13.356,9.938-12.427,5.162.377-1.927,1.774-6.961-.448-7.82-3.405-1.322-7.353,13.5-7.353,13.5Z" transform="translate(-3112.269 -3451.296)" fill="#f29ea0"/>
            </g>
          </g>
          <g id="Grupo_964" data-name="Grupo 964" transform="translate(43.893 41.77)">
            <g id="Grupo_963" data-name="Grupo 963">
              <path id="Caminho_1381" data-name="Caminho 1381" d="M3205.467,3216.642c-1.087,3.207-3.89,5.167-6.274,4.364s-3.443-4.055-2.363-7.275,3.882-5.166,6.266-4.369S3206.545,3213.422,3205.467,3216.642Z" transform="translate(-3136.263 -3209.184)" fill="#f29ea0"/>
              <path id="Caminho_1382" data-name="Caminho 1382" d="M3073.56,3216.642c1.08,3.207,3.9,5.167,6.281,4.364s3.437-4.055,2.361-7.275-3.889-5.166-6.272-4.369S3072.482,3213.422,3073.56,3216.642Z" transform="translate(-3073.138 -3209.184)" fill="#f29ea0"/>
            </g>
          </g>
          <path id="Caminho_1383" data-name="Caminho 1383" d="M3127.057,3129.552c-28.528-15.648-41.793,4.346-41.793,4.346-8.312-.417-10.9,8.917-12.2,19.8-.628,5.316,3.375,18.067,3.6,19.033.8,3.328,1.427,6.164,2.607,7.079.007.018.034.084.034.084s.008-.052.017-.052c1.61,1.219,2.175.479,3.23-.731,2.984-3.427,2.8-7.917,4.552-13.778a50.451,50.451,0,0,0,1.526-7.036c.628-4.467,7.332-7.889,12.224-7.984a65.153,65.153,0,0,1,14.687,1.73c18.825,6.146,18.17,24.931,21.754,25.268,2.161.2,2.881-3.642,3.98-8.63C3143.7,3157.774,3146.943,3140.461,3127.057,3129.552Z" transform="translate(-3029.173 -3123.57)" fill="#332a58"/>
          <path id="Caminho_1384" data-name="Caminho 1384" d="M3212.288,3333.537s-15.8,75.016,10.829,107.489c0,0,2.388,4.955,1.251,14.368-.529,4.322-7.24,15.859-7.24,15.859s-44.887-66.039-23.084-143.459c0,0,3.5-2.33,10.117-.333C3208.931,3328.9,3212.288,3333.537,3212.288,3333.537Z" transform="translate(-3088.103 -3227.57)" fill="#332a58"/>
          <g id="Grupo_966" data-name="Grupo 966" transform="translate(115.811 161.575)">
            <g id="Grupo_965" data-name="Grupo 965">
              <path id="Caminho_1385" data-name="Caminho 1385" d="M3246.592,3459.582l23.193-4.842,10.862,56.709c1.648,5.546-2.046,12.9-7.59,14.532a10.47,10.47,0,0,1-13.032-7.059Z" transform="translate(-3233.883 -3454.74)" fill="#f29ea0"/>
              <path id="Caminho_1386" data-name="Caminho 1386" d="M3245.532,3561.082a11.743,11.743,0,0,1,15.833-5.016h0a11.735,11.735,0,0,1,5.013,15.817l-31.859,52.153c-2.988,5.756-16.534-4.346-13.55-10.094Z" transform="translate(-3220.543 -3505.953)" fill="#f29ea0"/>
            </g>
          </g>
        </g>
      </g>
    </g>
  </g>
</svg>
