<svg xmlns="http://www.w3.org/2000/svg" xmlns:xlink="http://www.w3.org/1999/xlink" width="190" height="191" viewBox="0 0 190 191">
  <defs>
    <clipPath id="clip-path">
      <ellipse id="Elipse_4" data-name="Elipse 4" cx="95" cy="95.5" rx="95" ry="95.5" transform="translate(-0.364 0)" fill="none"/>
    </clipPath>
  </defs>
  <g id="Grupo_722" data-name="Grupo 722" transform="translate(0.364)">
    <ellipse id="Elipse_3" data-name="Elipse 3" cx="95" cy="95.5" rx="95" ry="95.5" transform="translate(-0.364)" fill="#ebf3fa"/>
    <g id="Grupo_721" data-name="Grupo 721" transform="translate(0 0)">
      <g id="Grupo_720" data-name="Grupo 720" transform="translate(0 0)" clip-path="url(#clip-path)">
        <g id="Grupo_719" data-name="Grupo 719" transform="translate(14.42 23.248)">
          <g id="Grupo_716" data-name="Grupo 716" transform="translate(0.337)">
            <path id="Caminho_1095" data-name="Caminho 1095" d="M2638.9,3305.54H2619.55v-31.433H2638.9Z" transform="translate(-2534.509 -3200.661)" fill="#f29ea0"/>
            <path id="Caminho_1096" data-name="Caminho 1096" d="M2594.352,3311.694c16.026-5.539,44.954-4.566,52.078,0s-20.435,19.264-27.784,20.182S2594.352,3311.694,2594.352,3311.694Z" transform="translate(-2521.605 -3217.965)" fill="#f29ea0"/>
            <path id="Caminho_1097" data-name="Caminho 1097" d="M2488.933,3250.452c4.58-.175,12.566,6.158,9.734,9.354.917-1.034,2.491-2.161,3.675-1.356a2.592,2.592,0,0,1,.777,2.289,24.3,24.3,0,0,0,2.436,10.339c.144.3.284.6.446.9,4.616,8.375,8.589,17.014,13.123,25.423s9.9,16.158,13.839,24.819c1.149,2.526,2.3,5.052,3.418,7.588q1.751,3.967,3.4,7.966c1.3,3.138,3.957,8.25,3.346,11.7-.642,3.626-5.764,7.039-9.792,6.357-6.314-1.068-7.486-8.832-9.483-13.2q-4.143-9.069-8.3-18.134c-5.114-6.056-7.59-16.592-10.817-23.648-3.464-7.572-6.89-14.465-9.02-22.4a50.99,50.99,0,0,0-4.3-11.932c-1.512-2.7-3.533-5.205-4.53-8.088C2484.9,3252.653,2486.391,3250.549,2488.933,3250.452Z" transform="translate(-2466.102 -3188.546)" fill="#f29ea0"/>
            <g id="Grupo_713" data-name="Grupo 713" transform="translate(0.88 113.604)">
              <g id="Grupo_712" data-name="Grupo 712" transform="translate(2.61 1.455)">
                <path id="Caminho_1098" data-name="Caminho 1098" d="M2455.177,3399.726a2.362,2.362,0,0,1-.491-1.406,301.2,301.2,0,0,1-2.278-38.918q12.8,1.419,25.69,1.79c-.879,13.1-1.784,26.343-5.41,38.9a75.073,75.073,0,0,1-16.374.038A1.816,1.816,0,0,1,2455.177,3399.726Z" transform="translate(-2452.402 -3359.401)" fill="#cfb298"/>
                <path id="Caminho_1099" data-name="Caminho 1099" d="M2476.91,3394.2a.912.912,0,0,1,.484.378.994.994,0,0,1,.044.556q-.313,2.8-.626,5.6l-19.849-.362a46.575,46.575,0,0,1-.221-8.49,53.646,53.646,0,0,0,15.467,1.832A10.978,10.978,0,0,1,2476.91,3394.2Z" transform="translate(-2454.574 -3376.036)" fill="#3c7367"/>
              </g>
              <path id="Caminho_1100" data-name="Caminho 1100" d="M2447.052,3361.336q.006-2.448.012-4.9,15.291-.163,30.562.9-.218,1.937-.437,3.875a.642.642,0,0,1-.737.726C2466.642,3362.487,2456.73,3363.025,2447.052,3361.336Z" transform="translate(-2447.052 -3356.417)" fill="#7a6356"/>
            </g>
            <path id="Caminho_1101" data-name="Caminho 1101" d="M2572.405,3592.853a.785.785,0,0,0,0,1.569A.785.785,0,0,0,2572.405,3592.853Z" transform="translate(-2509.978 -3363.894)" fill="#292827"/>
            <g id="Grupo_714" data-name="Grupo 714" transform="translate(48.494 191.243)">
              <path id="Caminho_1102" data-name="Caminho 1102" d="M2563.292,3523.118a57.591,57.591,0,0,1,.529,34.617,8.277,8.277,0,0,0-.555,3.283c.246,2.163,2.188,3.609,4.023,4.6,9.222,4.962,19.954,5.474,30.3,5.5a414.24,414.24,0,0,0,49.85-2.9c1.9-2.327.62-5.851-.259-8.782-2.649-8.831-.657-18.35.273-27.562a5.688,5.688,0,0,0-.28-3.106,5.159,5.159,0,0,0-2.031-1.9,73.465,73.465,0,0,0-38.868-11.314,105.605,105.605,0,0,0-16.525,1.5A197.549,197.549,0,0,0,2563.292,3523.118Z" transform="translate(-2554.166 -3515.548)" fill="#f5e7d5"/>
              <path id="Caminho_1103" data-name="Caminho 1103" d="M2643.776,3740.936c-1.837-40.628,2.022-82.065,1.686-122.945a96.737,96.737,0,0,0-5.73-41.926,6.437,6.437,0,0,0-1.26-2.306c-1.91-1.966-5.176-.92-7.71.124-24.3,10.016-53,7.658-75.155-6.483-4.376,6.666-5.632,14.842-6.712,22.743-1.746,12.772-3.657,25.519-4.126,38.348,0,.024,0,.049-.006.073h0c-.1,2.754-.155,5.512-.1,8.275.3,15.99,3.392,31.746,5.8,47.506,1.573,10.281,2.957,20.634,3.089,31.05.108,8.525-1.088,16.317.819,24.664,4.7,20.554,4.709,42.948,6.7,63.948,2.127,22.49,4.227,44.983,5.966,67.505q.1,1.345.206,2.691c1.135.3,18.459,4.291,18.459-.2q2.084-65.574,4.167-131.15c.584-18.4,1.207-37.062,5.871-54.589l5.766.578L2633.2,3862.4c.93,5.094,2.058,10.59,5.416,13.872s9.627,2.363,10.62-2.714C2646.132,3829.353,2645.776,3785.164,2643.776,3740.936Z" transform="translate(-2544.642 -3542.101)" fill="#417183"/>
              <path id="Caminho_1104" data-name="Caminho 1104" d="M2731.49,3637.9c-.326-.792-1.626-.462-1.308.361a27.478,27.478,0,0,1,1.733,7.143c.1.927,1.557.933,1.458,0A27.067,27.067,0,0,0,2731.49,3637.9Z" transform="translate(-2639.633 -3577.974)" fill="#292827"/>
              <path id="Caminho_1105" data-name="Caminho 1105" d="M2739.4,3692.054c-.083-.849-1.416-.859-1.336,0q.24,2.588.481,5.176c.079.864,1.44.869,1.356,0Q2739.645,3694.642,2739.4,3692.054Z" transform="translate(-2643.691 -3605.61)" fill="#292827"/>
              <path id="Caminho_1106" data-name="Caminho 1106" d="M2738.674,3749.539a.693.693,0,0,0-1.386,0q-.005,2.807-.01,5.614a.7.7,0,0,0,1.406,0Q2738.679,3752.346,2738.674,3749.539Z" transform="translate(-2643.293 -3635.033)" fill="#292827"/>
              <path id="Caminho_1107" data-name="Caminho 1107" d="M2740.439,3814.163a.683.683,0,0,0-1.366,0l-.015,6.046a.7.7,0,0,0,1.4,0Z" transform="translate(-2644.204 -3668.133)" fill="#292827"/>
              <path id="Caminho_1108" data-name="Caminho 1108" d="M2737.071,3864.541c.1-.773-1.257-.956-1.361-.184a36.611,36.611,0,0,0-.265,7.549c.066.934,1.532.935,1.458,0A35.808,35.808,0,0,1,2737.071,3864.541Z" transform="translate(-2642.31 -3693.923)" fill="#292827"/>
              <path id="Caminho_1109" data-name="Caminho 1109" d="M2737.075,3925.645c.088-.883-1.288-.874-1.377,0a57.211,57.211,0,0,0-.2,9.089c.052.888,1.439.893,1.387,0A57.066,57.066,0,0,1,2737.075,3925.645Z" transform="translate(-2642.334 -3725.225)" fill="#292827"/>
              <path id="Caminho_1110" data-name="Caminho 1110" d="M2580.207,3900.784c.071-1.059-1.529-1.029-1.63,0a28.3,28.3,0,0,0,.375,7.553c.159.94,1.547.528,1.415-.39A34.141,34.141,0,0,1,2580.207,3900.784Z" transform="translate(-2561.964 -3712.43)" fill="#292827"/>
              <path id="Caminho_1111" data-name="Caminho 1111" d="M2572.491,3854.492c-.192-1.011-1.706-.576-1.532.422a25.74,25.74,0,0,1,.3,6.284c-.071.976,1.392.939,1.5,0A22.147,22.147,0,0,0,2572.491,3854.492Z" transform="translate(-2558.112 -3688.829)" fill="#292827"/>
              <path id="Caminho_1112" data-name="Caminho 1112" d="M2571.357,3799.917c.081-1.007-1.465-.989-1.559,0a25.886,25.886,0,0,0,.417,7.538c.177.891,1.462.494,1.337-.369A31.723,31.723,0,0,1,2571.357,3799.917Z" transform="translate(-2557.468 -3660.793)" fill="#292827"/>
              <path id="Caminho_1113" data-name="Caminho 1113" d="M2561.992,3738.006q.005,3.887.01,7.773a.709.709,0,0,0,1.417,0q.005-3.886.01-7.773A.719.719,0,0,0,2561.992,3738.006Z" transform="translate(-2553.527 -3629.115)" fill="#292827"/>
              <path id="Caminho_1114" data-name="Caminho 1114" d="M2560.117,3679.537q.014,4.1.026,8.2a.744.744,0,0,0,1.488,0q.013-4.1.025-8.2A.77.77,0,0,0,2560.117,3679.537Z" transform="translate(-2552.567 -3599.147)" fill="#292827"/>
              <path id="Caminho_1115" data-name="Caminho 1115" d="M2563.336,3614.545a11.184,11.184,0,0,0-1.4,5.988.729.729,0,0,0,1.457,0,10.5,10.5,0,0,1,1.24-5.227C2565.086,3614.447,2563.81,3613.692,2563.336,3614.545Z" transform="translate(-2553.495 -3566.053)" fill="#292827"/>
              <path id="Caminho_1116" data-name="Caminho 1116" d="M2729.136,4188.353a5.019,5.019,0,0,1,1.808,2.994,29.383,29.383,0,0,1,1.127,6.7,5.575,5.575,0,0,1-.927,4c-1,1.151-2.674,1.378-4.194,1.529l-18.274,1.817c-1.729.172-3.739.243-4.9-1.048-1.076-1.193-.93-3.017-.7-4.607a3.8,3.8,0,0,1,1.08-2.564,3.564,3.564,0,0,1,2-.574c3.249-.224,6.858.025,9.362-2.057,1.793-1.493,2.642-3.934,4.544-5.284,1.663-1.181,3.826-1.318,5.863-1.413A5.46,5.46,0,0,1,2729.136,4188.353Z" transform="translate(-2625.692 -3859.825)" fill="#303030"/>
              <path id="Caminho_1117" data-name="Caminho 1117" d="M2591.728,4188.387a5.342,5.342,0,0,1,1.924,3.188,31.26,31.26,0,0,1,1.2,7.132,5.935,5.935,0,0,1-.987,4.258c-1.067,1.226-2.848,1.468-4.465,1.628l-19.454,1.935c-1.841.183-3.98.258-5.22-1.116-1.146-1.271-.99-3.211-.744-4.906a4.049,4.049,0,0,1,1.15-2.729,3.8,3.8,0,0,1,2.127-.611c3.458-.237,7.3.027,9.966-2.19,1.909-1.589,2.812-4.187,4.838-5.625,1.771-1.258,4.073-1.4,6.242-1.5A5.822,5.822,0,0,1,2591.728,4188.387Z" transform="translate(-2554.456 -3859.824)" fill="#303030"/>
            </g>
            <path id="Caminho_1118" data-name="Caminho 1118" d="M2567.857,3315.823a46.718,46.718,0,0,0,9.4,5.445,39.058,39.058,0,0,0,40.087-6.47c8.81,3.1,15.1,11.2,18.333,20.2s3.818,18.76,4.368,28.349q3.863,67.311,7.727,134.622c.129,2.241.236,4.6-.722,6.614-1.946,4.091-7.151,4.922-11.56,5.177a550.636,550.636,0,0,1-89.408-2.091,7.969,7.969,0,0,1-3.547-.95c-2.3-1.477-2.605-4.746-2.652-7.542a970.254,970.254,0,0,1,6.319-127.636c1.8-15.5,4.043-31.224,10.458-45.363,1.307-2.88,2.878-5.792,5.436-7.566S2565.346,3313.979,2567.857,3315.823Z" transform="translate(-2493.644 -3221.5)" fill="#ff4571"/>
            <path id="Caminho_1119" data-name="Caminho 1119" d="M2638.457,3181.319a42.7,42.7,0,0,0-1.667-8.586c-3.081-9.707-14.455-23.406-26.073-18.386a23.918,23.918,0,0,0-7.023,5.262,48.76,48.76,0,0,0-5.96,6.812,29.678,29.678,0,0,0-5.382,16.313c-.033,5.34,1.867,10.853,3.68,15.813,2.4,6.574,5.784,13.4,11.994,16.632,8.264,4.3,19.1.3,24.66-7.172S2639.4,3190.587,2638.457,3181.319Z" transform="translate(-2520.581 -3138.782)" fill="#f29ea0"/>
            <path id="Caminho_1120" data-name="Caminho 1120" d="M2573.7,3345.5a7.413,7.413,0,0,0-3.168-1.906c-4.789-1.3-8.816,3.573-11.395,7.812-8.71,14.315-17.435,28.75-24.507,43.9a13.663,13.663,0,0,0-4.538-1.253c-17.766-2.7-32.575-4.517-52.223-6.676a17.486,17.486,0,0,1-2.142-.418,43.626,43.626,0,0,1-11.925-6.536,10.815,10.815,0,0,0-2.508-1.774,3.032,3.032,0,0,0-2.943.133,1.8,1.8,0,0,0-.3,2.669,18.687,18.687,0,0,0-6.979-1.163c-2.364.214-4.787,1.553-5.561,3.8-1.043,3.021,1.213,6.2,3.772,8.117,5.737,4.295,15.249,7.054,22.833,7.126a94.771,94.771,0,0,0,10.259,3.351l33.594,10.172c5.291,1.6,10.69,3.22,16.219,3.118a22.581,22.581,0,0,0,8.643-1.942c16.866-7.331,28.682-33.61,34.026-48.152C2577.34,3359.114,2578.87,3350.536,2573.7,3345.5Z" transform="translate(-2445.247 -3236.14)" fill="#f29ea0"/>
            <g id="Grupo_715" data-name="Grupo 715" transform="translate(58.618)">
              <path id="Caminho_1121" data-name="Caminho 1121" d="M2659.705,3181.063l-5.944-19.353c-2.97-9.675-6.137-19.7-12.825-27.07-12.494-13.762-34.53-13.978-50.3-4.6-4.5,2.678-8.74,6.132-11.362,10.8-5.038,8.974-3.165,20.328-.475,30.348s6.071,20.525,3.573,30.6c2.742-.105,5.031-2.453,6.048-5.121s1.019-5.622,1.021-8.493c.007-8.02.137-16.182,2.491-23.815s7.282-14.784,14.4-17.75a86.623,86.623,0,0,1,22.167,57.257,29.838,29.838,0,0,1,15.608-.289c2.116.534,4.227,1.308,6.4,1.21,4.589-.208,9.528-4.138,13.276-1.357C2664.2,3195.811,2661.938,3188.335,2659.705,3181.063Z" transform="translate(-2570.885 -3123.57)" fill="#303030"/>
              <path id="Caminho_1122" data-name="Caminho 1122" d="M2670.95,3264.116c3.9-2.2,5.1-9.474,2.21-13.392-2.332-3.335-.12-8.92,3.153-10.667s7.007-1,10.566-.752c6.622.457,13.227-.951,19.851-1.36a3.9,3.9,0,0,1,2.669.507c1.167.868,1.511,2.728,1.748,4.387q2.17,15.2,4.339,30.4c-.807,2.37-3.571,2.446-5.469,1.394s-3.628-2.845-5.705-2.947c-3.336-.162-6.111,4.116-9.425,3.622-1.547-.23-2.879-1.485-4.405-1.87-3.1-.785-6.489,2.1-9.351.424-.8-.472-1.469-1.27-2.3-1.672-1.464-.709-3.1-.056-4.583.6A59.143,59.143,0,0,1,2670.95,3264.116Z" transform="translate(-2619.45 -3182.129)" fill="#88b9ca"/>
              <path id="Caminho_1123" data-name="Caminho 1123" d="M2565.987,3272.262a4.469,4.469,0,0,1-.579-2.167c-.372-7.184,6.978-12.557,8.227-19.641.336-1.9.293-4.066,1.631-5.464,1.806-1.886,5.215-1.091,6.858.938s1.974,4.795,2.136,7.4c.34,5.45.134,11.255-2.811,15.853s-9.479,7.273-14.095,4.356A4.273,4.273,0,0,1,2565.987,3272.262Z" transform="translate(-2565.394 -3185.202)" fill="#88b9ca"/>
            </g>
            <path id="Caminho_1124" data-name="Caminho 1124" d="M2627.785,3333.168l-22.634,37.5c-2.357,3.906-4.782,7.892-8.311,10.784s-8.433,4.527-12.739,3.019c-2.053-.719-4.584-2.016-6.118-.473a4.566,4.566,0,0,0-.96,2.889q-1.695,18.529-3.39,37.06l39.1-4.491c1.833-.21,3.782-.469,5.2-1.656a9.53,9.53,0,0,0,2.271-3.494q13.116-28.692,26.232-57.383c2.823-6.176,5.454-14.044,1.027-19.194C2642.942,3332.475,2634.656,3334.086,2627.785,3333.168Z" transform="translate(-2510.995 -3230.907)" fill="#ff4571"/>
            <path id="Caminho_1125" data-name="Caminho 1125" d="M2685.268,3482.8c.2-14.067-2.3-28.178-5.823-41.733-.687-2.645-2.973-3.932-5.51-4.2-.348-.036-.651.006-.987-.009a45.272,45.272,0,0,0,.774-9.606c.23-18.428-1.775-36.847-4.9-54.983-2.173-12.6-4.146-26.967-14.167-35.89-5.367-4.779-15.371-4.135-20.115,1.3-9.069,10.389-14.974,24.307-18.776,39.209,2.294-1.738,4.611-3.445,7.02-5.041a3.791,3.791,0,0,1,2.3-.6,4.236,4.236,0,0,1,2.3-.58,161.217,161.217,0,0,1,9.107-21l15.265-1.974a35.986,35.986,0,0,1,3.631,9.694c2.1,7.668,3.23,15.694,4.486,23.531a298.321,298.321,0,0,1,3.3,46.339c.052,16.393-24.731,5.276-41.506,4.294a4.179,4.179,0,0,0-1.824-.064,26.172,26.172,0,0,0-3.657.194c.063-1.624.2-3.247.3-4.871a33.82,33.82,0,0,1-6.975-2.236c-.12,3.175-.2,6.289-.238,9.261a3.287,3.287,0,0,0,.152.8,8.243,8.243,0,0,0-1.285,1.63c-4.866,8.307-4.375,22.278-5.388,31.706a450.2,450.2,0,0,0-2.212,51.169,5.746,5.746,0,0,0,5.682,5.682c21.065.261,56.325,2.9,73.572-11.471C2686.766,3507.546,2685.161,3490.32,2685.268,3482.8Zm-10.321,3.807c-.221-.681-.488-1.346-.73-2.018.261-.331.579-.635.807-.982.039,1.032.033,2.03.036,3.036C2675.021,3486.636,2674.986,3486.612,2674.947,3486.607Z" transform="translate(-2524.766 -3230.907)" fill="#e6e6e6"/>
          </g>
          <g id="Grupo_718" data-name="Grupo 718" transform="translate(0 37.312)">
            <g id="Grupo_717" data-name="Grupo 717">
              <path id="Caminho_1126" data-name="Caminho 1126" d="M2461.847,3200.473a144.453,144.453,0,0,0-17.291,6.437c.357,2.71,1.958,5.052,3.112,7.529,5.444,11.7,9.615,24.15,15.133,34.772,7.635.447,12.453-8.541,19.785-10.715-.88-7.677-4.422-14.759-7.907-21.656l-6.81-13.476c-.66-1.308-1.459-2.737-2.857-3.177A5.446,5.446,0,0,0,2461.847,3200.473Z" transform="translate(-2444.556 -3200.047)" fill="#4d4d4d"/>
              <path id="Caminho_1127" data-name="Caminho 1127" d="M2472.268,3215.79a86.825,86.825,0,0,0-10.973,4.464c.227,1.879,1.385,3.438,1.975,5.222,3.151,9.528,5.812,16.786,9.6,24.115,4.845.31,7.9-5.923,12.556-7.431-.559-5.324-2.806-10.236-5.018-15.019q-2.161-4.674-4.321-9.346c-.419-.907-.926-1.9-1.813-2.2A3.186,3.186,0,0,0,2472.268,3215.79Z" transform="translate(-2453.128 -3207.958)" fill="#e6e6e6"/>
            </g>
            <path id="Caminho_1128" data-name="Caminho 1128" d="M2474.54,3233.283a5.374,5.374,0,0,0,3.986,8.721,3.821,3.821,0,0,0,1.609-.247,4.811,4.811,0,0,0,1.315-.88,7.13,7.13,0,0,0,2.031-2.7,5.129,5.129,0,0,0-1.039-5.239,5.264,5.264,0,0,0-7.9.342Z" transform="translate(-2459.307 -3216.064)" fill="#7d7c9b"/>
            <path id="Caminho_1129" data-name="Caminho 1129" d="M2490.813,3255.6c-1.937.988-3.88,2.011-5.753,3.113a.621.621,0,0,0,.477,1.129c2.062-.663,4.111-1.433,6.129-2.221A1.1,1.1,0,1,0,2490.813,3255.6Z" transform="translate(-2465.149 -3228.419)" fill="#9f8a8a"/>
            <path id="Caminho_1130" data-name="Caminho 1130" d="M2493.143,3265.64a15.563,15.563,0,0,0-4.415,3.394.621.621,0,0,0,.749.97,38.47,38.47,0,0,1,4.837-2.358C2495.665,3267.068,2494.5,3264.968,2493.143,3265.64Z" transform="translate(-2467.089 -3233.571)" fill="#9f8a8a"/>
          </g>
        </g>
      </g>
    </g>
  </g>
</svg>
