<svg xmlns="http://www.w3.org/2000/svg" xmlns:xlink="http://www.w3.org/1999/xlink" width="190" height="191" viewBox="0 0 190 191">
  <defs>
    <clipPath id="clip-path">
      <ellipse id="Elipse_6" data-name="Elipse 6" cx="95" cy="95.5" rx="95" ry="95.5" transform="translate(-0.01 0)" fill="none"/>
    </clipPath>
  </defs>
  <g id="Grupo_745" data-name="Grupo 745" transform="translate(0.01)">
    <ellipse id="Elipse_5" data-name="Elipse 5" cx="95" cy="95.5" rx="95" ry="95.5" transform="translate(-0.01)" fill="#ebf3fa"/>
    <g id="Grupo_744" data-name="Grupo 744" transform="translate(0 0)">
      <g id="Grupo_743" data-name="Grupo 743" clip-path="url(#clip-path)">
        <g id="Grupo_742" data-name="Grupo 742" transform="translate(31.817 25.879)">
          <g id="Grupo_729" data-name="Grupo 729" transform="translate(20.921 425.633)">
            <g id="Grupo_725" data-name="Grupo 725">
              <path id="Caminho_1131" data-name="Caminho 1131" d="M-3132.044,4086.294s3.867,1.087,2.078,6.639-11.026,20.546-11.81,21.446c-4.748,5.445-13.61.237-13.109-4.139.7-6.028,5.55-22.257,10.531-23.945Z" transform="translate(3154.906 -4046.317)" fill="#332a58"/>
              <g id="Grupo_724" data-name="Grupo 724" transform="translate(10.552)">
                <g id="Grupo_723" data-name="Grupo 723">
                  <path id="Caminho_1132" data-name="Caminho 1132" d="M-3120.969,4047.688s-1.292,3.02-6.156,3.02a7.8,7.8,0,0,1-6.154-3.02v-43.333h12.31Z" transform="translate(3133.278 -4004.355)" fill="#f29ea0"/>
                </g>
              </g>
            </g>
            <g id="Grupo_728" data-name="Grupo 728" transform="translate(73.432)">
              <path id="Caminho_1133" data-name="Caminho 1133" d="M-3002.215,4088.239s-2.181,2.228-2.181,9.054c0,4.189,21.11,12.259,22.243,12.731,7.571,3.159,10.066-1.907,9.545-6.4-.711-6.225-12.116-13.438-17.451-15.386Z" transform="translate(3004.396 -4047.313)" fill="#332a58"/>
              <g id="Grupo_727" data-name="Grupo 727" transform="translate(2.036)">
                <g id="Grupo_726" data-name="Grupo 726">
                  <path id="Caminho_1134" data-name="Caminho 1134" d="M-3000.222,4047.688s1.281,3.02,6.153,3.02a7.779,7.779,0,0,0,6.147-3.02v-43.333h-12.3Z" transform="translate(3000.222 -4004.355)" fill="#f29ea0"/>
                </g>
              </g>
            </g>
          </g>
          <path id="Caminho_1135" data-name="Caminho 1135" d="M-3072.43,3770.66s-20.73-153.609-29.319-217.849c-1.827-13.679-8.286-21.317-8.286-21.317h-51.9s-5.774,4.884-7.991,22.649c-6.068,48.555-27.86,216.517-27.86,216.517s33.3,13.492,62.611,13.492C-3113.194,3784.152-3072.43,3770.66-3072.43,3770.66Z" transform="translate(3197.787 -3336.566)" fill="#332a58"/>
          <g id="Grupo_730" data-name="Grupo 730" transform="translate(60.969 219.783)">
            <path id="Caminho_1136" data-name="Caminho 1136" d="M-3069.4,3584.157a1.712,1.712,0,0,1-1.715,1.707,1.715,1.715,0,0,1-1.7-1.707,1.717,1.717,0,0,1,1.7-1.719A1.714,1.714,0,0,1-3069.4,3584.157Z" transform="translate(3072.823 -3582.438)" fill="#fff"/>
            <path id="Caminho_1137" data-name="Caminho 1137" d="M-3069.4,3637.827a1.705,1.705,0,0,1-1.715,1.7,1.708,1.708,0,0,1-1.7-1.7,1.714,1.714,0,0,1,1.7-1.716A1.711,1.711,0,0,1-3069.4,3637.827Z" transform="translate(3072.823 -3609.925)" fill="#fff"/>
            <path id="Caminho_1138" data-name="Caminho 1138" d="M-3069.4,3691.486a1.7,1.7,0,0,1-1.715,1.707,1.707,1.707,0,0,1-1.7-1.707,1.716,1.716,0,0,1,1.7-1.711A1.713,1.713,0,0,1-3069.4,3691.486Z" transform="translate(3072.823 -3637.406)" fill="#fff"/>
            <path id="Caminho_1139" data-name="Caminho 1139" d="M-3069.4,3745.16a1.709,1.709,0,0,1-1.715,1.707,1.712,1.712,0,0,1-1.7-1.707,1.71,1.71,0,0,1,1.7-1.711A1.707,1.707,0,0,1-3069.4,3745.16Z" transform="translate(3072.823 -3664.893)" fill="#fff"/>
            <path id="Caminho_1140" data-name="Caminho 1140" d="M-3069.4,3798.815a1.714,1.714,0,0,1-1.715,1.716,1.717,1.717,0,0,1-1.7-1.716,1.713,1.713,0,0,1,1.7-1.711A1.71,1.71,0,0,1-3069.4,3798.815Z" transform="translate(3072.823 -3692.37)" fill="#fff"/>
            <path id="Caminho_1141" data-name="Caminho 1141" d="M-3069.4,3852.479a1.705,1.705,0,0,1-1.715,1.7,1.708,1.708,0,0,1-1.7-1.7,1.717,1.717,0,0,1,1.7-1.72A1.714,1.714,0,0,1-3069.4,3852.479Z" transform="translate(3072.823 -3719.847)" fill="#fff"/>
            <path id="Caminho_1142" data-name="Caminho 1142" d="M-3069.4,3906.135a1.708,1.708,0,0,1-1.715,1.716,1.711,1.711,0,0,1-1.7-1.716,1.707,1.707,0,0,1,1.7-1.7A1.7,1.7,0,0,1-3069.4,3906.135Z" transform="translate(3072.823 -3747.335)" fill="#fff"/>
            <path id="Caminho_1143" data-name="Caminho 1143" d="M-3069.4,3959.8a1.71,1.71,0,0,1-1.715,1.711,1.713,1.713,0,0,1-1.7-1.711,1.709,1.709,0,0,1,1.7-1.707A1.706,1.706,0,0,1-3069.4,3959.8Z" transform="translate(3072.823 -3774.816)" fill="#fff"/>
            <path id="Caminho_1144" data-name="Caminho 1144" d="M-3069.4,4013.463a1.706,1.706,0,0,1-1.715,1.706,1.709,1.709,0,0,1-1.7-1.706,1.72,1.72,0,0,1,1.7-1.72A1.717,1.717,0,0,1-3069.4,4013.463Z" transform="translate(3072.823 -3802.289)" fill="#fff"/>
          </g>
          <path id="Caminho_1145" data-name="Caminho 1145" d="M-3071.577,3290.145h-22.535v-28.2h22.535Z" transform="translate(3144.695 -3198.53)" fill="#f29ea0"/>
          <g id="Grupo_732" data-name="Grupo 732" transform="translate(50.582 63.42)">
            <g id="Grupo_731" data-name="Grupo 731">
              <path id="Caminho_1146" data-name="Caminho 1146" d="M-3094.112,3276.151a26.96,26.96,0,0,0,11.267,2.5,27.034,27.034,0,0,0,11.269-2.5v-14.2h-22.535Z" transform="translate(3094.112 -3261.95)" fill="#f29ea0"/>
            </g>
          </g>
          <g id="Grupo_734" data-name="Grupo 734" transform="translate(29.097 38.961)">
            <g id="Grupo_733" data-name="Grupo 733">
              <path id="Caminho_1147" data-name="Caminho 1147" d="M-3014.743,3218.766c-1.016,3-3.629,4.821-5.853,4.072s-3.213-3.787-2.206-6.782,3.627-4.821,5.853-4.068S-3013.736,3215.771-3014.743,3218.766Z" transform="translate(3079.281 -3211.819)" fill="#f29ea0"/>
              <path id="Caminho_1148" data-name="Caminho 1148" d="M-3137.753,3218.766c1.009,3,3.627,4.821,5.855,4.072s3.21-3.787,2.2-6.782-3.627-4.821-5.853-4.068S-3138.762,3215.771-3137.753,3218.766Z" transform="translate(3138.149 -3211.819)" fill="#f29ea0"/>
            </g>
          </g>
          <path id="Caminho_1149" data-name="Caminho 1149" d="M-3072.371,3188.357a27.2,27.2,0,0,1-27.2,27.2h0a27.2,27.2,0,0,1-27.2-27.2v-14.192a27.2,27.2,0,0,1,27.2-27.2h0a27.2,27.2,0,0,1,27.2,27.2Z" transform="translate(3161.417 -3139.646)" fill="#f29ea0"/>
          <g id="Grupo_736" data-name="Grupo 736" transform="translate(8.641 141.895)">
            <g id="Grupo_735" data-name="Grupo 735">
              <path id="Caminho_1150" data-name="Caminho 1150" d="M-3151.5,3425.924l-19.486-3.128-8.753,46.136c-1.368,4.594,1.693,10.694,6.294,12.057a8.693,8.693,0,0,0,10.794-5.855Z" transform="translate(3180.074 -3422.795)" fill="#f29ea0"/>
              <path id="Caminho_1151" data-name="Caminho 1151" d="M-3161.7,3509.162a9.726,9.726,0,0,0-13.122-4.161h0a9.722,9.722,0,0,0-4.153,13.122l22.4,28.526c2.483,4.763,13.716-3.6,11.243-8.368Z" transform="translate(3180.077 -3464.332)" fill="#f29ea0"/>
            </g>
          </g>
          <g id="Grupo_741" data-name="Grupo 741" transform="translate(16.404 91.616)">
            <path id="Caminho_1152" data-name="Caminho 1152" d="M-3143.862,3423.053h51.9l-.543-49.464,19.34-2.321c-1.753-19.094-8.152-31.253-14.956-38.935-9.29-10.476-19.334-12.593-19.334-12.593h-22.536s-26.086,6.364-34.178,50.28l20.683,2.994Z" transform="translate(3164.165 -3319.741)" fill="#e94e5d"/>
            <g id="Grupo_740" data-name="Grupo 740" transform="translate(71.58 51.527)">
              <g id="Grupo_739" data-name="Grupo 739">
                <path id="Caminho_1153" data-name="Caminho 1153" d="M-2999.967,3425.353l-17.485,2.4,5.111,45.623c.668,4.75,5.984,9.014,10.743,8.345a8.679,8.679,0,0,0,7.379-9.817Z" transform="translate(3017.451 -3425.353)" fill="#f29ea0"/>
                <g id="Grupo_738" data-name="Grupo 738" transform="translate(4.355 38.68)">
                  <path id="Caminho_1154" data-name="Caminho 1154" d="M-3006.848,3513.189a9.061,9.061,0,0,1,9.562-8.542h0a9.069,9.069,0,0,1,8.549,9.562l-7.39,48.773c-.283,5.013-7.9,4.492-7.615-.508Z" transform="translate(3007.666 -3504.632)" fill="#f29ea0"/>
                  <g id="Grupo_737" data-name="Grupo 737" transform="translate(0 57.842)">
                    <path id="Caminho_1155" data-name="Caminho 1155" d="M-2996.986,3623.7s7.194,9.669-3.527,22.707c-2.779,3.377-6.624,1.84-2.977-7.138,2.473-6.082,1.974-10.172-1.393-7.642-1.356,1.034-1.486,1.934-2.751,1.8-3.144-.348,3.032-10.231,3.032-10.231Z" transform="translate(3008.526 -3623.188)" fill="#f29ea0"/>
                  </g>
                </g>
              </g>
            </g>
          </g>
          <path id="Caminho_1156" data-name="Caminho 1156" d="M-3138.135,3252.589c1.134,5.312,13.662,19.521,25.534.646,5.752-9.143-7.228-27.332-13.927-29.658l.12-18.148s-12.038-4.238-15.769-20.942c0,0,11.233-10.912,11.233-21.469,1.638,2.059,22.079,11.1,34.893,11.1,4.058,0,7.945,7.962,7.945,7.962-3.859,18.849-15.887,23.326-15.887,23.326v18.166c0,11.924,6.233,29.658,17.836,29.658,23.914,0,14.488-21.9,7.974-40.352-6.189-17.5-4.521-51.5-4.521-51.5a.6.6,0,0,0-.013.08c-.009-8.319-2.984-17.364-14.947-23.928-26.6-14.592-38.966,4.055-38.966,4.055-6.243-.312-8.991,5.293-10.475,12.77l-.011-.081a.778.778,0,0,1,.011.1c-.359,1.818-.666,3.7-.9,5.686a23.793,23.793,0,0,0,.519,6.282,76.524,76.524,0,0,1-5.458,21.1c-9.21,21.762-1.845,37.633,7.37,47.383C-3139.652,3241.085-3139.312,3247.132-3138.135,3252.589Z" transform="translate(3176.989 -3131.962)" fill="#332a58"/>
        </g>
      </g>
    </g>
  </g>
</svg>
