<svg xmlns="http://www.w3.org/2000/svg" xmlns:xlink="http://www.w3.org/1999/xlink" width="190" height="191" viewBox="0 0 190 191">
  <defs>
    <clipPath id="clip-path">
      <ellipse id="Elipse_10" data-name="Elipse 10" cx="95" cy="95.5" rx="95" ry="95.5" transform="translate(0.354)" fill="none"/>
    </clipPath>
  </defs>
  <g id="Grupo_796" data-name="Grupo 796" transform="translate(-0.354)">
    <ellipse id="Elipse_9" data-name="Elipse 9" cx="95" cy="95.5" rx="95" ry="95.5" transform="translate(0.354)" fill="#ebf3fa"/>
    <g id="Grupo_795" data-name="Grupo 795" transform="translate(0 0)">
      <g id="Grupo_794" data-name="Grupo 794" transform="translate(0)" clip-path="url(#clip-path)">
        <g id="Grupo_793" data-name="Grupo 793" transform="translate(28.628 22.188)">
          <g id="Grupo_791" data-name="Grupo 791" transform="translate(2.525 4.429)">
            <path id="Caminho_1180" data-name="Caminho 1180" d="M-1989.189,3502.918s46.483,48.292,17.663,88.773C-1971.526,3591.691-2013.153,3529.395-1989.189,3502.918Z" transform="translate(2080.195 -3322.183)" fill="#ffd269"/>
            <g id="Grupo_790" data-name="Grupo 790">
              <g id="Grupo_777" data-name="Grupo 777" transform="translate(21.646 312.085)">
                <g id="Grupo_773" data-name="Grupo 773">
                  <path id="Caminho_1181" data-name="Caminho 1181" d="M-2099.9,4092.733s4,1.118,2.15,6.862c-1.833,5.73-11.4,21.253-12.216,22.186-4.908,5.622-14.073.236-13.557-4.283.719-6.247,5.741-23.019,10.9-24.766Z" transform="translate(2123.547 -3936.316)" fill="#e94e5d"/>
                  <g id="Grupo_772" data-name="Grupo 772" transform="translate(10.917)">
                    <g id="Grupo_771" data-name="Grupo 771">
                      <path id="Caminho_1182" data-name="Caminho 1182" d="M-2088.445,3932.015s-1.341,3.124-6.37,3.124a8.046,8.046,0,0,1-6.357-3.124V3772.136h34.038s-5.567,57.618-7.679,76.773C-2077.1,3869.735-2088.445,3932.015-2088.445,3932.015Z" transform="translate(2101.171 -3772.136)" fill="#f29ea0"/>
                    </g>
                  </g>
                </g>
                <g id="Grupo_776" data-name="Grupo 776" transform="translate(44.955)">
                  <path id="Caminho_1183" data-name="Caminho 1183" d="M-1988.944,4094.752s-2.26,2.3-2.26,9.362c0,4.326,21.836,12.672,23.017,13.163,7.833,3.27,10.413-1.974,9.871-6.626-.742-6.434-12.539-13.888-18.057-15.9Z" transform="translate(2010.817 -3937.351)" fill="#e94e5d"/>
                  <g id="Grupo_775" data-name="Grupo 775">
                    <g id="Grupo_774" data-name="Grupo 774">
                      <path id="Caminho_1184" data-name="Caminho 1184" d="M-2009.674,3932.015s1.325,3.124,6.356,3.124a8.037,8.037,0,0,0,6.358-3.124V3772.136h-34.446s5.565,65.6,7.833,87.4C-2021.647,3877.886-2009.674,3932.015-2009.674,3932.015Z" transform="translate(2031.405 -3772.136)" fill="#f29ea0"/>
                    </g>
                  </g>
                </g>
              </g>
              <path id="Caminho_1185" data-name="Caminho 1185" d="M-2038.249,3662.39s-21.444-28.21-30.329-94.655c-1.891-14.142-8.575-22.038-8.575-22.038h-53.681s-5.967,5.048-8.261,23.419c-6.28,50.221-28.818,93.273-28.818,93.273s34.452,13.96,64.761,13.96C-2080.414,3676.35-2038.249,3662.39-2038.249,3662.39Z" transform="translate(2167.913 -3344.09)" fill="#332a58"/>
              <g id="Grupo_778" data-name="Grupo 778" transform="translate(63.061 227.313)">
                <path id="Caminho_1186" data-name="Caminho 1186" d="M-2035.121,3600.157a1.759,1.759,0,0,1-1.771,1.76,1.757,1.757,0,0,1-1.769-1.76,1.763,1.763,0,0,1,1.769-1.773A1.764,1.764,0,0,1-2035.121,3600.157Z" transform="translate(2038.661 -3598.384)" fill="#fff"/>
                <path id="Caminho_1187" data-name="Caminho 1187" d="M-2035.121,3655.657a1.763,1.763,0,0,1-1.771,1.764,1.761,1.761,0,0,1-1.769-1.764,1.769,1.769,0,0,1,1.769-1.774A1.771,1.771,0,0,1-2035.121,3655.657Z" transform="translate(2038.661 -3626.805)" fill="#fff"/>
                <path id="Caminho_1188" data-name="Caminho 1188" d="M-2035.121,3711.156a1.77,1.77,0,0,1-1.771,1.766,1.768,1.768,0,0,1-1.769-1.766,1.771,1.771,0,0,1,1.769-1.782A1.772,1.772,0,0,1-2035.121,3711.156Z" transform="translate(2038.661 -3655.223)" fill="#fff"/>
                <path id="Caminho_1189" data-name="Caminho 1189" d="M-2035.121,3766.671a1.762,1.762,0,0,1-1.771,1.76,1.761,1.761,0,0,1-1.769-1.76,1.762,1.762,0,0,1,1.769-1.769A1.764,1.764,0,0,1-2035.121,3766.671Z" transform="translate(2038.661 -3683.659)" fill="#fff"/>
              </g>
              <path id="Caminho_1190" data-name="Caminho 1190" d="M-2037.365,3296.067h-23.3v-29.159h23.3Z" transform="translate(2112.991 -3201.32)" fill="#f29ea0"/>
              <g id="Grupo_780" data-name="Grupo 780" transform="translate(52.325 65.588)">
                <g id="Grupo_779" data-name="Grupo 779">
                  <path id="Caminho_1191" data-name="Caminho 1191" d="M-2060.666,3281.6a27.9,27.9,0,0,0,11.643,2.588,27.932,27.932,0,0,0,11.658-2.588v-14.687h-23.3Z" transform="translate(2060.666 -3266.908)" fill="#f29ea0"/>
                </g>
              </g>
              <g id="Grupo_782" data-name="Grupo 782" transform="translate(30.103 40.287)">
                <g id="Grupo_781" data-name="Grupo 781">
                  <path id="Caminho_1192" data-name="Caminho 1192" d="M-1978.588,3222.233c-1.04,3.1-3.747,4.991-6.051,4.216s-3.32-3.913-2.278-7.018,3.747-4.986,6.051-4.206S-1977.543,3219.141-1978.588,3222.233Z" transform="translate(2045.33 -3215.049)" fill="#f29ea0"/>
                  <path id="Caminho_1193" data-name="Caminho 1193" d="M-2105.8,3222.233c1.036,3.1,3.754,4.991,6.049,4.216s3.319-3.913,2.276-7.018-3.749-4.986-6.044-4.206S-2106.845,3219.141-2105.8,3222.233Z" transform="translate(2106.213 -3215.049)" fill="#f29ea0"/>
                </g>
              </g>
              <path id="Caminho_1194" data-name="Caminho 1194" d="M-2038.188,3190.788a28.124,28.124,0,0,1-28.136,28.125h0a28.126,28.126,0,0,1-28.125-28.125v-14.682a28.138,28.138,0,0,1,28.125-28.135h0a28.135,28.135,0,0,1,28.136,28.135Z" transform="translate(2130.292 -3140.411)" fill="#f29ea0"/>
              <g id="Grupo_784" data-name="Grupo 784" transform="translate(8.942 146.751)">
                <g id="Grupo_783" data-name="Grupo 783">
                  <path id="Caminho_1195" data-name="Caminho 1195" d="M-2120.038,3436.5l-20.147-3.235-9.063,47.717c-1.411,4.754,1.76,11.059,6.51,12.467a8.984,8.984,0,0,0,11.171-6.06Z" transform="translate(2149.586 -3433.263)" fill="#f29ea0"/>
                  <path id="Caminho_1196" data-name="Caminho 1196" d="M-2130.576,3522.585a10.064,10.064,0,0,0-13.57-4.309h0a10.062,10.062,0,0,0-4.307,13.568l23.179,29.511c2.559,4.933,14.174-3.725,11.619-8.653Z" transform="translate(2149.586 -3476.218)" fill="#f29ea0"/>
                </g>
              </g>
              <g id="Grupo_789" data-name="Grupo 789" transform="translate(16.964 94.738)">
                <path id="Caminho_1197" data-name="Caminho 1197" d="M-2112.133,3433.533h53.03l.083-51.153,20.011-2.411c-1.815-19.753-8.432-32.331-15.481-40.267-9.6-10.836-19.991-13.029-19.991-13.029h-23.3s-26.985,6.586-35.362,52l21.4,3.1Z" transform="translate(2133.144 -3326.664)" fill="#ff4571"/>
                <g id="Grupo_788" data-name="Grupo 788" transform="translate(74.042 53.305)">
                  <g id="Grupo_787" data-name="Grupo 787">
                    <path id="Caminho_1198" data-name="Caminho 1198" d="M-1963.305,3435.911l-18.08,2.473,5.281,47.192c.7,4.914,6.2,9.33,11.113,8.635a8.987,8.987,0,0,0,7.642-10.155Z" transform="translate(1981.385 -3435.911)" fill="#f29ea0"/>
                    <g id="Grupo_786" data-name="Grupo 786" transform="translate(4.503 39.998)">
                      <path id="Caminho_1199" data-name="Caminho 1199" d="M-1970.407,3526.747a9.368,9.368,0,0,1,9.883-8.841h0a9.4,9.4,0,0,1,8.842,9.9l-7.644,50.444c-.292,5.168-8.163,4.634-7.874-.53Z" transform="translate(1971.26 -3517.891)" fill="#f29ea0"/>
                      <g id="Grupo_785" data-name="Grupo 785" transform="translate(0 59.83)">
                        <path id="Caminho_1200" data-name="Caminho 1200" d="M-1960.221,3641.052s7.445,9.99-3.646,23.482c-2.874,3.493-6.855,1.894-3.078-7.392,2.553-6.287,2.043-10.52-1.439-7.891-1.4,1.06-1.542,1.987-2.849,1.845-3.253-.352,3.139-10.574,3.139-10.574Z" transform="translate(1972.156 -3640.522)" fill="#f29ea0"/>
                      </g>
                    </g>
                  </g>
                </g>
                <path id="Caminho_1201" data-name="Caminho 1201" d="M-2072.7,3326.664s-2.736-.258-6.552,1.965c-1.531.9-4.391,2.66-4.935,4.389,4.9,20.542,23.979,86.576,50.154,100.505a19.221,19.221,0,0,0,1.912-3.614,17.346,17.346,0,0,0-1.406-11.3c-22.905-29.488-35.136-76.461-38.7-91.946Z" transform="translate(2108.071 -3326.654)" fill="#ffd269"/>
              </g>
              <path id="Caminho_1202" data-name="Caminho 1202" d="M-2041.748,3285.959c-4.064-4.808-8.674-21.231-1.633-36.756s4.384-36.983.269-51.14-5.761-35.16-5.761-35.16a.414.414,0,0,1-.016.08c0-8.6-3.079-17.957-15.457-24.734-27.5-15.1-40.3,4.184-40.3,4.184-6.452-.316-9.309,5.476-10.832,13.212l-.011-.089a.908.908,0,0,0,.011.112q-.564,2.807-.936,5.872a25.029,25.029,0,0,0,.537,6.506,79.085,79.085,0,0,1-5.641,21.811c-9.525,22.511-1.906,38.944,7.621,49,15.362,16.242,4.235,30.354-2.58,41.787s-1.856,28.179,9.208,32.26,26.555-2.481,22.748-15.782c-3.46-12.04-4.066-20.693-.52-31.315s-.212-32.809-9.154-38.588l.125-18.772s-12.459-4.38-16.318-21.651c0,0-.535-7.954,6.334-11.9,6.2-3.551,5.378-7.441,5.289-10.307,1.7,2.126,4.569,3.285,9.413,1.56,10.313-3.667,13.424,9.923,26.668,9.923,4.2,0,8.228,8.235,8.228,8.235-3.988,19.493-16.434,24.132-16.434,24.132v18.781c4.9,3.876,5.024,18.238,3.277,30.153-3.294,22.457,5.446,45.191,13.206,47.1S-2032.759,3296.577-2041.748,3285.959Z" transform="translate(2146.396 -3132.476)" fill="#332a58"/>
            </g>
          </g>
          <g id="Grupo_792" data-name="Grupo 792">
            <path id="Caminho_1203" data-name="Caminho 1203" d="M-2047,3146.424c.885,3.552-26.63,13.4-61.437,22s-63.749,12.681-64.628,9.125,26.633-13.4,61.448-22S-2047.875,3142.869-2047,3146.424Z" transform="translate(2173.088 -3134.532)" fill="#ffd269"/>
            <path id="Caminho_1204" data-name="Caminho 1204" d="M-2045.464,3142.864c-7.836-17.208-13.578-23.286-38.546-17.119-24.8,6.117-26.191,15.938-26.162,33.093Z" transform="translate(2140.868 -3123.397)" fill="#ffd269"/>
            <path id="Caminho_1205" data-name="Caminho 1205" d="M-2110.171,3163.607c10.084-4.01,38.75-14.606,62.237-15.792a53.648,53.648,0,0,0-2.907-5.03c-22.217,1.684-47.41,10.573-58.875,15.034C-2109.965,3159.632-2110.1,3161.562-2110.171,3163.607Z" transform="translate(2140.867 -3133.326)" fill="#332a58"/>
          </g>
        </g>
      </g>
    </g>
  </g>
</svg>
