<svg xmlns="http://www.w3.org/2000/svg" xmlns:xlink="http://www.w3.org/1999/xlink" width="190" height="191" viewBox="0 0 190 191">
  <defs>
    <clipPath id="clip-path">
      <ellipse id="Elipse_12" data-name="Elipse 12" cx="95" cy="95.5" rx="95" ry="95.5" transform="translate(0.449 0)" fill="none"/>
    </clipPath>
  </defs>
  <g id="Grupo_813" data-name="Grupo 813" transform="translate(-0.449)">
    <ellipse id="Elipse_11" data-name="Elipse 11" cx="95" cy="95.5" rx="95" ry="95.5" transform="translate(0.449)" fill="#ebf3fa"/>
    <g id="Grupo_812" data-name="Grupo 812" transform="translate(0 0)">
      <g id="Grupo_811" data-name="Grupo 811" transform="translate(0 0)" clip-path="url(#clip-path)">
        <g id="Grupo_810" data-name="Grupo 810" transform="translate(18.096 22.682)">
          <g id="Grupo_797" data-name="Grupo 797" transform="translate(126.318 446.004)">
            <path id="Caminho_1206" data-name="Caminho 1206" d="M-1470.256,4042.473l-4.779,12.134-9.952-3.926,4.774-12.125Z" transform="translate(1484.987 -4038.557)" fill="#f29ea0"/>
            <path id="Caminho_1207" data-name="Caminho 1207" d="M-1465.267,4058.41l5.527-14.018,6.986,2.75,6.207,2.451L-1459.6,4082.7s-4.961.816-5.4-8.207C-1465.348,4067.384-1465.267,4058.41-1465.267,4058.41Z" transform="translate(1474.892 -4041.545)" fill="#332a58"/>
          </g>
          <path id="Caminho_1208" data-name="Caminho 1208" d="M-1702.367,3545.889s-11.286-.882-15.56,18.131c-4.124,18.336-16.259,57.659,6.651,65.3a187.859,187.859,0,0,0,10-40.026C-1699.11,3573-1700.246,3551.664-1702.367,3545.889Z" transform="translate(1734.135 -3340.25)" fill="#ffd269"/>
          <path id="Caminho_1209" data-name="Caminho 1209" d="M-1608.808,3645.535s-7.933,84.393-8.976,112.1c-1.107,29.466,8.976,112.1,8.976,112.1h17.721s11.135-83.462,14.617-112.1c6.5-53.626,5.944-112.1,5.944-112.1Z" transform="translate(1679.355 -3391.282)" fill="#92b8e2"/>
          <g id="Grupo_798" data-name="Grupo 798" transform="translate(50.969 478.514)">
            <rect id="Ret창ngulo_77" data-name="Ret창ngulo 77" width="13.029" height="10.703" transform="translate(21.79)" fill="#f29ea0"/>
            <path id="Caminho_1210" data-name="Caminho 1210" d="M-1618.519,4127.127h15.076v14.183h-35.6s-2.584-4.313,5.65-8.035C-1626.9,4130.339-1618.519,4127.127-1618.519,4127.127Z" transform="translate(1639.425 -4116.424)" fill="#332a58"/>
          </g>
          <path id="Caminho_1211" data-name="Caminho 1211" d="M-1659.331,3747.7l4.58-81.778h2.527l6.483-20.39h-49.943s-7.457,83.431,0,105c30.362,87.766,101.027,100.27,101.027,100.27l5.695-15.065Z" transform="translate(1720.902 -3391.282)" fill="#92b8e2"/>
          <path id="Caminho_1212" data-name="Caminho 1212" d="M-1579.049,3248.236l8.667-90.952a30.03,30.03,0,0,0-27.04-32.737,30.034,30.034,0,0,0-32.744,27.047l-8.671,90.943Z" transform="translate(1690.093 -3124.409)" fill="#7d331e"/>
          <path id="Caminho_1213" data-name="Caminho 1213" d="M-1608.561,3478.636s-17.623,5.32-47.085,3.889c-18.316-.873-43.016-11.268-43.016-11.268l32.318-171.728,59.124,12.583-2.442,81.59Z" transform="translate(1720.73 -3214.09)" fill="#b13feb"/>
          <g id="Grupo_800" data-name="Grupo 800" transform="translate(62.088 65.651)">
            <g id="Grupo_799" data-name="Grupo 799">
              <path id="Caminho_1214" data-name="Caminho 1214" d="M-1586.3,3286.7l2.489-26.089-17.117-1.63-2.308,24.133-13.149-2.736c-1.864,10.65,6.891,18.648,18.717,21,12.621,2.509,21.68-1.092,24.509-11.839Z" transform="translate(1616.634 -3258.976)" fill="#f29ea0"/>
              <path id="Caminho_1215" data-name="Caminho 1215" d="M-1586.566,3269.8a25.133,25.133,0,0,0,8.406,2.348,24.986,24.986,0,0,0,8.711-.727l1.031-10.819-17.117-1.635Z" transform="translate(1601.236 -3258.971)" fill="#f29ea0"/>
            </g>
          </g>
          <path id="Caminho_1216" data-name="Caminho 1216" d="M-1484.208,3417.213c-2.2-16.816-2.776-21.12-6.443-53.568-2.511-22.136-20.481-36.787-24.407-38.525,0,0-7.2,35.3-1.341,44.879,5.372,8.778,8.711,47.063,8.711,47.063a11.484,11.484,0,0,0,11.659,11.313C-1489.678,3428.285-1483.382,3423.509-1484.208,3417.213Z" transform="translate(1628.568 -3227.195)" fill="#b13feb"/>
          <path id="Caminho_1217" data-name="Caminho 1217" d="M-1739.8,3628.174s-9.406,12.7,2.192,25.283c2.738,2.963,6.584,3.645,7.484,1.141.686-1.921.412-4.541.309-7.357-.229-6.465-1.653-12.138.8-9.268,1.029,1.185,2.37,3.418,3.828,2.174,2.226-1.871-7.577-12.137-7.577-12.137Z" transform="translate(1743.642 -3382.308)" fill="#f29ea0"/>
          <path id="Caminho_1218" data-name="Caminho 1218" d="M-1689.507,3298.889c-8.929-1.854-12.632,1.854-21.736,20.394-5.915,12.062-22.978,48.039-28.1,68.674-4.26,17.181-4.55,70.067-4.55,70.067s1.484,1.426,6.221,2.5c5.367,1.22,7.236-.98,7.236-.98l13.947-64.426s8.37-25.662,19.146-46.84c6.151-12.12,8.874-16.165,10.064-18.339C-1678.838,3314.618-1680.217,3300.827-1689.507,3298.889Z" transform="translate(1743.893 -3213.543)" fill="#b13feb"/>
          <g id="Grupo_802" data-name="Grupo 802" transform="translate(27.142 95.466)">
            <g id="Grupo_801" data-name="Grupo 801">
              <path id="Caminho_1219" data-name="Caminho 1219" d="M-1684.364,3437.944a3.9,3.9,0,0,1-3.828-3.168,3.912,3.912,0,0,1,3.1-4.572c63.458-12.1,72.659-83.319,75.678-106.721a3.915,3.915,0,0,1,4.373-3.373,3.9,3.9,0,0,1,3.371,4.367c-3.2,24.792-12.949,100.247-81.956,113.4A4.177,4.177,0,0,1-1684.364,3437.944Z" transform="translate(1688.262 -3320.08)" fill="#ffd269"/>
            </g>
          </g>
          <g id="Grupo_805" data-name="Grupo 805" transform="translate(57.552 125.953)">
            <rect id="Ret창ngulo_78" data-name="Ret창ngulo 78" width="16.978" height="36.323" transform="translate(0 2.143) rotate(-7.252)" fill="#332a58"/>
            <g id="Grupo_804" data-name="Grupo 804" transform="translate(0.397 13.792)">
              <g id="Grupo_803" data-name="Grupo 803" transform="translate(22.075 13.179)">
                <path id="Caminho_1220" data-name="Caminho 1220" d="M-1521.253,3465.3a11.491,11.491,0,0,1,2.624,16.036h0a11.491,11.491,0,0,1-16.045,2.63s-15.925-11.448-20.86-15.729c-6.488-5.632-24.338-24.293-24.338-24.293l3.525-6.1s19.545,11.554,26.318,14.932C-1543.009,3456.284-1521.253,3465.3-1521.253,3465.3Z" transform="translate(1579.872 -3437.846)" fill="#f29ea0"/>
                <path id="Caminho_1221" data-name="Caminho 1221" d="M-1476.682,3488.089c-4.3-3.377-11.082-4.548-13.63-4.834,0,0,3.91,6.073,2.236,13.01-1.212,5.045-6.811,7.647-6.811,7.647a14.907,14.907,0,0,0,6.042,4.951c7.426,3.426,12.769-1.119,15.206-4.505C-1469.616,3498.756-1471.939,3491.814-1476.682,3488.089Z" transform="translate(1536.35 -3461.1)" fill="#b13feb"/>
              </g>
              <path id="Caminho_1222" data-name="Caminho 1222" d="M-1603.043,3430.109s-16.373.29-21.856-15.93c-1.29-3.827,3.286-5.481,9.242,1.181,4.019,4.519,10.647,7.932,9.911,4.122-.3-1.542-1.428-5.552.359-6.243,2.719-1.047,5.869,10.774,5.869,10.774Z" transform="translate(1625.117 -3410.834)" fill="#f29ea0"/>
            </g>
          </g>
          <g id="Grupo_809" data-name="Grupo 809" transform="translate(47.653 0.058)">
            <path id="Caminho_1223" data-name="Caminho 1223" d="M-1613.221,3186.69c4.349,15.119,11.04,15.992,19.457,15.52h0a25.123,25.123,0,0,0,24.529-25.737l-.387-16.4a25.136,25.136,0,0,0-25.734-24.538h0c-13.885.334-23.376,17.739-23.046,31.614C-1618.4,3167.147-1614.936,3180.694-1613.221,3186.69Z" transform="translate(1631.98 -3130.161)" fill="#f29ea0"/>
            <g id="Grupo_808" data-name="Grupo 808">
              <g id="Grupo_807" data-name="Grupo 807">
                <g id="Grupo_806" data-name="Grupo 806" transform="translate(11.224 4.742)">
                  <path id="Caminho_1224" data-name="Caminho 1224" d="M-1597.833,3134.255a26.017,26.017,0,0,1,26.628,25.38l.205,8.707c-19.378,8.2-42.1-4.211-46.3-14.445.044,1.751.019,3.818-.012,5.329-.083,3.971-.9,6.577-5.737,8.234l-.158-6.573A26.009,26.009,0,0,1-1597.833,3134.255Z" transform="translate(1623.218 -3134.248)" fill="#7d331e"/>
                </g>
                <path id="Caminho_1225" data-name="Caminho 1225" d="M-1550.8,3165.009s-7.076,3.409-1.3,14.009c3.738,6.84.065,12.053-6.354,15.85-8.484,5.008-8.515,27.479-3.453,34.484,6.283,8.688,20.876,16.7,37.349.285,12.842-12.779,1.836-47.927-.512-62.787-2.378-15.07-9.843-44.125-41.114-42.232Z" transform="translate(1605.235 -3124.529)" fill="#7d331e"/>
                <path id="Caminho_1226" data-name="Caminho 1226" d="M-1637.743,3266.961s-.367,17.547-6.813,27.658c-6.372,9.985,6.594,22.814,20.787,16.1,8.47-4,8.268-9.958,7.815-28.785L-1616.5,3269Z" transform="translate(1646.222 -3197.47)" fill="#7d331e"/>
              </g>
            </g>
          </g>
        </g>
      </g>
    </g>
  </g>
</svg>
