<svg xmlns="http://www.w3.org/2000/svg" xmlns:xlink="http://www.w3.org/1999/xlink" width="190" height="191" viewBox="0 0 190 191">
  <defs>
    <clipPath id="clip-path">
      <ellipse id="Elipse_14" data-name="Elipse 14" cx="95" cy="95.5" rx="95" ry="95.5" transform="translate(-0.283)" fill="none"/>
    </clipPath>
  </defs>
  <g id="Grupo_831" data-name="Grupo 831" transform="translate(0.283)">
    <ellipse id="Elipse_13" data-name="Elipse 13" cx="95" cy="95.5" rx="95" ry="95.5" transform="translate(-0.283)" fill="#ebf3fa"/>
    <g id="Grupo_830" data-name="Grupo 830" transform="translate(0 0)">
      <g id="Grupo_829" data-name="Grupo 829" transform="translate(0 0)" clip-path="url(#clip-path)">
        <g id="Grupo_828" data-name="Grupo 828" transform="translate(-35.486 24.382)">
          <path id="Caminho_1227" data-name="Caminho 1227" d="M-1046.2,3486.444-1061.726,3531V3385.574l13.279-44.21Z" transform="translate(1176.152 -3237.213)" fill="#e94e5d"/>
          <g id="Grupo_814" data-name="Grupo 814" transform="translate(215.61 427.931)">
            <path id="Caminho_1228" data-name="Caminho 1228" d="M-819.98,4044.032l-10.783,7.454-23.571-33.877,18.443-12.61Z" transform="translate(854.334 -4004.999)" fill="#f29ea0"/>
            <path id="Caminho_1229" data-name="Caminho 1229" d="M-820.66,4092.541l13.132-9.063,4.516,6.536,4.017,5.814-31.017,21.428s-4.843-2.218.089-10.413C-826.029,4100.392-820.66,4092.541-820.66,4092.541Z" transform="translate(842.968 -4045.188)" fill="#332a58"/>
          </g>
          <g id="Grupo_815" data-name="Grupo 815" transform="translate(53.78 431.13)">
            <path id="Caminho_1230" data-name="Caminho 1230" d="M-1119.577,4054.76l-12.75-3,9.31-40.2,21.726,5.222Z" transform="translate(1158.527 -4011.556)" fill="#f29ea0"/>
            <path id="Caminho_1231" data-name="Caminho 1231" d="M-1161.327,4093.222l15.547,3.662-1.827,7.731-1.618,6.879-36.7-8.635s-1.606-5.067,7.78-6.912C-1170.738,4094.518-1161.327,4093.222-1161.327,4093.222Z" transform="translate(1186.027 -4053.377)" fill="#332a58"/>
          </g>
          <path id="Caminho_1232" data-name="Caminho 1232" d="M-969.866,3638.727H-925.4s-.913,79.813.047,91.995c.8,10.084,11.238,34.506,21.784,56.215,5.162,10.631,14,40.512,14,40.512l-17.97,14.779s-20.2-17.711-33-32.264c-3.839-4.362-20.829-31.427-24.482-46.154-6.96-28.04-5.224-61.619-4.743-78.516l-.1-.062Z" transform="translate(1129.337 -3389.497)" fill="#332a58"/>
          <path id="Caminho_1233" data-name="Caminho 1233" d="M-1112.793,3745.294c7.6-29.266,37.788-113.837,37.788-113.837l39.734,9.834-3.429,36.489-8.044,1.778c-.907,5.191-10.019,50.124-25.586,89.259-17.157,43.127-21.1,53.723-21.1,53.723l-27-6.475S-1119.632,3771.628-1112.793,3745.294Z" transform="translate(1206.215 -3385.773)" fill="#332a58"/>
          <path id="Caminho_1234" data-name="Caminho 1234" d="M-1009.68,3504.714s-51.707-182.973-15.5-200.039c0,0,14.773-4.683,19.354-5.511,1.894-.343,9.618.851,13.029,11.091,8.29,24.872,26.227,97.823,38.826,135.229,11.091,32.933,3.665,34.952-5.407,38.311C-972.148,3488.521-1009.68,3504.714-1009.68,3504.714Z" transform="translate(1164.024 -3215.577)" fill="#e94e5d"/>
          <path id="Caminho_1235" data-name="Caminho 1235" d="M-1046.407,3151.475c-19.818-17.533-52.823,2.58-42.014,31.9l-.089-.174s.145.352.381.953c.087.223.163.442.245.66a95.168,95.168,0,0,1,3.5,11.313,17.778,17.778,0,0,1,.289,5.124c-.132,3.07,2.555,2.272,3.121,1.983,1.564-.8,2.752-1.462,2.752-1.462.229.343.45.722.664,1.052a29.859,29.859,0,0,0,4.3,5.538c5.768,5.65,11.4,4.545,16.994,2.607l4.2,14.744,19.354-5.511s-7.8-9.575-9.751-14.994c-1.013-2.8,2.783-7.325,4.071-9.593a29.869,29.869,0,0,0,4.1-15.8C-1034.59,3166.5-1038.545,3158.426-1046.407,3151.475Z" transform="translate(1190.909 -3136.62)" fill="#f29ea0"/>
          <g id="Grupo_817" data-name="Grupo 817" transform="translate(188.429 265.967)">
            <g id="Grupo_816" data-name="Grupo 816">
              <path id="Caminho_1236" data-name="Caminho 1236" d="M-910.045,3673.03" transform="translate(910.045 -3673.03)" fill="none"/>
            </g>
          </g>
          <path id="Caminho_1237" data-name="Caminho 1237" d="M-1041.344,3337.253s-10.134,12.641-8.782,56.272c1.145,37.179,3.424,54.682,9.8,90.814h14.232S-1047.387,3355.856-1041.344,3337.253Z" transform="translate(1170.274 -3235.108)" fill="#fff"/>
          <path id="Caminho_1238" data-name="Caminho 1238" d="M-980.184,3230.038l-.018,0a20.445,20.445,0,0,0-.7-3.386c-1.484-4.91,2.667-10.409,6.5-18.959s-6.185-15.9-9.968-22.092-.635-11.785-.049-17.681-4.117-7.954-12.378-7.731c-8.238.223-15.9-7.588-19.431-16.129-3.543-8.542-13.561-11.492-22.09-10.017s-21.5-4.728-21.5-4.728l.027.053a9.681,9.681,0,0,0-2.765-1.069,15.31,15.31,0,0,0-13.493,3.163c-2.154,1.872-3.157,2.335-10.045,3.19-5.2.66-8.533,4.915-8.255,10.209.165,3.5.831,6.108-4.77,10.176-6.305,4.594,1.183,18.662,8.029,16.572,5-1.529,3.665-9.4,10.055-8.28s8.357,9.562,16.09,8.957c1.8-.138,4.075-2.157,4.01-5.989-.064-3.712,6.824-2.731,8.334,1.346.9,2.4,2.95,10.115-3.429,10-3.68-.071-6.431,3.885-.3,6.172,3.143,1.176,3.293,6.577,5.835,8.172v.009s.027,0,.033.018a2.94,2.94,0,0,0,1.074.37,7.365,7.365,0,0,0,2,.031l-.016.068c-2.731,2.174.51,6.38,1.449,8.256,2.1,4.157,7.635,10.748,7.635,10.748,8.667.481,13.029,11.091,13.029,11.091l22.148,78.788c10.652,3.814,18.039-2.233,15.286-16.371s9.034-14.543,14.316-29.858S-980.184,3230.038-980.184,3230.038Z" transform="translate(1196.518 -3127.894)" fill="#ffd269"/>
          <g id="Grupo_820" data-name="Grupo 820" transform="translate(95.497 19.998)">
            <g id="Grupo_819" data-name="Grupo 819">
              <g id="Grupo_818" data-name="Grupo 818">
                <path id="Caminho_1239" data-name="Caminho 1239" d="M-1060.373,3190.634c-11.477-22.074-28.667-17.435-40.149-12.137,0,0,.88-6.1,5.362-7.553,17.26-5.618,30.511.272,39.374,17.311Z" transform="translate(1100.522 -3168.881)" fill="#332a58"/>
              </g>
            </g>
          </g>
          <path id="Caminho_1240" data-name="Caminho 1240" d="M-1011.883,3205.6a11.293,11.293,0,0,1-11.293,11.291,11.3,11.3,0,0,1-11.289-11.291,11.293,11.293,0,0,1,11.289-11.291A11.29,11.29,0,0,1-1011.883,3205.6Z" transform="translate(1162.191 -3161.904)" fill="#332a58"/>
          <g id="Grupo_825" data-name="Grupo 825" transform="translate(131.628 85.545)">
            <g id="Grupo_824" data-name="Grupo 824">
              <g id="Grupo_821" data-name="Grupo 821" transform="translate(17.156 143.085)">
                <path id="Caminho_1241" data-name="Caminho 1241" d="M-991.3,3614.3s46.42-20.327,69.355-17.529c0,0,25.808,68.214,2.742,77.87s-28.066,10.463-37.76,9.536C-976.34,3682.332-977.112,3680.452-991.3,3614.3Z" transform="translate(991.303 -3596.502)" fill="#92b8e2"/>
              </g>
              <g id="Grupo_823" data-name="Grupo 823">
                <g id="Grupo_822" data-name="Grupo 822">
                  <path id="Caminho_1242" data-name="Caminho 1242" d="M-1001.785,3464.042c-.2-1.007-19.873-100.381-23.175-121.492-3.4-21.78-2.067-32.474,14.887-38.213,5-1.683,9.565-1.448,13.579.718,8.181,4.407,12.053,15.627,14.769,26.017,9.48,36.319,17.478,64.569,34.833,118.181l-6.544,2.117c-17.415-53.768-25.422-82.112-34.94-118.565-2.03-7.771-5.414-18.487-11.378-21.695-2.3-1.252-4.957-1.328-8.107-.259-11.8,3.989-13.626,9.434-10.313,30.638,3.281,20.969,22.925,120.218,23.121,121.216Z" transform="translate(1026.466 -3303.23)" fill="#92b8e2"/>
                </g>
              </g>
            </g>
          </g>
          <g id="Grupo_827" data-name="Grupo 827" transform="translate(0 90.88)">
            <path id="Caminho_1243" data-name="Caminho 1243" d="M-1131.872,3379.491c12.891-16.107,50.888-51.205,58.329-59.071,8.522-9,17.068-6.621,21.852-3.137,4.081,2.968,9.415,13.929,2.671,22.832s-44.974,46.011-62.381,58.759c-5.075,3.725-13.065,10.373-21.622,1.533C-1139.762,3393.443-1135.428,3383.925-1131.872,3379.491Z" transform="translate(1214.474 -3314.165)" fill="#e94e5d"/>
            <g id="Grupo_826" data-name="Grupo 826" transform="translate(0 9.032)">
              <path id="Caminho_1244" data-name="Caminho 1244" d="M-1225.674,3382.735s47.018,27.684,56.4,33.1c6.813,3.939,9.019,11.416,6.479,16.745-2.177,4.554-8.545,9.834-18.525,4.83s-52.356-44.527-52.356-44.527Z" transform="translate(1264.21 -3358.312)" fill="#e94e5d"/>
              <path id="Caminho_1245" data-name="Caminho 1245" d="M-1269.645,3359.127l3.919-4.808-26.623-21.642-3.908,4.8Z" transform="translate(1296.257 -3332.677)" fill="#332a58"/>
              <path id="Caminho_1246" data-name="Caminho 1246" d="M-1262.936,3375.709s-14.252,2.028-27.374-18.513c-3.6-5.624.354-10.814,8.442-2.2,6.837,7.321,20.274,9.852,15.292,5.8-3.248-2.643-7.031-6.162-3.876-6.162,6.6,0,14.3,12.565,14.3,12.565Z" transform="translate(1293.897 -3341.765)" fill="#f29ea0"/>
            </g>
          </g>
        </g>
      </g>
    </g>
  </g>
</svg>
