<svg xmlns="http://www.w3.org/2000/svg" xmlns:xlink="http://www.w3.org/1999/xlink" width="190" height="191" viewBox="0 0 190 191">
  <defs>
    <clipPath id="clip-path">
      <ellipse id="Elipse_16" data-name="Elipse 16" cx="95" cy="95.5" rx="95" ry="95.5" transform="translate(-0.187)" fill="none"/>
    </clipPath>
  </defs>
  <g id="Grupo_856" data-name="Grupo 856" transform="translate(0.187)">
    <ellipse id="Elipse_15" data-name="Elipse 15" cx="95" cy="95.5" rx="95" ry="95.5" transform="translate(-0.187)" fill="#ebf3fa"/>
    <g id="Grupo_855" data-name="Grupo 855" transform="translate(0 0)">
      <g id="Grupo_854" data-name="Grupo 854" clip-path="url(#clip-path)">
        <g id="Grupo_853" data-name="Grupo 853" transform="translate(-50.939 14.496)">
          <g id="Grupo_848" data-name="Grupo 848">
            <path id="Caminho_1247" data-name="Caminho 1247" d="M-453.515,3145.191s24.556,2.014,33.811,28.936,16.263,28.33,27.764,29.172,28.885,1.938,33.379,15.555,14.022,22.342,30.854,20.644,30.845,20.457,17.389,42.612-27.207,5.021-45.716,19.6-20.1,31.8-40.089,30.05c-25.8-2.259-29.752-15.149-49.945-13.185s-30.506-12.868-25.44-40.1,10.108-34.506-1.3-47.971-36.13-45.307-19.977-68.094Z" transform="translate(596.837 -3126.378)" fill="#332a58"/>
            <g id="Grupo_838" data-name="Grupo 838" transform="translate(94.469 331.762)">
              <g id="Grupo_834" data-name="Grupo 834">
                <path id="Caminho_1248" data-name="Caminho 1248" d="M-483.052,4109.085s4.019,1.141,2.168,6.912-11.481,21.383-12.285,22.319c-4.946,5.664-14.169.245-13.648-4.3.726-6.282,5.775-23.161,10.965-24.935Z" transform="translate(506.839 -3951.759)" fill="#332a58"/>
                <g id="Grupo_833" data-name="Grupo 833" transform="translate(10.987)">
                  <g id="Grupo_832" data-name="Grupo 832">
                    <path id="Caminho_1249" data-name="Caminho 1249" d="M-471.52,3947.443s-1.337,3.151-6.4,3.151a8.076,8.076,0,0,1-6.4-3.151V3786.624h34.239s-5.6,57.957-7.717,77.228C-460.116,3884.8-471.52,3947.443-471.52,3947.443Z" transform="translate(484.32 -3786.624)" fill="#f29ea0"/>
                  </g>
                </g>
              </g>
              <g id="Grupo_837" data-name="Grupo 837" transform="translate(45.225)">
                <path id="Caminho_1250" data-name="Caminho 1250" d="M-371.414,4111.14s-2.27,2.308-2.27,9.419c0,4.358,21.967,12.748,23.138,13.247,7.892,3.288,10.476-1.992,9.946-6.666-.751-6.479-12.623-13.983-18.169-16Z" transform="translate(393.424 -3952.812)" fill="#332a58"/>
                <g id="Grupo_836" data-name="Grupo 836">
                  <g id="Grupo_835" data-name="Grupo 835">
                    <path id="Caminho_1251" data-name="Caminho 1251" d="M-392.287,3947.443s1.337,3.151,6.4,3.151a8.109,8.109,0,0,0,6.4-3.151V3786.624h-34.655s5.6,65.977,7.889,87.913C-404.329,3892.993-392.287,3947.443-392.287,3947.443Z" transform="translate(414.143 -3786.624)" fill="#f29ea0"/>
                  </g>
                </g>
              </g>
            </g>
            <path id="Caminho_1252" data-name="Caminho 1252" d="M-381.864,3651.688c10.382-4.18-8.107-56.2-39.547-89.442-9.856-10.436-26.291-32.153-26.291-32.153h-45.227s-10.719,13.782-17.951,40.851c-6.031,22.551-2.882,60.265-2.807,87.5.024,8.51,11.654,21.2,44.859,16.7,13.044-1.768,33.958-8.453,43.21-12.779C-397.038,3649.028-395.456,3657.163-381.864,3651.688Z" transform="translate(605.27 -3323.49)" fill="#4252ff"/>
            <path id="Caminho_1253" data-name="Caminho 1253" d="M-424.943,3307.693s-.66,28.5-18.628,23.407c-17.805-5.057-4.819-23.407-4.819-23.407l3.986-29.337H-428Z" transform="translate(573.717 -3194.573)" fill="#f29ea0"/>
            <path id="Caminho_1254" data-name="Caminho 1254" d="M-429.849,3295.738a27.924,27.924,0,0,0,10.271-2.019l-1.607-15.364h-16.4l-2.105,15.52A27.472,27.472,0,0,0-429.849,3295.738Z" transform="translate(566.922 -3194.573)" fill="#f29ea0"/>
            <g id="Grupo_840" data-name="Grupo 840" transform="translate(102.98 58.336)">
              <g id="Grupo_839" data-name="Grupo 839">
                <path id="Caminho_1255" data-name="Caminho 1255" d="M-361,3233.431c-1.056,3.119-3.779,5.017-6.1,4.247-2.306-.785-3.331-3.944-2.288-7.066s3.779-5.022,6.094-4.234C-360.984,3227.148-359.964,3230.316-361,3233.431Z" transform="translate(428.149 -3226.199)" fill="#f29ea0"/>
                <path id="Caminho_1256" data-name="Caminho 1256" d="M-488.986,3233.431c1.047,3.119,3.769,5.017,6.085,4.247s3.344-3.944,2.295-7.066-3.777-5.022-6.085-4.234C-489.006,3227.148-490.029,3230.316-488.986,3233.431Z" transform="translate(489.394 -3226.199)" fill="#f29ea0"/>
              </g>
            </g>
            <path id="Caminho_1257" data-name="Caminho 1257" d="M-420.964,3201.8a28.3,28.3,0,0,1-28.3,28.3h0a28.3,28.3,0,0,1-28.3-28.3v-14.766a28.3,28.3,0,0,1,28.3-28.294h0a28.293,28.293,0,0,1,28.3,28.294Z" transform="translate(586.315 -3133.314)" fill="#f29ea0"/>
            <g id="Grupo_843" data-name="Grupo 843" transform="translate(159.421 123.173)">
              <g id="Grupo_842" data-name="Grupo 842">
                <path id="Caminho_1258" data-name="Caminho 1258" d="M-285.994,3472.157l-24.587-53.3a11.008,11.008,0,0,0-2.148-3.752l-46.053-55.987a15.352,15.352,0,0,0-13.488,7.022c-3.783,5.739,1.081,12.044,1.081,12.044l40.757,50.752c.162.183.372.321.548.486l35.689,47.384C-291.094,3482.156-282.887,3477.5-285.994,3472.157Z" transform="translate(373.711 -3359.091)" fill="#f29ea0"/>
                <g id="Grupo_841" data-name="Grupo 841" transform="translate(79.516 113.066)">
                  <path id="Caminho_1259" data-name="Caminho 1259" d="M-202.532,3590.835s13.987,5.084,11.788,25.812c-.573,5.374-5.59,6.394-7.922-5.346-1.593-7.949-4.868-11.835-6.63-6.921-.7,1.979-.219,2.986-1.627,3.717-3.475,1.773-3.809-12.619-3.809-12.619Z" transform="translate(210.732 -3590.835)" fill="#f29ea0"/>
                </g>
              </g>
            </g>
            <g id="Grupo_846" data-name="Grupo 846">
              <g id="Grupo_845" data-name="Grupo 845">
                <path id="Caminho_1260" data-name="Caminho 1260" d="M-574.885,3242.444l-51.135-41.479a4.142,4.142,0,0,0-.408-.317l-39.155-47.61c-3.478-5.111-11.331.106-7.847,5.226l34.581,57.885a10.658,10.658,0,0,0,2.489,3.832l55.862,53.184s2.885-5.908,7.448-14.049C-569.683,3253.116-574.885,3242.444-574.885,3242.444Z" transform="translate(687.067 -3129.324)" fill="#f29ea0"/>
                <g id="Grupo_844" data-name="Grupo 844">
                  <path id="Caminho_1261" data-name="Caminho 1261" d="M-686.829,3135.572s-14.31-4.073-13.613-24.9c.183-5.4,5.117-6.782,8.29,4.763,2.161,7.815,5.71,11.452,7.109,6.435.551-2.028,0-3,1.35-3.823,3.335-2.023,4.71,12.3,4.71,12.3Z" transform="translate(700.467 -3106.631)" fill="#f29ea0"/>
                </g>
              </g>
            </g>
            <path id="Caminho_1262" data-name="Caminho 1262" d="M-484.934,3197.472c-.02-1.408.212-8.123,6.378-11.67,6.227-3.574,5.405-7.482,5.325-10.364,1.707,2.134,4.588,3.3,9.476,1.564,10.371-3.694,13.494,9.981,26.819,9.981,4.227,0,8.277,8.283,8.277,8.283-.167.77-.347,1.484-.535,2.206,0,0,4.512-1.965,6.149-23.736.505-6.693-3.117-17.979-15.56-24.814-27.673-15.172-40.55,4.22-40.55,4.22-6.486-.317-15.676,9.41-12.449,26.654A59.035,59.035,0,0,0-484.934,3197.472Z" transform="translate(593.847 -3125.319)" fill="#332a58"/>
            <path id="Caminho_1263" data-name="Caminho 1263" d="M-445.076,3338.486s20.281,6.154,25.576,10.075c0,0-8.6,13.14-2.359,31.583,0,0-1.568,7.138-6.057,23.687-3.2,11.79-8.366,28.139-8.366,28.139h-45.227s-10.765-19.855-10.765-33.762c0-7.464,1.4-31.886,1.4-31.886s9.206-12,9.206-27.836h13.145s-5.155,16.531,9.431,19.192C-447.573,3359.781-445.076,3338.486-445.076,3338.486Z" transform="translate(593.849 -3225.366)" fill="#4252ff"/>
            <path id="Caminho_1264" data-name="Caminho 1264" d="M-470.679,3528.488c7.637.887,15.072,1.88,22.5,2.161a81.786,81.786,0,0,0,22.259-1.813.486.486,0,0,1,.586.37.469.469,0,0,1-.181.485,29.6,29.6,0,0,1-10.917,4.826,47.555,47.555,0,0,1-11.908,1.177,58.912,58.912,0,0,1-11.765-1.569,45.2,45.2,0,0,1-11.1-4.082.84.84,0,0,1-.334-1.132.833.833,0,0,1,.825-.432Z" transform="translate(583.282 -3322.661)" fill="#332a58"/>
            <g id="Grupo_847" data-name="Grupo 847" transform="translate(103.477 27.592)">
              <path id="Caminho_1265" data-name="Caminho 1265" d="M-422.4,3195.287a38.927,38.927,0,0,0-1.466-3.974,42.652,42.652,0,0,0-5.47-9.442,40.962,40.962,0,0,0-4.835-5.213c-.945-.82-2.005-1.547-3.025-2.353l-3.4-2.059q-1.848-.814-3.754-1.658c-1.343-.379-2.693-.766-4.039-1.208a43.952,43.952,0,0,0-8.6-1.069c-.662-.031-1.611-.134-2.036-.121l-2.306.125a19.685,19.685,0,0,0-4.336.49,22.063,22.063,0,0,0-3.925.971,16.142,16.142,0,0,0-3.7,1.538l-1.729.922-1.546,1.136a18.422,18.422,0,0,0-2.819,2.464,30.051,30.051,0,0,0-4.157,5.637,39.6,39.6,0,0,0-3.848,10.173,41.423,41.423,0,0,0-.777,4.166,23.07,23.07,0,0,1-.2-4.291,34.913,34.913,0,0,1,2.195-11.278,27.31,27.31,0,0,1,3.93-6.865,22.008,22.008,0,0,1,3.021-3.209,17.42,17.42,0,0,1,3.738-2.727,20.232,20.232,0,0,1,4.3-2.089,20.257,20.257,0,0,1,4.768-1.364,23.946,23.946,0,0,1,4.748-.624l2.3-.169c1.112-.045,1.7.044,2.582.071a48.526,48.526,0,0,1,9.611,1.4c1.544.495,3.063,1.025,4.552,1.563q2.125,1.09,4.193,2.148c1.27.882,2.551,1.7,3.719,2.611,1.083,1.02,2.188,1.96,3.152,2.972a33.985,33.985,0,0,1,4.625,6.318,37.358,37.358,0,0,1,3.995,10.738A22.819,22.819,0,0,1-422.4,3195.287Z" transform="translate(488.377 -3163.184)" fill="#ffd550"/>
            </g>
          </g>
          <g id="Grupo_850" data-name="Grupo 850" transform="translate(119.669 111.754)">
            <g id="Grupo_849" data-name="Grupo 849">
              <path id="Caminho_1266" data-name="Caminho 1266" d="M-392.195,3451.229a2.624,2.624,0,0,1-1.613-.561c-40.471-31.979-55.01-78.8-58.5-92.391-3.253-12.655-2.883-20.849-2.852-21.224.149-1.43,1.326-1.443,2.771-1.314,1.422.143,3.043-.347,2.91,1.078-.007.081-.786,8.467,2.219,20.159,3.384,13.189,17.489,58.629,56.678,89.6a2.61,2.61,0,0,1,.434,3.663A2.623,2.623,0,0,1-392.195,3451.229Z" transform="translate(455.188 -3335.688)" fill="#ffd269"/>
            </g>
          </g>
          <path id="Caminho_1267" data-name="Caminho 1267" d="M-447.98,3583.692c-10.191-12.842,11.44-26.383,26.076-31.739,10.74-3.916,38.217-11.211,41.367,2.446,5,21.718,3.16,35.081-14.524,44.683C-410.725,3607.592-421.954,3616.441-447.98,3583.692Z" transform="translate(572.516 -3331.876)" fill="#ffd269"/>
          <g id="Grupo_852" data-name="Grupo 852" transform="translate(96.678 137.257)">
            <g id="Grupo_851" data-name="Grupo 851">
              <path id="Caminho_1268" data-name="Caminho 1268" d="M-468.819,3494.943a2.605,2.605,0,0,1-2.034-.98c-2.359-2.959-42.55-72.911-28.477-106,0,0,.835.882,1.916,1.831s1.642,1.551,1.642,1.551c-10.364,34.416,28.444,98.691,28.992,99.387a2.6,2.6,0,0,1-.419,3.654A2.583,2.583,0,0,1-468.819,3494.943Z" transform="translate(502.312 -3387.958)" fill="#ffd269"/>
            </g>
          </g>
        </g>
      </g>
    </g>
  </g>
</svg>
