<svg xmlns="http://www.w3.org/2000/svg" xmlns:xlink="http://www.w3.org/1999/xlink" width="191" height="191" viewBox="0 0 191 191">
  <defs>
    <clipPath id="clip-path">
      <circle id="Elipse_18" data-name="Elipse 18" cx="95.5" cy="95.5" r="95.5" transform="translate(-0.091)" fill="none"/>
    </clipPath>
  </defs>
  <g id="Grupo_877" data-name="Grupo 877" transform="translate(0.091)">
    <circle id="Elipse_17" data-name="Elipse 17" cx="95.5" cy="95.5" r="95.5" transform="translate(-0.091)" fill="#ebf3fa"/>
    <g id="Grupo_876" data-name="Grupo 876" transform="translate(0 0)">
      <g id="Grupo_875" data-name="Grupo 875" clip-path="url(#clip-path)">
        <g id="Grupo_874" data-name="Grupo 874" transform="translate(28.522 23.169)">
          <path id="Caminho_1269" data-name="Caminho 1269" d="M79.089,3206.935s-5.316,30.3,20.158,44.817c0,0,22.7-7.228,33.557,1.114,0,0,22.878.731,25.483-11.01,0,0-5.26-21.388-5.242-36.769Z" transform="translate(-49.491 -3165.724)" fill="#ffd269"/>
          <path id="Caminho_1270" data-name="Caminho 1270" d="M154.377,3320.661c-7.823-5.257-29.455-14.2-29.455-14.2H99.746s-15.414,10.056-23.861,13.808c0,0-10.324,41.092-4.026,67.987,6.069,25.942,8.275,61.268,8.275,61.268h63.987s-1.377-35.513,6.9-60.817C162.045,3355.024,154.377,3320.661,154.377,3320.661Z" transform="translate(-44.982 -3217.638)" fill="#e94e5d"/>
          <path id="Caminho_1271" data-name="Caminho 1271" d="M156.33,3284.353l-12.363,11.79-12.813-11.79V3263.29H156.33Z" transform="translate(-76.39 -3195.53)" fill="#f29ea0"/>
          <path id="Caminho_1272" data-name="Caminho 1272" d="M194.817,3927.2l11.039,123.409c.417,4.081-1.337,6.487-4.69,7.637-2.814.976-8.012-.762-9.139-3.935-9.419-26.494-20.2-73.445-26.94-127.111Z" transform="translate(-93.768 -3535.523)" fill="#f29ea0"/>
          <path id="Caminho_1273" data-name="Caminho 1273" d="M116.374,3928.8s-4.391,78.368-5.958,126.937c-.134,4.193-8.551,10.283-13.135,0,0,0-9.161-46.653-9.161-65.322,0-19.53-1.945-61.615-1.945-61.615Z" transform="translate(-53.356 -3536.343)" fill="#f29ea0"/>
          <path id="Caminho_1274" data-name="Caminho 1274" d="M136.029,3599.688H72.042c-2.738,3.212-22.651,23.036-17.024,77.691,4.991,48.587,14.045,103.357,14.045,103.357s22.867,5.182,34.972,5.182c12.73,0,36.239-5.182,36.239-5.182s7.789-54.77,12.784-103.357C158.68,3622.724,138.765,3602.9,136.029,3599.688Z" transform="translate(-36.89 -3367.803)" fill="#332a58"/>
          <path id="Caminho_1275" data-name="Caminho 1275" d="M97.432,4183.622a14.164,14.164,0,0,1-.169,5.039c-2.4,7.232-9.493,23.549-13.394,29.9-2.883,4.7-13.742,11.326-19.011,9.161-4.443-1.814-5.532-9.848-2.426-16.416s21.457-27.687,21.457-27.687Z" transform="translate(-40.29 -3666.841)" fill="#f29ea0"/>
          <path id="Caminho_1276" data-name="Caminho 1276" d="M97.6,4184.287h-.007a13.267,13.267,0,0,1-.212,4.715c-1.838,5.52-6.7,16.562-10.155,23.905-2.471,5.24-11.784,6.965-15.515,5.436-4.44-1.822-5.522-9.852-2.417-16.411.051-.106.109-.222.163-.329-3.16,4.081-5.875,7.864-6.907,10.048-3.106,6.567-1.655,15.011,2.789,16.834a5.716,5.716,0,0,0,1.836.383c5.438,1.573,15.081-4.171,19.467-10.97,4.044-6.27,9.527-19.53,11.912-26.776C99.668,4187.75,97.6,4184.287,97.6,4184.287Z" transform="translate(-40.41 -3667.181)" fill="#332a58"/>
          <path id="Caminho_1277" data-name="Caminho 1277" d="M218.809,4183.493a14.43,14.43,0,0,0,.176,5.035c2.4,7.241,9.5,23.545,13.4,29.9,2.885,4.706,13.739,11.327,19.016,9.166,4.444-1.828,5.532-9.848,2.417-16.42s-20.481-27.684-20.481-27.684Z" transform="translate(-121.203 -3666.775)" fill="#f29ea0"/>
          <path id="Caminho_1278" data-name="Caminho 1278" d="M252.953,4211.177a79.008,79.008,0,0,0-6.806-10.252c.512.846.938,1.6,1.232,2.214,3.115,6.568,2.025,14.6-2.424,16.419-3.879,1.6-13.265-.169-15.829-5.453-3.282-6.787-9.034-19.651-11-25.577a14.43,14.43,0,0,1-.176-5.035s-1.611,4.634-.682,7.111c2.7,7.135,8.116,19.405,11.6,26,3.24,6.127,13.272,12.24,18.849,11.381H247.7a6.646,6.646,0,0,0,2.832-.388C254.98,4225.77,256.068,4217.749,252.953,4211.177Z" transform="translate(-120.341 -3666.775)" fill="#332a58"/>
          <g id="Grupo_858" data-name="Grupo 858" transform="translate(46.773 86.893)">
            <g id="Grupo_857" data-name="Grupo 857">
              <path id="Caminho_1279" data-name="Caminho 1279" d="M157.416,3316.226s13.034-6.438,20.8-4.1c0,0-.541-8.079-8.439-9.615v1.929Z" transform="translate(-136.612 -3302.507)" fill="#fff"/>
              <path id="Caminho_1280" data-name="Caminho 1280" d="M135.579,3316.226s-13.038-6.438-20.8-4.1c0,0,.094-8.079,7.991-9.615v1.929Z" transform="translate(-114.775 -3302.507)" fill="#fff"/>
            </g>
          </g>
          <g id="Grupo_859" data-name="Grupo 859" transform="translate(66.541 100.612)">
            <path id="Caminho_1281" data-name="Caminho 1281" d="M156.329,3330.626s.232,8.2.582,20.51c.094,6.153.2,13.332.316,21.027.045,7.691.091,15.894.139,24.1-.047,8.207-.094,16.41-.136,24.1-.116,7.695-.225,14.873-.316,21.027-.35,12.307-.584,20.51-.584,20.51s-.234-8.2-.584-20.51c-.091-6.154-.2-13.332-.316-21.027-.042-7.691-.089-15.894-.136-24.1.046-8.2.093-16.407.138-24.1.116-7.7.223-14.874.317-21.027C156.1,3338.829,156.329,3330.626,156.329,3330.626Z" transform="translate(-155.293 -3330.626)" fill="#fff"/>
          </g>
          <path id="Caminho_1282" data-name="Caminho 1282" d="M151.337,3179.006c-2.173,9.375-15.295,27.11-27.121,27.11-10.166,0-26.514-14.749-27.227-24.476,0,0-2.533-17.377-2.9-23.219-1.072-17.294,15.091-31.347,30.125-31.347h0c15.034,0,31.777,14.072,30.543,31.347A159.109,159.109,0,0,1,151.337,3179.006Z" transform="translate(-57.384 -3125.772)" fill="#f29ea0"/>
          <path id="Caminho_1283" data-name="Caminho 1283" d="M133.288,3211.549s9.482-18.932,9.482-25.344v-21.219c0-8.836-7.219-16.246-7.219-16.246-.935,0-2.433,11.117-19.552,15.658-10.271,2.726-22.711-2.692-22.711,18,0,9.477,1.341,20.586,6.443,28.04,0,0-20.158-11.478-20.158-44.816,0-8.849,9.406-41.212,35.134-41.212,18.4,0,38.821,12.588,38.821,41.212C153.528,3182.217,147.542,3206.951,133.288,3211.549Z" transform="translate(-49.975 -3124.407)" fill="#ffd269"/>
          <g id="Grupo_866" data-name="Grupo 866" transform="translate(0 102.631)">
            <g id="Grupo_863" data-name="Grupo 863">
              <g id="Grupo_862" data-name="Grupo 862">
                <g id="Grupo_860" data-name="Grupo 860">
                  <path id="Caminho_1284" data-name="Caminho 1284" d="M49.811,3334.762s-23.48,14.87-26.249,32.7c-2.709,17.462-4.654,38.218-4.654,67.412H43.475s2.9-32.577,2.963-42.384C46.61,3362.822,49.811,3334.762,49.811,3334.762Z" transform="translate(-18.908 -3334.762)" fill="#e94e5d"/>
                </g>
                <g id="Grupo_861" data-name="Grupo 861" transform="translate(0 100.109)">
                  <path id="Caminho_1285" data-name="Caminho 1285" d="M38.482,3620.208H19.389l-.481-80.259H43.475Z" transform="translate(-18.908 -3539.949)" fill="#e94e5d"/>
                </g>
              </g>
            </g>
            <g id="Grupo_865" data-name="Grupo 865" transform="translate(0.081 180.367)">
              <g id="Grupo_864" data-name="Grupo 864">
                <path id="Caminho_1286" data-name="Caminho 1286" d="M41.161,3754.374l-.009-.009a10.319,10.319,0,0,0-.729-.86c-3.337-3.52-5.679-6.358-5.679-9.094,0-2.148-.051-3.671-.051-6.059,0-2.229,2.408-7.892,4.064-7.892,1.586,0,4.378,5.445,5.258,6.537a6.722,6.722,0,0,0,.568.615c-2.132.517-5.946,2.584-3.362,10.778C41.674,3749.825,44.367,3752.227,41.161,3754.374Z" transform="translate(-27.073 -3717.77)" fill="#f29ea0"/>
                <path id="Caminho_1287" data-name="Caminho 1287" d="M21.9,3704.451a97.8,97.8,0,0,0-2.831,24.15c0,5.485,3.11,13.893,11.095,15.951.84.215,3.063.014,3.451-.712.515-.945.481-1.885-1.194-3.654-3.337-3.52-5.679-6.358-5.679-9.094,0-2.148-.051-3.671-.051-6.06,0-2.228,2.408-7.892,4.064-7.892,1.586,0,4.378,5.446,5.258,6.537,2.727,3.36,7.232,2.526,4.844-1.305-5.895-9.393-4.275-17.921-4.275-17.921Z" transform="translate(-19.073 -3704.451)" fill="#f29ea0"/>
              </g>
            </g>
          </g>
          <g id="Grupo_873" data-name="Grupo 873" transform="translate(103.553 99.65)">
            <g id="Grupo_870" data-name="Grupo 870">
              <g id="Grupo_869" data-name="Grupo 869">
                <g id="Grupo_867" data-name="Grupo 867">
                  <path id="Caminho_1288" data-name="Caminho 1288" d="M231.154,3328.654s19.173,8.956,21.94,26.788c2.7,17.458,7.118,46.318,7.118,75.5H235.648s-2.905-32.572-2.961-42.384C232.511,3358.9,231.154,3328.654,231.154,3328.654Z" transform="translate(-231.154 -3328.654)" fill="#e94e5d"/>
                </g>
                <g id="Grupo_868" data-name="Grupo 868" transform="translate(4.494 102.292)">
                  <path id="Caminho_1289" data-name="Caminho 1289" d="M245.353,3618.573h19.1l.479-80.258H240.365Z" transform="translate(-240.365 -3538.315)" fill="#e94e5d"/>
                </g>
              </g>
            </g>
            <g id="Grupo_872" data-name="Grupo 872" transform="translate(6.52 182.55)">
              <g id="Grupo_871" data-name="Grupo 871">
                <path id="Caminho_1290" data-name="Caminho 1290" d="M258.064,3752.758l.02-.014a8.436,8.436,0,0,1,.726-.859c3.333-3.52,5.681-6.359,5.681-9.1,0-2.139.056-3.667.056-6.051,0-2.228-2.419-7.892-4.068-7.892-1.589,0-4.382,5.445-5.265,6.528a5.436,5.436,0,0,1-.575.615c2.136.53,5.955,2.589,3.369,10.787C257.558,3748.212,254.864,3750.606,258.064,3752.758Z" transform="translate(-249.701 -3716.144)" fill="#f29ea0"/>
                <path id="Caminho_1291" data-name="Caminho 1291" d="M264.144,3702.815a97.718,97.718,0,0,1,2.836,24.155c0,5.485-3.114,13.9-11.106,15.957-.831.218-3.052.018-3.444-.718-.51-.94-.479-1.885,1.2-3.654,3.333-3.52,5.681-6.359,5.681-9.1,0-2.139.056-3.667.056-6.051,0-2.228-2.419-7.892-4.068-7.892-1.589,0-4.382,5.445-5.265,6.528-2.733,3.364-7.234,2.536-4.83-1.3,5.886-9.388,4.255-17.93,4.255-17.93Z" transform="translate(-244.517 -3702.815)" fill="#f29ea0"/>
              </g>
            </g>
          </g>
        </g>
      </g>
    </g>
  </g>
</svg>
