<svg xmlns="http://www.w3.org/2000/svg" xmlns:xlink="http://www.w3.org/1999/xlink" width="191" height="191" viewBox="0 0 191 191">
  <defs>
    <clipPath id="clip-path">
      <circle id="Elipse_20" data-name="Elipse 20" cx="95.5" cy="95.5" r="95.5" transform="translate(0.091)" fill="none"/>
    </clipPath>
  </defs>
  <g id="Grupo_914" data-name="Grupo 914" transform="translate(-0.091)">
    <circle id="Elipse_19" data-name="Elipse 19" cx="95.5" cy="95.5" r="95.5" transform="translate(0.091)" fill="#ebf3fa"/>
    <g id="Grupo_913" data-name="Grupo 913" transform="translate(0 0)">
      <g id="Grupo_912" data-name="Grupo 912" clip-path="url(#clip-path)">
        <g id="Grupo_911" data-name="Grupo 911" transform="translate(17.42 22.483)">
          <g id="Grupo_884" data-name="Grupo 884" transform="translate(8.718 104.512)">
            <g id="Grupo_883" data-name="Grupo 883">
              <g id="Grupo_878" data-name="Grupo 878" transform="translate(0.212)">
                <path id="Caminho_1292" data-name="Caminho 1292" d="M648.911,3337.212s-18.946,5.525-28.736,52.908c-3.8,18.385-5.815,14.851-5.815,42.041h19.31l10.106-45.129C643.932,3356.96,648.911,3337.212,648.911,3337.212Z" transform="translate(-614.36 -3337.212)" fill="#b13feb"/>
              </g>
              <g id="Grupo_882" data-name="Grupo 882" transform="translate(0 94.949)">
                <g id="Grupo_879" data-name="Grupo 879">
                  <path id="Caminho_1293" data-name="Caminho 1293" d="M632.247,3611.31l-18.32,2.21.212-81.7h19.31Z" transform="translate(-613.926 -3531.823)" fill="#b13feb"/>
                </g>
                <g id="Grupo_881" data-name="Grupo 881" transform="translate(1.926 79.781)">
                  <g id="Grupo_880" data-name="Grupo 880">
                    <path id="Caminho_1294" data-name="Caminho 1294" d="M640.22,3741.561l-.011-.008a8.4,8.4,0,0,0-.751-.691c-3.4-2.821-5.823-5.147-6.127-7.625-.234-1.929-.452-3.306-.713-5.472-.238-2.01,1.315-7.4,2.819-7.575,1.437-.173,4.558,4.447,5.469,5.329a5.3,5.3,0,0,0,.591.5c-1.881.7-5.109,2.986-1.876,10.128C640.182,3737.391,642.892,3739.262,640.22,3741.561Z" transform="translate(-625.412 -3708.066)" fill="#b13feb"/>
                    <path id="Caminho_1295" data-name="Caminho 1295" d="M618.506,3696.954a89.2,89.2,0,0,0,.071,22.158c.6,4.951,4.333,12.227,11.779,13.211.78.107,2.772-.312,3.044-1.011.352-.914.232-1.76-1.479-3.172-3.4-2.82-5.824-5.147-6.127-7.625-.234-1.929-.452-3.306-.713-5.472-.238-2.009,1.315-7.4,2.819-7.574,1.437-.174,4.558,4.447,5.469,5.329,2.839,2.75,6.815,1.5,4.231-1.693-6.347-7.865-5.8-15.76-5.8-15.76Z" transform="translate(-617.874 -3695.345)" fill="#b13feb"/>
                  </g>
                </g>
              </g>
            </g>
          </g>
          <path id="Caminho_1296" data-name="Caminho 1296" d="M728.692,3128.209c-5.581-3.466-14.292-8.817-32.022-1.7-14.956,6-27.68,30.875-8.726,89.214,5.38,16.572,1.787,48.177-6.565,65.46,0,0,61.392-38.093,65.543-76.35C749.59,3180.16,745.983,3138.926,728.692,3128.209Z" transform="translate(-638.235 -3123)" fill="#332a58"/>
          <g id="Grupo_886" data-name="Grupo 886" transform="translate(41.095 92.722)">
            <g id="Grupo_885" data-name="Grupo 885">
              <path id="Caminho_1297" data-name="Caminho 1297" d="M764.662,3326.627c-8.45-3.756-29.319-13.582-29.319-13.582H710.167s-15.049,8.378-23.5,12.134c0,0-10.685,42.771-4.389,69.67,6.071,25.928,8.279,56.2,8.279,56.2h63.977s-1.367-30.442,6.909-55.751C772.464,3361.61,764.662,3326.627,764.662,3326.627Z" transform="translate(-680.288 -3313.045)" fill="#332a58"/>
            </g>
          </g>
          <g id="Grupo_888" data-name="Grupo 888" transform="translate(52.863 5.209)">
            <g id="Grupo_887" data-name="Grupo 887">
              <path id="Caminho_1298" data-name="Caminho 1298" d="M766.706,3290.933l-12.371,11.79-12.8-11.79v-21.067h25.175Z" transform="translate(-723.419 -3203.421)" fill="#f29ea0"/>
              <path id="Caminho_1299" data-name="Caminho 1299" d="M761.7,3185.605c-2.172,9.375-15.295,27.118-27.121,27.118-10.161,0-26.516-14.767-27.23-24.489,0,0-2.526-17.374-2.9-23.216-1.068-17.288,15.091-31.342,30.125-31.342h0c15.03,0,31.774,14.067,30.547,31.342A159.776,159.776,0,0,1,761.7,3185.605Z" transform="translate(-704.408 -3133.677)" fill="#f29ea0"/>
            </g>
          </g>
          <path id="Caminho_1300" data-name="Caminho 1300" d="M805.19,3928.606l11.035,123.409c.416,4.081-1.349,6.488-4.693,7.637-2.809.977-8.016-.762-9.146-3.934-9.411-26.494-20.2-73.446-26.933-127.112Z" transform="translate(-687.928 -3535.558)" fill="#f29ea0"/>
          <path id="Caminho_1301" data-name="Caminho 1301" d="M726.743,3930.206s-4.393,78.368-5.961,126.937c-.136,4.193-8.558,10.283-13.138,0,0,0-9.168-46.653-9.168-65.323,0-19.53-1.938-61.615-1.938-61.615Z" transform="translate(-647.514 -3536.378)" fill="#f29ea0"/>
          <path id="Caminho_1302" data-name="Caminho 1302" d="M746.384,3595.907H682.407c-2.744,3.208-22.653,28.1-17.03,82.75,4.995,48.595,14.047,100.83,14.047,100.83s22.867,5.182,34.976,5.182c12.723,0,36.237-5.182,36.237-5.182s7.789-52.235,12.775-100.83C769.046,3624.005,749.126,3599.115,746.384,3595.907Z" transform="translate(-631.047 -3365.18)" fill="#84474c"/>
          <path id="Caminho_1303" data-name="Caminho 1303" d="M707.8,4185.029a14.325,14.325,0,0,1-.169,5.039c-2.4,7.232-9.493,23.549-13.4,29.9-2.883,4.7-13.74,11.326-19.009,9.161-4.437-1.813-5.532-9.847-2.423-16.416s21.453-27.687,21.453-27.687Z" transform="translate(-634.448 -3666.875)" fill="#f29ea0"/>
          <path id="Caminho_1304" data-name="Caminho 1304" d="M707.959,4185.7h0a13.214,13.214,0,0,1-.214,4.714c-1.836,5.521-6.7,16.562-10.162,23.906-2.464,5.24-11.768,6.964-15.5,5.436-4.443-1.822-5.532-9.852-2.424-16.411.049-.107.109-.223.158-.33-3.157,4.082-5.866,7.864-6.9,10.047-3.108,6.568-1.655,15.012,2.785,16.835a5.779,5.779,0,0,0,1.849.382c5.427,1.573,15.076-4.169,19.461-10.97,4.044-6.27,9.527-19.53,11.91-26.775C710.026,4189.157,707.959,4185.7,707.959,4185.7Z" transform="translate(-634.567 -3667.216)" fill="#332a58"/>
          <path id="Caminho_1305" data-name="Caminho 1305" d="M829.18,4184.9a14.413,14.413,0,0,0,.167,5.036c2.413,7.24,9.493,23.544,13.4,29.9,2.883,4.705,13.74,11.326,19.016,9.166,4.438-1.828,5.527-9.848,2.422-16.419S843.7,4184.9,843.7,4184.9Z" transform="translate(-715.363 -3666.809)" fill="#f29ea0"/>
          <path id="Caminho_1306" data-name="Caminho 1306" d="M863.324,4212.584a79.031,79.031,0,0,0-6.818-10.253,24.554,24.554,0,0,1,1.243,2.215c3.106,6.567,2.016,14.6-2.426,16.419-3.884,1.6-13.276-.168-15.832-5.453-3.282-6.786-9.029-19.65-11.006-25.576a14.41,14.41,0,0,1-.167-5.036s-1.617,4.635-.686,7.112c2.7,7.133,8.114,19.4,11.6,26,3.237,6.128,13.27,12.241,18.853,11.381h-.016A6.636,6.636,0,0,0,860.9,4229C865.34,4227.176,866.429,4219.156,863.324,4212.584Z" transform="translate(-714.501 -3666.809)" fill="#332a58"/>
          <g id="Grupo_894" data-name="Grupo 894" transform="translate(35.709 92.722)">
            <g id="Grupo_893" data-name="Grupo 893">
              <g id="Grupo_890" data-name="Grupo 890" transform="translate(47.844)">
                <g id="Grupo_889" data-name="Grupo 889">
                  <path id="Caminho_1307" data-name="Caminho 1307" d="M779.908,3313.045l27.656,11.831s2.76,2.067,3.8,7.432c.775,4,5.763,47.209-9.2,98.674-4.371,15.074,10.645,27.612,12.788,45.333l-47.642,6.087v-84.26Z" transform="translate(-767.312 -3313.045)" fill="#b13feb"/>
                </g>
              </g>
              <g id="Grupo_892" data-name="Grupo 892">
                <g id="Grupo_891" data-name="Grupo 891">
                  <path id="Caminho_1308" data-name="Caminho 1308" d="M704.3,3313.045l-27.662,11.831s-2.77,2.067-3.805,7.432c-.769,4-5.755,47.209,9.2,98.674,4.382,15.074-10.642,27.612-12.79,45.333l47.644,6.087v-84.26Z" transform="translate(-669.249 -3313.045)" fill="#b13feb"/>
                </g>
              </g>
            </g>
          </g>
          <g id="Grupo_895" data-name="Grupo 895" transform="translate(62.974 90.801)">
            <path id="Caminho_1309" data-name="Caminho 1309" d="M767.773,3322.821s13.027-6.435,20.818-4.1c0,0-.55-8.083-8.446-9.612v1.921Z" transform="translate(-746.969 -3309.11)" fill="#fff"/>
            <path id="Caminho_1310" data-name="Caminho 1310" d="M745.936,3322.821s-13.022-6.435-20.8-4.1c0,0,.1-8.083,8-9.612v1.921Z" transform="translate(-725.132 -3309.11)" fill="#fff"/>
          </g>
          <g id="Grupo_896" data-name="Grupo 896" transform="translate(51.096 4.356)" style="mix-blend-mode: multiply;isolation: isolate">
            <path id="Caminho_1311" data-name="Caminho 1311" d="M732.943,3132.265a40.446,40.446,0,0,0-12.96,4.34,33.57,33.57,0,0,0-10.07,8.484,32.239,32.239,0,0,0-5.964,11.71,33.73,33.73,0,0,0-1.085,6.639c-.051,1.158-.187,2.366-.176,3.458a12.536,12.536,0,0,0,.532,3.417,10.274,10.274,0,0,1-1.568-3.261c-.337-1.217-.421-2.362-.631-3.534a25.965,25.965,0,0,1,.049-7.312,28.445,28.445,0,0,1,5.9-13.465,29.251,29.251,0,0,1,11.759-8.787A26.287,26.287,0,0,1,732.943,3132.265Z" transform="translate(-700.787 -3131.928)" fill="#a1a1a0"/>
          </g>
          <path id="Caminho_1312" data-name="Caminho 1312" d="M734.775,3132.619c-18.229,0-32.028,14.972-30.972,31.886a13.587,13.587,0,0,0,1.246,6.162c1.448-.076,5.082.237,6.59,5.08,0,0-4.97-19.316,4.846-22.983,6-2.237,12.405,5.886,18.291,5.886,12,0,10.928-8.836,17.647-7.183,10.73,2.625,5.483,24.28,5.483,24.28,1.515-4.843,5.144-5.156,6.588-5.08.3-2.491.53-4.714.619-6.189C766.164,3147.563,753.6,3132.619,734.775,3132.619Z" transform="translate(-651.206 -3127.926)" fill="#332a58"/>
          <g id="Grupo_900" data-name="Grupo 900" transform="translate(51.679 41.89)">
            <g id="Grupo_899" data-name="Grupo 899">
              <g id="Grupo_897" data-name="Grupo 897" transform="translate(54.157)">
                <path id="Caminho_1313" data-name="Caminho 1313" d="M821.379,3216.986c-1.249,3.7-3.992,6.109-6.144,5.383s-2.892-4.3-1.645-8,3.982-6.1,6.133-5.378S822.614,3213.3,821.379,3216.986Z" transform="translate(-812.984 -3208.859)" fill="#f29ea0"/>
              </g>
              <g id="Grupo_898" data-name="Grupo 898">
                <path id="Caminho_1314" data-name="Caminho 1314" d="M702.585,3216.986c1.245,3.7,4,6.109,6.14,5.383,2.157-.726,2.9-4.3,1.649-8-1.234-3.693-3.986-6.1-6.142-5.378S701.342,3213.3,702.585,3216.986Z" transform="translate(-701.982 -3208.859)" fill="#f29ea0"/>
              </g>
            </g>
          </g>
          <g id="Grupo_902" data-name="Grupo 902" transform="translate(50.814 53.078)">
            <g id="Grupo_901" data-name="Grupo 901">
              <path id="Caminho_1315" data-name="Caminho 1315" d="M819.615,3254.414H815.8l1.9-11.313,1.907-11.309,1.91,11.309,1.9,11.313Z" transform="translate(-759.406 -3231.792)" fill="#84474c"/>
              <path id="Caminho_1316" data-name="Caminho 1316" d="M704.021,3254.414h-3.812l1.9-11.313,1.909-11.309,1.9,11.309,1.907,11.313Z" transform="translate(-700.209 -3231.792)" fill="#84474c"/>
            </g>
          </g>
          <g id="Grupo_903" data-name="Grupo 903" transform="translate(0 293.795)">
            <path id="Caminho_1317" data-name="Caminho 1317" d="M641.427,3747.818a4.843,4.843,0,0,1-4.846,4.839h0a4.842,4.842,0,0,1-4.85-4.839v-17.792a4.851,4.851,0,0,1,4.85-4.852h0a4.852,4.852,0,0,1,4.846,4.852Z" transform="translate(-614.326 -3725.173)" fill="#84474c"/>
            <path id="Caminho_1318" data-name="Caminho 1318" d="M640.56,3819.814c.962,10.163-12.7,12.609-20.9,12.609-15.537,0-23.6-3.948-23.6-12.609,0-9.785,4.117-43.244,4.117-43.244,0-5.444,3.687-9.86,8.232-9.86h19.808c4.545,0,8.235,4.416,8.235,9.86C636.45,3776.57,639.636,3810.091,640.56,3819.814Z" transform="translate(-596.058 -3746.444)" fill="#332a58"/>
          </g>
          <g id="Grupo_910" data-name="Grupo 910" transform="translate(99.369 105.082)">
            <g id="Grupo_909" data-name="Grupo 909">
              <g id="Grupo_904" data-name="Grupo 904" transform="translate(21.931)">
                <path id="Caminho_1319" data-name="Caminho 1319" d="M847.433,3338.381s41.786,36.8,65.219,56.406l-21.107,16.241-37.29-24.935S838.468,3348.8,847.433,3338.381Z" transform="translate(-844.678 -3338.381)" fill="#b13feb"/>
              </g>
              <g id="Grupo_905" data-name="Grupo 905" transform="translate(68.798 56.406)">
                <path id="Caminho_1320" data-name="Caminho 1320" d="M961.846,3453.993s11.467,16.241,2.518,31.9l-23.625-15.657Z" transform="translate(-940.739 -3453.993)" fill="#b13feb"/>
              </g>
              <g id="Grupo_907" data-name="Grupo 907" transform="translate(0 132.576)">
                <g id="Grupo_906" data-name="Grupo 906">
                  <path id="Caminho_1321" data-name="Caminho 1321" d="M838.59,3612.445A127.229,127.229,0,0,0,801.4,3620.9a2.631,2.631,0,0,0,1.927,4.9,97.89,97.89,0,0,1,12.971-3.983c-3.578,1.809-5.227,2.232-9.277,4.95a2.631,2.631,0,1,0,2.927,4.372c4.482-3,6.532-3.583,10.373-5.436-2.957,2.629-3.87,3.07-6.628,7.009a2.633,2.633,0,1,0,4.313,3.022c2.42-3.45,2.972-3.516,5.581-5.855-1.356,2.174-1.742,2.156-3.059,4.99a2.632,2.632,0,1,0,4.774,2.215c1.065-2.3,1.186-1.832,2.259-3.619,1.15-1.943,6.109-5.694,9.745-7.289a10.694,10.694,0,0,0,5.1-4.714C843.736,3617.943,840.034,3612.324,838.59,3612.445Z" transform="translate(-799.728 -3611.307)" fill="#b13feb"/>
                  <path id="Caminho_1322" data-name="Caminho 1322" d="M860.094,3611.252s-4.534-1.528-7.838-1.043l.893,2.544s5.378-.486,7.11-.9Z" transform="translate(-826.628 -3610.115)" fill="#b13feb"/>
                </g>
              </g>
              <g id="Grupo_908" data-name="Grupo 908" transform="translate(31.826 72.647)">
                <path id="Caminho_1323" data-name="Caminho 1323" d="M901.932,3487.282l-36.972,58.741s2.634,12.957,12.066,15.778l48.531-58.862Z" transform="translate(-864.96 -3487.282)" fill="#b13feb"/>
              </g>
            </g>
          </g>
        </g>
      </g>
    </g>
  </g>
</svg>
